<svg id="Layer_1" xmlns="http://www.w3.org/2000/svg" viewBox="0 0 122 70"><style>.st0{fill:#ff8b00}.st1{fill:#240f6e}</style><path class="st0" d="M41.4 19.2c.4 1 1.4 1.6 2.4 1.6.3 0 .7-.1 1-.2 1.3-.5 1.9-2 1.4-3.4l-3.5-8.5c-.5-1.3-2-1.9-3.4-1.4-1.3.5-1.9 2-1.4 3.4l3.5 8.5zm74.9 20.1c-.5-1.3-2-1.9-3.4-1.4l-8.5 3.5c-1.3.5-1.9 2-1.4 3.4.4 1 1.4 1.6 2.4 1.6.3 0 .7-.1 1-.2l8.5-3.5c1.4-.6 2-2.1 1.4-3.4zM78.9 20.6c.3.1.7.2 1 .2 1 0 2-.6 2.4-1.6l3.5-8.5c.5-1.3-.1-2.8-1.4-3.4-1.3-.5-2.8.1-3.4 1.4l-3.5 8.5c-.5 1.4.1 2.9 1.4 3.4zM19.1 41.5L10.6 38c-1.3-.5-2.8.1-3.4 1.4-.5 1.3.1 2.8 1.4 3.4l8.5 3.5c.3.1.7.2 1 .2 1 0 2-.6 2.4-1.6.6-1.4 0-2.9-1.4-3.4zm7.5-11.2c.5.5 1.2.8 1.8.8.7 0 1.3-.3 1.8-.8 1-1 1-2.6 0-3.6l-6.5-6.5c-1-1-2.6-1-3.6 0s-1 2.6 0 3.6l6.5 6.5zm68.6.8c.7 0 1.3-.3 1.8-.8l6.5-6.5c1-1 1-2.6 0-3.6s-2.6-1-3.6 0l-6.5 6.5c-1 1-1 2.6 0 3.6.5.5 1.2.8 1.8.8zM61.8 17.2c1.4 0 2.6-1.1 2.6-2.6V5.5c0-1.4-1.1-2.6-2.6-2.6-1.4 0-2.6 1.1-2.6 2.6v9.2c.1 1.4 1.2 2.5 2.6 2.5zM14.6 59.3H5.4c-1.4 0-2.6 1.1-2.6 2.6 0 1.4 1.1 2.6 2.6 2.6h9.2c1.4 0 2.6-1.1 2.6-2.6-.1-1.4-1.2-2.6-2.6-2.6zm103.7 0h-9.2c-1.4 0-2.6 1.1-2.6 2.6 0 1.4 1.1 2.6 2.6 2.6h9.2c1.4 0 2.6-1.1 2.6-2.6-.1-1.4-1.2-2.6-2.6-2.6zM83.8 28.9C75 23.1 64.5 21 54.1 23c-20.3 4-34.2 23.3-31.6 43.8.2 1.3 1.3 2.2 2.5 2.2h.3c1.4-.2 2.4-1.5 2.2-2.9C25.2 48.2 37.3 31.5 55 28c9-1.8 18.2 0 25.9 5.2 7.7 5.1 12.9 12.9 14.7 22 .7 3.6.9 7.3.4 11-.2 1.4.8 2.7 2.2 2.9 1.4.2 2.7-.8 2.9-2.2.5-4.2.4-8.5-.5-12.6-2-10.5-7.9-19.5-16.8-25.4z"/><path class="st1" d="M39.4 17.2c.4 1 1.4 1.6 2.4 1.6.3 0 .7-.1 1-.2 1.3-.5 1.9-2 1.4-3.4l-3.5-8.5c-.5-1.3-2-1.9-3.4-1.4-1.3.5-1.9 2-1.4 3.4l3.5 8.5zm74.9 20.1c-.5-1.3-2-1.9-3.4-1.4l-8.5 3.5c-1.3.5-1.9 2-1.4 3.4.4 1 1.4 1.6 2.4 1.6.3 0 .7-.1 1-.2l8.5-3.5c1.4-.6 2-2.1 1.4-3.4zM76.9 18.6c.3.1.7.2 1 .2 1 0 2-.6 2.4-1.6l3.5-8.5c.5-1.3-.1-2.8-1.4-3.4-1.3-.5-2.8.1-3.4 1.4l-3.5 8.5c-.5 1.4.1 2.9 1.4 3.4zM17.1 39.5L8.6 36c-1.3-.5-2.8.1-3.4 1.4-.5 1.3.1 2.8 1.4 3.4l8.5 3.5c.3.1.7.2 1 .2 1 0 2-.6 2.4-1.6.6-1.4 0-2.9-1.4-3.4zm7.5-11.2c.5.5 1.2.8 1.8.8.7 0 1.3-.3 1.8-.8 1-1 1-2.6 0-3.6l-6.5-6.5c-1-1-2.6-1-3.6 0s-1 2.6 0 3.6l6.5 6.5zm68.6.8c.7 0 1.3-.3 1.8-.8l6.5-6.5c1-1 1-2.6 0-3.6s-2.6-1-3.6 0l-6.5 6.5c-1 1-1 2.6 0 3.6.5.5 1.2.8 1.8.8zM59.8 15.2c1.4 0 2.6-1.1 2.6-2.6V3.5c0-1.4-1.1-2.6-2.6-2.6-1.4 0-2.6 1.1-2.6 2.6v9.2c.1 1.4 1.2 2.5 2.6 2.5zM12.6 57.3H3.4C2 57.3.8 58.4.8 59.9c0 1.4 1.1 2.6 2.6 2.6h9.2c1.4 0 2.6-1.1 2.6-2.6-.1-1.4-1.2-2.6-2.6-2.6zm103.7 0h-9.2c-1.4 0-2.6 1.1-2.6 2.6 0 1.4 1.1 2.6 2.6 2.6h9.2c1.4 0 2.6-1.1 2.6-2.6-.1-1.4-1.2-2.6-2.6-2.6zM81.8 26.9C73 21.1 62.5 19 52.1 21c-20.3 4-34.2 23.3-31.6 43.8.2 1.3 1.3 2.2 2.5 2.2h.3c1.4-.2 2.4-1.5 2.2-2.9C23.2 46.2 35.3 29.5 53 26c9-1.8 18.2 0 25.9 5.2 7.7 5.1 12.9 12.9 14.7 22 .7 3.6.9 7.3.4 11-.2 1.4.8 2.7 2.2 2.9 1.4.2 2.7-.8 2.9-2.2.5-4.2.4-8.5-.5-12.6-2-10.5-7.9-19.5-16.8-25.4z"/></svg>