<?xml version="1.0" encoding="utf-8"?>
<!-- Generator: Adobe Illustrator 22.0.1, SVG Export Plug-In . SVG Version: 6.00 Build 0)  -->
<svg version="1.1" id="Layer_1" xmlns="http://www.w3.org/2000/svg" xmlns:xlink="http://www.w3.org/1999/xlink" x="0px" y="0px"
	 viewBox="0 0 122 70" style="enable-background:new 0 0 122 70;" xml:space="preserve">
<style type="text/css">
	.st0{fill:#FF8B00;}
	.st1{fill:#240F6E;}
</style>
<g>
	<g>
		<path class="st0" d="M41.4,19.2c0.4,1,1.4,1.6,2.4,1.6c0.3,0,0.7-0.1,1-0.2c1.3-0.5,1.9-2,1.4-3.4l-3.5-8.5
			c-0.5-1.3-2-1.9-3.4-1.4c-1.3,0.5-1.9,2-1.4,3.4L41.4,19.2z"/>
		<path class="st0" d="M116.3,39.3c-0.5-1.3-2-1.9-3.4-1.4l-8.5,3.5c-1.3,0.5-1.9,2-1.4,3.4c0.4,1,1.4,1.6,2.4,1.6
			c0.3,0,0.7-0.1,1-0.2l8.5-3.5C116.3,42.1,116.9,40.6,116.3,39.3z"/>
		<path class="st0" d="M78.9,20.6c0.3,0.1,0.7,0.2,1,0.2c1,0,2-0.6,2.4-1.6l3.5-8.5c0.5-1.3-0.1-2.8-1.4-3.4
			c-1.3-0.5-2.8,0.1-3.4,1.4l-3.5,8.5C77,18.6,77.6,20.1,78.9,20.6z"/>
		<path class="st0" d="M19.1,41.5l-8.5-3.5c-1.3-0.5-2.8,0.1-3.4,1.4c-0.5,1.3,0.1,2.8,1.4,3.4l8.5,3.5c0.3,0.1,0.7,0.2,1,0.2
			c1,0,2-0.6,2.4-1.6C21.1,43.5,20.5,42,19.1,41.5z"/>
		<path class="st0" d="M26.6,30.3c0.5,0.5,1.2,0.8,1.8,0.8c0.7,0,1.3-0.3,1.8-0.8c1-1,1-2.6,0-3.6l-6.5-6.5c-1-1-2.6-1-3.6,0
			c-1,1-1,2.6,0,3.6L26.6,30.3z"/>
		<path class="st0" d="M95.2,31.1c0.7,0,1.3-0.3,1.8-0.8l6.5-6.5c1-1,1-2.6,0-3.6c-1-1-2.6-1-3.6,0l-6.5,6.5c-1,1-1,2.6,0,3.6
			C93.9,30.8,94.6,31.1,95.2,31.1z"/>
		<path class="st0" d="M61.8,17.2c1.4,0,2.6-1.1,2.6-2.6V5.5c0-1.4-1.1-2.6-2.6-2.6c-1.4,0-2.6,1.1-2.6,2.6v9.2
			C59.3,16.1,60.4,17.2,61.8,17.2z"/>
		<path class="st0" d="M14.6,59.3H5.4c-1.4,0-2.6,1.1-2.6,2.6c0,1.4,1.1,2.6,2.6,2.6h9.2c1.4,0,2.6-1.1,2.6-2.6
			C17.1,60.5,16,59.3,14.6,59.3z"/>
		<path class="st0" d="M118.3,59.3h-9.2c-1.4,0-2.6,1.1-2.6,2.6c0,1.4,1.1,2.6,2.6,2.6h9.2c1.4,0,2.6-1.1,2.6-2.6
			C120.8,60.5,119.7,59.3,118.3,59.3z"/>
		<path class="st0" d="M83.8,28.9C75,23.1,64.5,21,54.1,23c-20.3,4-34.2,23.3-31.6,43.8c0.2,1.3,1.3,2.2,2.5,2.2c0.1,0,0.2,0,0.3,0
			c1.4-0.2,2.4-1.5,2.2-2.9c-2.3-17.9,9.8-34.6,27.5-38.1c9-1.8,18.2,0,25.9,5.2c7.7,5.1,12.9,12.9,14.7,22c0.7,3.6,0.9,7.3,0.4,11
			c-0.2,1.4,0.8,2.7,2.2,2.9c1.4,0.2,2.7-0.8,2.9-2.2c0.5-4.2,0.4-8.5-0.5-12.6C98.6,43.8,92.7,34.8,83.8,28.9z"/>
	</g>
	<g>
		<g>
			<path class="st1" d="M39.4,17.2c0.4,1,1.4,1.6,2.4,1.6c0.3,0,0.7-0.1,1-0.2c1.3-0.5,1.9-2,1.4-3.4l-3.5-8.5
				c-0.5-1.3-2-1.9-3.4-1.4c-1.3,0.5-1.9,2-1.4,3.4L39.4,17.2z"/>
			<path class="st1" d="M114.3,37.3c-0.5-1.3-2-1.9-3.4-1.4l-8.5,3.5c-1.3,0.5-1.9,2-1.4,3.4c0.4,1,1.4,1.6,2.4,1.6
				c0.3,0,0.7-0.1,1-0.2l8.5-3.5C114.3,40.1,114.9,38.6,114.3,37.3z"/>
			<path class="st1" d="M76.9,18.6c0.3,0.1,0.7,0.2,1,0.2c1,0,2-0.6,2.4-1.6l3.5-8.5c0.5-1.3-0.1-2.8-1.4-3.4
				c-1.3-0.5-2.8,0.1-3.4,1.4l-3.5,8.5C75,16.6,75.6,18.1,76.9,18.6z"/>
			<path class="st1" d="M17.1,39.5l-8.5-3.5c-1.3-0.5-2.8,0.1-3.4,1.4c-0.5,1.3,0.1,2.8,1.4,3.4l8.5,3.5c0.3,0.1,0.7,0.2,1,0.2
				c1,0,2-0.6,2.4-1.6C19.1,41.5,18.5,40,17.1,39.5z"/>
			<path class="st1" d="M24.6,28.3c0.5,0.5,1.2,0.8,1.8,0.8c0.7,0,1.3-0.3,1.8-0.8c1-1,1-2.6,0-3.6l-6.5-6.5c-1-1-2.6-1-3.6,0
				c-1,1-1,2.6,0,3.6L24.6,28.3z"/>
			<path class="st1" d="M93.2,29.1c0.7,0,1.3-0.3,1.8-0.8l6.5-6.5c1-1,1-2.6,0-3.6c-1-1-2.6-1-3.6,0l-6.5,6.5c-1,1-1,2.6,0,3.6
				C91.9,28.8,92.6,29.1,93.2,29.1z"/>
			<path class="st1" d="M59.8,15.2c1.4,0,2.6-1.1,2.6-2.6V3.5c0-1.4-1.1-2.6-2.6-2.6c-1.4,0-2.6,1.1-2.6,2.6v9.2
				C57.3,14.1,58.4,15.2,59.8,15.2z"/>
			<path class="st1" d="M12.6,57.3H3.4c-1.4,0-2.6,1.1-2.6,2.6c0,1.4,1.1,2.6,2.6,2.6h9.2c1.4,0,2.6-1.1,2.6-2.6
				C15.1,58.5,14,57.3,12.6,57.3z"/>
			<path class="st1" d="M116.3,57.3h-9.2c-1.4,0-2.6,1.1-2.6,2.6c0,1.4,1.1,2.6,2.6,2.6h9.2c1.4,0,2.6-1.1,2.6-2.6
				C118.8,58.5,117.7,57.3,116.3,57.3z"/>
			<path class="st1" d="M81.8,26.9C73,21.1,62.5,19,52.1,21c-20.3,4-34.2,23.3-31.6,43.8c0.2,1.3,1.3,2.2,2.5,2.2c0.1,0,0.2,0,0.3,0
				c1.4-0.2,2.4-1.5,2.2-2.9c-2.3-17.9,9.8-34.6,27.5-38.1c9-1.8,18.2,0,25.9,5.2c7.7,5.1,12.9,12.9,14.7,22c0.7,3.6,0.9,7.3,0.4,11
				c-0.2,1.4,0.8,2.7,2.2,2.9c1.4,0.2,2.7-0.8,2.9-2.2c0.5-4.2,0.4-8.5-0.5-12.6C96.6,41.8,90.7,32.8,81.8,26.9z"/>
		</g>
	</g>
</g>
</svg>
