<?xml version="1.0" encoding="utf-8"?><svg width="306" height="204" viewBox="0 0 306 204" xmlns="http://www.w3.org/2000/svg" xmlns:xlink="http://www.w3.org/1999/xlink"><svg id="kaplan-accommodation" viewBox="-1 -1 102 102" width="102" height="102" xmlns="http://www.w3.org/2000/svg"><style>.ast0{display:none}.ast1{display:inline;opacity:.1;enable-background:new}.ast2{fill:#007db3}</style><g id="aLayer_1_1_" class="ast0"><path class="ast1" d="M99.8 0H0V100.1H100.1V0h-.3zM16.5 83.6v5.8c-1.6 0-3-.7-4.1-1.7l4.1-4.1zm-4.2 4c-1-1.1-1.7-2.5-1.7-4.1h5.8l-4.1 4.1zm-1.8-4.4v-9.6c1.7 2.9 3.7 5.5 6 7.9v1.7h-6zm0-10.2v-8.3h6v16.4c-2.2-2.5-4.3-5.2-6-8.1zm0-8.5V50.1h6v14.3l-6 .1zm0-14.6V35.5h6v14.3h-6v.1zm0-14.6V27c1.7-2.9 3.7-5.6 6-8v16.4c0-.1-6-.1-6-.1zm0-8.9v-9.6h6v1.7c-2.2 2.4-4.2 5.1-6 7.9zm6-10l-4.1-4.1c1.1-1 2.5-1.7 4.1-1.7v5.8zm-.1.1h-5.8c0-1.6.7-3 1.7-4.1l4.1 4.1zm-6.1 0c-3.5.1-6.3 2.9-6.3 6.4v12.4H.5V.7L12 12.2c-1 1.2-1.7 2.7-1.7 4.3zM6.5 64.7c1 2.9 2.3 5.8 3.8 8.4v10.1c-3.3-.1-6-2.8-6-6.1V64.7h2.2zm-2.2-.2v-9.6c.4 3.3 1.1 6.5 2.1 9.6H4.3zm2.4.2h3.6v7.9c-1.4-2.5-2.6-5.1-3.6-7.9zm-.1-.2a45.1 45.1 0 0 1-2.3-14.3h6v14.3H6.6zM4.3 45.1v-9.6h2.1c-1 3.1-1.8 6.3-2.1 9.6zm0 4.8c0-5 .8-9.8 2.3-14.3h3.6v14.3H4.3zm2.4-14.6c.9-2.8 2.1-5.4 3.6-7.9v7.9H6.7zm-.2 0H4.3V22.9c0-3.3 2.7-6 6-6.1v10.1c-1.6 2.6-2.9 5.4-3.8 8.4zm-6 .2H4v14.3H.5V35.5zm0 14.6H4v14.3H.5V50.1zm0 14.6H4v12.4c0 3.5 2.8 6.3 6.3 6.4 0 1.7.7 3.2 1.8 4.3L.5 99.3V64.7zm34.8 34.8H.7L12.3 88c1.1 1.1 2.6 1.7 4.3 1.8.1 3.5 2.9 6.3 6.4 6.3h12.4v3.4h-.1zm0-64.4L17.8 17.6c.3-.3.6-.5.8-.8h16.7v18.3zM17.6 17.4l-.6-.6h1.3c-.3.2-.5.4-.7.6zm.9-.9h-1.7v-6h9.6c-2.8 1.8-5.5 3.8-7.9 6zm-1.1 1.1l-.6.6V17l.6.6zm.2.2l17.5 17.5H16.8V18.6l.8-.8zM35 35.5c-3.6 3.7-5.8 8.8-5.9 14.3H16.8V35.5H35zm-5.8 14.6c0 5.6 2.3 10.6 5.9 14.3H16.8V50.1h12.4zm5.9 14.6L17.6 82.2c-.3-.3-.5-.6-.8-.8V64.7h18.3zM18.2 83.2H17l.6-.6.6.6zm-.8-.8l-.6.6v-1.3c.2.3.4.5.6.7zm1.1 1.1c2.4 2.3 5.1 4.3 7.9 6h-9.6v-6h1.7zm16.8 6H27c-2.9-1.7-5.6-3.7-8-6h16.4c-.1 0-.1 6-.1 6zm0 6.2H22.9c-3.3 0-6-2.7-6.1-6h10.1c2.6 1.5 5.5 2.8 8.4 3.8v2.2zm0-2.4c-2.8-.9-5.4-2.1-7.9-3.6h7.9v3.6zm0-10.1H18.6c-.3-.3-.6-.5-.8-.8l17.5-17.5v18.3zm0-18.9c-3.6-3.7-5.8-8.7-5.8-14.2h5.8v14.2zm0-14.4h-5.8c0-5.5 2.3-10.5 5.8-14.2v14.2zm0-33.4H18.9c2.4-2.3 5.1-4.3 8-6h8.3c.1 0 .1 6 .1 6zm0-6.2h-7.9c2.5-1.4 5.1-2.6 7.9-3.6v3.6zm-8.4 0H16.8c.1-3.3 2.8-6 6.1-6h12.4v2.2c-3 .9-5.8 2.2-8.4 3.8zM35.3 4H22.9c-3.5 0-6.3 2.8-6.4 6.3-1.7 0-3.2.7-4.3 1.8L.7.5h34.6V4zm.2.3h9.6c-3.3.4-6.5 1.1-9.6 2.1V4.3zm0 31.4l14.1 14.1H35.5V35.7zm0 14.4h14.1L35.5 64.3V50.1zm0 43.5c3.1 1 6.3 1.7 9.6 2.1h-9.6v-2.1zm14.4 5.9H35.5V96h14.3v3.5h.1zm0-3.8c-5 0-9.8-.8-14.3-2.3v-3.6h14.3v5.9zm0-6.2H35.5v-6h14.3v6h.1zm0-6.3H35.5V65c3.7 3.6 8.8 5.8 14.3 5.9.1-.1.1 12.3.1 12.3zm0-12.6c-5.5 0-10.5-2.3-14.2-5.8h14.2v5.8zm0-6.1H35.7l14.1-14.1.1 14.1zm0-14.8L35.7 35.5h14.1l.1 14.2zm0-14.4H35.7c3.7-3.6 8.7-5.8 14.2-5.8v5.8zm0-6.1c-5.6 0-10.6 2.3-14.3 5.9V16.8h14.3v12.4zm0-12.7H35.5v-6h14.3v6h.1zm0-6.2H35.5V6.6c4.5-1.5 9.3-2.3 14.3-2.3.1 0 .1 6 .1 6zm0-6.3H35.5V.5h14.3V4h.1zm.2 25.4c5.5 0 10.5 2.3 14.2 5.8H50.1v-5.8zm0 6.1h14.1L50.1 49.7V35.5zm0 14.8l14.1 14.1H50.1V50.3zm0 14.4h14.2c-3.7 3.6-8.7 5.8-14.2 5.8v-5.8zm14.4 34.8H50.1V96h14.3l.1 3.5zm0-3.8h-9.6c3.3-.4 6.5-1.1 9.6-2.1v2.1zm0-2.3a45.1 45.1 0 0 1-14.3 2.3v-6h14.3v3.7zm0-3.9H50.1v-6h14.3l.1 6zm0-6.3H50.1V70.8c5.6 0 10.6-2.3 14.3-5.9l.1 18.3zm0-18.9L50.3 50.1h14.1l.1 14.2zm0-14.4H50.3l14.1-14.1.1 14.1zm0-14.9c-3.7-3.6-8.8-5.8-14.3-5.9V16.8h14.3V35zm0-18.5H50.1v-6h14.3l.1 6zm0-6.2H50.1v-6c5 0 9.8.8 14.3 2.3l.1 3.7zm0-3.9c-3.1-1-6.3-1.7-9.6-2.1h9.6v2.1zm0-2.4H50.1V.5h14.3l.1 3.5zm.2-3.5h34.6L87.7 12.1c-1.1-1.1-2.6-1.7-4.3-1.8 0-3.5-2.8-6.3-6.3-6.3H64.7V.5zm18.9 83h5.8c0 1.6-.7 3-1.7 4.1l-4.1-4.1zm4 4.2c-1.1 1-2.5 1.7-4.1 1.7v-5.8l4.1 4.1zm-4.1-4.5v-1.7c2.3-2.4 4.3-5.1 6-7.9v9.6h-6zm0-2.1V64.7h6V73c-1.7 2.9-3.8 5.6-6 8.1zm0-16.6V50.1h6v14.3l-6 .1zm0-14.6V35.5h6v14.3h-6v.1zm0-14.6V18.9c2.3 2.4 4.3 5.1 6 8v8.3c0 .1-6 .1-6 .1zm0-16.8v-1.7h6v9.6c-1.8-2.8-3.8-5.5-6-7.9zm.1-2l4.1-4.1c1 1.1 1.7 2.5 1.7 4.1h-5.8zm-.1-.1v-5.8c1.6 0 3 .7 4.1 1.7l-4.1 4.1zM64.7 64.9l17.5 17.5c-.3.3-.6.5-.8.8H64.7V64.9zm17.7 17.7l.6.6h-1.3c.3-.2.5-.4.7-.6zm-.9.9h1.7v6h-9.6c2.8-1.8 5.5-3.8 7.9-6zm1.1-1.1l.6-.6V83l-.6-.6zm-.2-.2L64.9 64.7h18.3v16.7l-.8.8zM65 64.5c3.6-3.7 5.8-8.8 5.9-14.3h12.4v14.3H65zm5.8-14.6c0-5.6-2.3-10.6-5.9-14.3h18.2v14.3H70.8zm-5.9-14.6l17.5-17.5c.3.3.5.6.8.8v16.7H64.9zm16.9-18.5H83l-.6.6-.6-.6zm.8.8l.6-.6v1.3c-.2-.3-.4-.5-.6-.7zm-1.1-1.1c-2.4-2.3-5.1-4.3-7.9-6h9.6v6h-1.7zM64.7 4.3h12.4c3.3 0 6 2.7 6.1 6H73.1c-2.6-1.5-5.5-2.8-8.4-3.8V4.3zm0 2.4c2.8.9 5.4 2.1 7.9 3.6h-7.9V6.7zm0 3.8H73c2.9 1.7 5.6 3.7 8 6H64.7v-6zm0 6.3h16.7c.3.3.6.5.8.8L64.7 35.1V16.8zm0 18.9c3.6 3.7 5.8 8.7 5.8 14.2h-5.8V35.7zm0 14.4h5.8c0 5.5-2.3 10.5-5.8 14.2V50.1zm0 33.4h16.4c-2.4 2.3-5.1 4.3-8 6h-8.3c-.1 0-.1-6-.1-6zm0 6.2h7.9c-2.5 1.4-5.1 2.6-7.9 3.6v-3.6zm0 3.8c2.9-1 5.8-2.3 8.4-3.8h10.1c-.1 3.3-2.8 6-6.1 6H64.7v-2.2zm0 6V96h12.4c3.5 0 6.3-2.8 6.4-6.3 1.7 0 3.2-.7 4.3-1.8l11.6 11.5H64.7v.1zm34.8-.2L87.9 87.7c1.1-1.1 1.7-2.6 1.8-4.3 3.5-.1 6.3-2.9 6.3-6.4V64.7h3.5v34.6zm-6-64c-1-2.9-2.3-5.8-3.8-8.4V16.8c3.3.1 6 2.8 6 6.1v12.4h-2.2zm2.2.2v9.6c-.4-3.3-1.1-6.5-2.1-9.6h2.1zm-2.4-.2h-3.6v-7.9c1.4 2.5 2.6 5.1 3.6 7.9zm.1.2c1.5 4.5 2.3 9.3 2.3 14.3h-6V35.5h3.7zm2.3 19.4v9.6h-2.1c1-3.1 1.8-6.3 2.1-9.6zm0-4.8c0 5-.8 9.8-2.3 14.3h-3.6V50.1h5.9zm-2.4 14.6c-.9 2.8-2.1 5.4-3.6 7.9v-7.9h3.6zm.2 0h2.2v12.4c0 3.3-2.7 6-6 6.1V73.1c1.6-2.6 2.9-5.4 3.8-8.4zm6-.2H96V50.1h3.5v14.4zm0-14.6H96V35.5h3.5v14.4zm0-14.6H96V22.9c0-3.5-2.8-6.3-6.3-6.4 0-1.7-.7-3.2-1.8-4.3L99.5.7v34.6z"/></g><path class="ast2" d="M59.2 30.9c0-5.1-4.1-9.2-9.2-9.2s-9.2 4.1-9.2 9.2 4.1 9.2 9.2 9.2c5.1-.1 9.2-4.2 9.2-9.2zm-15.4 0c0-3.4 2.8-6.2 6.2-6.2s6.2 2.8 6.2 6.2S53.4 37 50 37s-6.2-2.7-6.2-6.1z"/><path class="ast2" d="M51 25.1h-2v4.8h-2.7v2H51zM18.9 44.9c.8 0 1.5-.7 1.5-1.5v-1c0-.8-.7-1.5-1.5-1.5s-1.5.7-1.5 1.5v1c0 .8.7 1.5 1.5 1.5zM71.1 61.5v-7.2h7.5l-2.5-15.6h-13l-2.5 15.6h7.5v7.2H40.7c-.6-3.6-3.1-6.3-6.1-6.3h-8.8c-2.3 0-4.3 1.5-5.4 3.8V48.4c0-.8-.7-1.5-1.5-1.5s-1.5.7-1.5 1.5v40.9c0 .8.7 1.5 1.5 1.5s1.5-.7 1.5-1.5v-9.1h59.2v9.1c0 .8.7 1.5 1.5 1.5s1.5-.7 1.5-1.5V72.1c0-5.7-5.1-10.4-11.5-10.6zm-5.5-19.8h8l1.5 9.6h-11l1.5-9.6zM25.8 58.3h8.8c1.4 0 2.6 1.4 3.1 3.3h-15c.5-1.9 1.7-3.3 3.1-3.3zm-5.4 18.9v-3.6h9.8c.8 0 1.5-.7 1.5-1.5s-.7-1.5-1.5-1.5h-9.8v-6.1h50.4c4.2 0 7.8 2.7 8.6 6.1h-43c-.8 0-1.5.7-1.5 1.5s.7 1.5 1.5 1.5h43.2v3.6H20.4z"/><path class="ast2" d="M95.9 50.5L82.6 33.2V14.5c0-.8-.7-1.5-1.5-1.5h-8.4c-.8 0-1.5.7-1.5 1.5v4l-6.7-8.7c-.3-.4-.7-.6-1.2-.6H36.6c-.5 0-.9.2-1.2.6L4.1 50.5c-.5.7-.4 1.6.3 2.1.3.2.6.3.9.3.4 0 .9-.2 1.2-.6l30.9-40.2h25.3l30.9 40.2c.5.7 1.4.8 2.1.3.6-.5.7-1.4.2-2.1zM74.2 16h5.4v13.3l-5.4-7V16z"/></svg><svg id="kaplan-course" viewBox="-1 -1 102 102" width="102" height="102" x="102" xmlns="http://www.w3.org/2000/svg"><style>.bst0{display:none}.bst1{display:inline;opacity:.1;enable-background:new}.bst2{fill:#007db3}</style><g id="bLayer_1_1_" class="bst0"><path class="bst1" d="M99.8 0H0V100.1H100.1V0h-.3zM16.5 83.6v5.8c-1.6 0-3-.7-4.1-1.7l4.1-4.1zm-4.2 4c-1-1.1-1.7-2.5-1.7-4.1h5.8l-4.1 4.1zm-1.8-4.4v-9.6c1.7 2.9 3.7 5.5 6 7.9v1.7h-6zm0-10.2v-8.3h6v16.4c-2.2-2.5-4.3-5.2-6-8.1zm0-8.5V50.1h6v14.3l-6 .1zm0-14.6V35.5h6v14.3h-6v.1zm0-14.6V27c1.7-2.9 3.7-5.6 6-8v16.4c0-.1-6-.1-6-.1zm0-8.9v-9.6h6v1.7c-2.2 2.4-4.2 5.1-6 7.9zm6-10l-4.1-4.1c1.1-1 2.5-1.7 4.1-1.7v5.8zm-.1.1h-5.8c0-1.6.7-3 1.7-4.1l4.1 4.1zm-6.1 0c-3.5.1-6.3 2.9-6.3 6.4v12.4H.5V.7L12 12.2c-1 1.2-1.7 2.7-1.7 4.3zM6.5 64.7c1 2.9 2.3 5.8 3.8 8.4v10.1c-3.3-.1-6-2.8-6-6.1V64.7h2.2zm-2.2-.2v-9.6c.4 3.3 1.1 6.5 2.1 9.6H4.3zm2.4.2h3.6v7.9c-1.4-2.5-2.6-5.1-3.6-7.9zm-.1-.2a45.1 45.1 0 0 1-2.3-14.3h6v14.3H6.6zM4.3 45.1v-9.6h2.1c-1 3.1-1.8 6.3-2.1 9.6zm0 4.8c0-5 .8-9.8 2.3-14.3h3.6v14.3H4.3zm2.4-14.6c.9-2.8 2.1-5.4 3.6-7.9v7.9H6.7zm-.2 0H4.3V22.9c0-3.3 2.7-6 6-6.1v10.1c-1.6 2.6-2.9 5.4-3.8 8.4zm-6 .2H4v14.3H.5V35.5zm0 14.6H4v14.3H.5V50.1zm0 14.6H4v12.4c0 3.5 2.8 6.3 6.3 6.4 0 1.7.7 3.2 1.8 4.3L.5 99.3V64.7zm34.8 34.8H.7L12.3 88c1.1 1.1 2.6 1.7 4.3 1.8.1 3.5 2.9 6.3 6.4 6.3h12.4v3.4h-.1zm0-64.4L17.8 17.6c.3-.3.6-.5.8-.8h16.7v18.3zM17.6 17.4l-.6-.6h1.3c-.3.2-.5.4-.7.6zm.9-.9h-1.7v-6h9.6c-2.8 1.8-5.5 3.8-7.9 6zm-1.1 1.1l-.6.6V17l.6.6zm.2.2l17.5 17.5H16.8V18.6l.8-.8zM35 35.5c-3.6 3.7-5.8 8.8-5.9 14.3H16.8V35.5H35zm-5.8 14.6c0 5.6 2.3 10.6 5.9 14.3H16.8V50.1h12.4zm5.9 14.6L17.6 82.2c-.3-.3-.5-.6-.8-.8V64.7h18.3zM18.2 83.2H17l.6-.6.6.6zm-.8-.8l-.6.6v-1.3c.2.3.4.5.6.7zm1.1 1.1c2.4 2.3 5.1 4.3 7.9 6h-9.6v-6h1.7zm16.8 6H27c-2.9-1.7-5.6-3.7-8-6h16.4c-.1 0-.1 6-.1 6zm0 6.2H22.9c-3.3 0-6-2.7-6.1-6h10.1c2.6 1.5 5.5 2.8 8.4 3.8v2.2zm0-2.4c-2.8-.9-5.4-2.1-7.9-3.6h7.9v3.6zm0-10.1H18.6c-.3-.3-.6-.5-.8-.8l17.5-17.5v18.3zm0-18.9c-3.6-3.7-5.8-8.7-5.8-14.2h5.8v14.2zm0-14.4h-5.8c0-5.5 2.3-10.5 5.8-14.2v14.2zm0-33.4H18.9c2.4-2.3 5.1-4.3 8-6h8.3c.1 0 .1 6 .1 6zm0-6.2h-7.9c2.5-1.4 5.1-2.6 7.9-3.6v3.6zm-8.4 0H16.8c.1-3.3 2.8-6 6.1-6h12.4v2.2c-3 .9-5.8 2.2-8.4 3.8zM35.3 4H22.9c-3.5 0-6.3 2.8-6.4 6.3-1.7 0-3.2.7-4.3 1.8L.7.5h34.6V4zm.2.3h9.6c-3.3.4-6.5 1.1-9.6 2.1V4.3zm0 31.4l14.1 14.1H35.5V35.7zm0 14.4h14.1L35.5 64.3V50.1zm0 43.5c3.1 1 6.3 1.7 9.6 2.1h-9.6v-2.1zm14.4 5.9H35.5V96h14.3v3.5h.1zm0-3.8c-5 0-9.8-.8-14.3-2.3v-3.6h14.3v5.9zm0-6.2H35.5v-6h14.3v6h.1zm0-6.3H35.5V65c3.7 3.6 8.8 5.8 14.3 5.9.1-.1.1 12.3.1 12.3zm0-12.6c-5.5 0-10.5-2.3-14.2-5.8h14.2v5.8zm0-6.1H35.7l14.1-14.1.1 14.1zm0-14.8L35.7 35.5h14.1l.1 14.2zm0-14.4H35.7c3.7-3.6 8.7-5.8 14.2-5.8v5.8zm0-6.1c-5.6 0-10.6 2.3-14.3 5.9V16.8h14.3v12.4zm0-12.7H35.5v-6h14.3v6h.1zm0-6.2H35.5V6.6c4.5-1.5 9.3-2.3 14.3-2.3.1 0 .1 6 .1 6zm0-6.3H35.5V.5h14.3V4h.1zm.2 25.4c5.5 0 10.5 2.3 14.2 5.8H50.1v-5.8zm0 6.1h14.1L50.1 49.7V35.5zm0 14.8l14.1 14.1H50.1V50.3zm0 14.4h14.2c-3.7 3.6-8.7 5.8-14.2 5.8v-5.8zm14.4 34.8H50.1V96h14.3l.1 3.5zm0-3.8h-9.6c3.3-.4 6.5-1.1 9.6-2.1v2.1zm0-2.3a45.1 45.1 0 0 1-14.3 2.3v-6h14.3v3.7zm0-3.9H50.1v-6h14.3l.1 6zm0-6.3H50.1V70.8c5.6 0 10.6-2.3 14.3-5.9l.1 18.3zm0-18.9L50.3 50.1h14.1l.1 14.2zm0-14.4H50.3l14.1-14.1.1 14.1zm0-14.9c-3.7-3.6-8.8-5.8-14.3-5.9V16.8h14.3V35zm0-18.5H50.1v-6h14.3l.1 6zm0-6.2H50.1v-6c5 0 9.8.8 14.3 2.3l.1 3.7zm0-3.9c-3.1-1-6.3-1.7-9.6-2.1h9.6v2.1zm0-2.4H50.1V.5h14.3l.1 3.5zm.2-3.5h34.6L87.7 12.1c-1.1-1.1-2.6-1.7-4.3-1.8 0-3.5-2.8-6.3-6.3-6.3H64.7V.5zm18.9 83h5.8c0 1.6-.7 3-1.7 4.1l-4.1-4.1zm4 4.2c-1.1 1-2.5 1.7-4.1 1.7v-5.8l4.1 4.1zm-4.1-4.5v-1.7c2.3-2.4 4.3-5.1 6-7.9v9.6h-6zm0-2.1V64.7h6V73c-1.7 2.9-3.8 5.6-6 8.1zm0-16.6V50.1h6v14.3l-6 .1zm0-14.6V35.5h6v14.3h-6v.1zm0-14.6V18.9c2.3 2.4 4.3 5.1 6 8v8.3c0 .1-6 .1-6 .1zm0-16.8v-1.7h6v9.6c-1.8-2.8-3.8-5.5-6-7.9zm.1-2l4.1-4.1c1 1.1 1.7 2.5 1.7 4.1h-5.8zm-.1-.1v-5.8c1.6 0 3 .7 4.1 1.7l-4.1 4.1zM64.7 64.9l17.5 17.5c-.3.3-.6.5-.8.8H64.7V64.9zm17.7 17.7l.6.6h-1.3c.3-.2.5-.4.7-.6zm-.9.9h1.7v6h-9.6c2.8-1.8 5.5-3.8 7.9-6zm1.1-1.1l.6-.6V83l-.6-.6zm-.2-.2L64.9 64.7h18.3v16.7l-.8.8zM65 64.5c3.6-3.7 5.8-8.8 5.9-14.3h12.4v14.3H65zm5.8-14.6c0-5.6-2.3-10.6-5.9-14.3h18.2v14.3H70.8zm-5.9-14.6l17.5-17.5c.3.3.5.6.8.8v16.7H64.9zm16.9-18.5H83l-.6.6-.6-.6zm.8.8l.6-.6v1.3c-.2-.3-.4-.5-.6-.7zm-1.1-1.1c-2.4-2.3-5.1-4.3-7.9-6h9.6v6h-1.7zM64.7 4.3h12.4c3.3 0 6 2.7 6.1 6H73.1c-2.6-1.5-5.5-2.8-8.4-3.8V4.3zm0 2.4c2.8.9 5.4 2.1 7.9 3.6h-7.9V6.7zm0 3.8H73c2.9 1.7 5.6 3.7 8 6H64.7v-6zm0 6.3h16.7c.3.3.6.5.8.8L64.7 35.1V16.8zm0 18.9c3.6 3.7 5.8 8.7 5.8 14.2h-5.8V35.7zm0 14.4h5.8c0 5.5-2.3 10.5-5.8 14.2V50.1zm0 33.4h16.4c-2.4 2.3-5.1 4.3-8 6h-8.3c-.1 0-.1-6-.1-6zm0 6.2h7.9c-2.5 1.4-5.1 2.6-7.9 3.6v-3.6zm0 3.8c2.9-1 5.8-2.3 8.4-3.8h10.1c-.1 3.3-2.8 6-6.1 6H64.7v-2.2zm0 6V96h12.4c3.5 0 6.3-2.8 6.4-6.3 1.7 0 3.2-.7 4.3-1.8l11.6 11.5H64.7v.1zm34.8-.2L87.9 87.7c1.1-1.1 1.7-2.6 1.8-4.3 3.5-.1 6.3-2.9 6.3-6.4V64.7h3.5v34.6zm-6-64c-1-2.9-2.3-5.8-3.8-8.4V16.8c3.3.1 6 2.8 6 6.1v12.4h-2.2zm2.2.2v9.6c-.4-3.3-1.1-6.5-2.1-9.6h2.1zm-2.4-.2h-3.6v-7.9c1.4 2.5 2.6 5.1 3.6 7.9zm.1.2c1.5 4.5 2.3 9.3 2.3 14.3h-6V35.5h3.7zm2.3 19.4v9.6h-2.1c1-3.1 1.8-6.3 2.1-9.6zm0-4.8c0 5-.8 9.8-2.3 14.3h-3.6V50.1h5.9zm-2.4 14.6c-.9 2.8-2.1 5.4-3.6 7.9v-7.9h3.6zm.2 0h2.2v12.4c0 3.3-2.7 6-6 6.1V73.1c1.6-2.6 2.9-5.4 3.8-8.4zm6-.2H96V50.1h3.5v14.4zm0-14.6H96V35.5h3.5v14.4zm0-14.6H96V22.9c0-3.5-2.8-6.3-6.3-6.4 0-1.7-.7-3.2-1.8-4.3L99.5.7v34.6z"/></g><path class="bst2" d="M19.9 82.1c-.8 0-1.5.7-1.5 1.5s.7 1.5 1.5 1.5h65.4c.8 0 1.5-.7 1.5-1.5s-.7-1.5-1.5-1.5H19.9z"/><path class="bst2" d="M89.1 73.2V16.7c0-5.1-4.1-9.2-9.2-9.2H20.1c-5.1 0-9.2 4.1-9.2 9.2v66.5c0 5.1 4.1 9.2 9.2 9.2h67.5c.8 0 1.5-.7 1.5-1.5s-.7-1.5-1.5-1.5H20.1c-3.4 0-6.2-2.8-6.2-6.2V83v-.2c0-3.6 3.1-5.2 6.2-5.2h64.6c2.5 0 4.4-1.9 4.4-4.4zM69.8 10.5h8.5v17.4L75 25.2c-.6-.5-1.4-.5-1.9 0L69.8 28V10.5zm16.3 62.7c0 .8-.6 1.4-1.4 1.4H20.1c-2.5 0-4.6.7-6.2 1.9V16.7c0-3.4 2.8-6.2 6.2-6.2h46.7v20.6c0 .6.3 1.1.9 1.4.5.2 1.2.2 1.6-.2l4.8-4 4.8 4c.3.2.6.4 1 .4.2 0 .4 0 .6-.1.5-.2.9-.8.9-1.4V10.7c2.8.6 4.9 3.1 4.9 6.1v56.4h-.2z"/><path class="bst2" d="M61.9 47.8s0-.1 0 0L51.7 23.9c-.3-.8-1-1.2-1.7-1.2s-1.4.5-1.7 1.2L38.1 47.7l-6 14.1c-.3.8 0 1.6.8 2 .8.3 1.6 0 2-.8l5.6-13.2h19L65.1 63c.2.6.8.9 1.4.9.2 0 .4 0 .6-.1.8-.3 1.1-1.2.8-2l-6-14zm-20.1-1L50 27.5l8.2 19.3H41.8zM19 25.5c-.8 0-1.5.7-1.5 1.5v40.5c0 .8.7 1.5 1.5 1.5s1.5-.7 1.5-1.5V27c0-.9-.6-1.5-1.5-1.5zM19 16.3c-.8 0-1.5.7-1.5 1.5v2.7c0 .8.7 1.5 1.5 1.5s1.5-.7 1.5-1.5v-2.7c0-.9-.6-1.5-1.5-1.5z"/></svg><svg id="kaplan-destination" viewBox="-1 -1 102 102" width="102" height="102" y="102" xmlns="http://www.w3.org/2000/svg"><style>.cst0{display:none}.cst1{display:inline;opacity:.1;enable-background:new}.cst2{fill:#007db3}</style><g id="cLayer_1_1_" class="cst0"><path class="cst1" d="M99.8 0H0V100.1H100.1V0h-.3zM16.5 83.6v5.8c-1.6 0-3-.7-4.1-1.7l4.1-4.1zm-4.2 4c-1-1.1-1.7-2.5-1.7-4.1h5.8l-4.1 4.1zm-1.8-4.4v-9.6c1.7 2.9 3.7 5.5 6 7.9v1.7h-6zm0-10.2v-8.3h6v16.4c-2.2-2.5-4.3-5.2-6-8.1zm0-8.5V50.1h6v14.3l-6 .1zm0-14.6V35.5h6v14.3h-6v.1zm0-14.6V27c1.7-2.9 3.7-5.6 6-8v16.4c0-.1-6-.1-6-.1zm0-8.9v-9.6h6v1.7c-2.2 2.4-4.2 5.1-6 7.9zm6-10l-4.1-4.1c1.1-1 2.5-1.7 4.1-1.7v5.8zm-.1.1h-5.8c0-1.6.7-3 1.7-4.1l4.1 4.1zm-6.1 0c-3.5.1-6.3 2.9-6.3 6.4v12.4H.5V.7L12 12.2c-1 1.2-1.7 2.7-1.7 4.3zM6.5 64.7c1 2.9 2.3 5.8 3.8 8.4v10.1c-3.3-.1-6-2.8-6-6.1V64.7h2.2zm-2.2-.2v-9.6c.4 3.3 1.1 6.5 2.1 9.6H4.3zm2.4.2h3.6v7.9c-1.4-2.5-2.6-5.1-3.6-7.9zm-.1-.2a45.1 45.1 0 0 1-2.3-14.3h6v14.3H6.6zM4.3 45.1v-9.6h2.1c-1 3.1-1.8 6.3-2.1 9.6zm0 4.8c0-5 .8-9.8 2.3-14.3h3.6v14.3H4.3zm2.4-14.6c.9-2.8 2.1-5.4 3.6-7.9v7.9H6.7zm-.2 0H4.3V22.9c0-3.3 2.7-6 6-6.1v10.1c-1.6 2.6-2.9 5.4-3.8 8.4zm-6 .2H4v14.3H.5V35.5zm0 14.6H4v14.3H.5V50.1zm0 14.6H4v12.4c0 3.5 2.8 6.3 6.3 6.4 0 1.7.7 3.2 1.8 4.3L.5 99.3V64.7zm34.8 34.8H.7L12.3 88c1.1 1.1 2.6 1.7 4.3 1.8.1 3.5 2.9 6.3 6.4 6.3h12.4v3.4h-.1zm0-64.4L17.8 17.6c.3-.3.6-.5.8-.8h16.7v18.3zM17.6 17.4l-.6-.6h1.3c-.3.2-.5.4-.7.6zm.9-.9h-1.7v-6h9.6c-2.8 1.8-5.5 3.8-7.9 6zm-1.1 1.1l-.6.6V17l.6.6zm.2.2l17.5 17.5H16.8V18.6l.8-.8zM35 35.5c-3.6 3.7-5.8 8.8-5.9 14.3H16.8V35.5H35zm-5.8 14.6c0 5.6 2.3 10.6 5.9 14.3H16.8V50.1h12.4zm5.9 14.6L17.6 82.2c-.3-.3-.5-.6-.8-.8V64.7h18.3zM18.2 83.2H17l.6-.6.6.6zm-.8-.8l-.6.6v-1.3c.2.3.4.5.6.7zm1.1 1.1c2.4 2.3 5.1 4.3 7.9 6h-9.6v-6h1.7zm16.8 6H27c-2.9-1.7-5.6-3.7-8-6h16.4c-.1 0-.1 6-.1 6zm0 6.2H22.9c-3.3 0-6-2.7-6.1-6h10.1c2.6 1.5 5.5 2.8 8.4 3.8v2.2zm0-2.4c-2.8-.9-5.4-2.1-7.9-3.6h7.9v3.6zm0-10.1H18.6c-.3-.3-.6-.5-.8-.8l17.5-17.5v18.3zm0-18.9c-3.6-3.7-5.8-8.7-5.8-14.2h5.8v14.2zm0-14.4h-5.8c0-5.5 2.3-10.5 5.8-14.2v14.2zm0-33.4H18.9c2.4-2.3 5.1-4.3 8-6h8.3c.1 0 .1 6 .1 6zm0-6.2h-7.9c2.5-1.4 5.1-2.6 7.9-3.6v3.6zm-8.4 0H16.8c.1-3.3 2.8-6 6.1-6h12.4v2.2c-3 .9-5.8 2.2-8.4 3.8zM35.3 4H22.9c-3.5 0-6.3 2.8-6.4 6.3-1.7 0-3.2.7-4.3 1.8L.7.5h34.6V4zm.2.3h9.6c-3.3.4-6.5 1.1-9.6 2.1V4.3zm0 31.4l14.1 14.1H35.5V35.7zm0 14.4h14.1L35.5 64.3V50.1zm0 43.5c3.1 1 6.3 1.7 9.6 2.1h-9.6v-2.1zm14.4 5.9H35.5V96h14.3v3.5h.1zm0-3.8c-5 0-9.8-.8-14.3-2.3v-3.6h14.3v5.9zm0-6.2H35.5v-6h14.3v6h.1zm0-6.3H35.5V65c3.7 3.6 8.8 5.8 14.3 5.9.1-.1.1 12.3.1 12.3zm0-12.6c-5.5 0-10.5-2.3-14.2-5.8h14.2v5.8zm0-6.1H35.7l14.1-14.1.1 14.1zm0-14.8L35.7 35.5h14.1l.1 14.2zm0-14.4H35.7c3.7-3.6 8.7-5.8 14.2-5.8v5.8zm0-6.1c-5.6 0-10.6 2.3-14.3 5.9V16.8h14.3v12.4zm0-12.7H35.5v-6h14.3v6h.1zm0-6.2H35.5V6.6c4.5-1.5 9.3-2.3 14.3-2.3.1 0 .1 6 .1 6zm0-6.3H35.5V.5h14.3V4h.1zm.2 25.4c5.5 0 10.5 2.3 14.2 5.8H50.1v-5.8zm0 6.1h14.1L50.1 49.7V35.5zm0 14.8l14.1 14.1H50.1V50.3zm0 14.4h14.2c-3.7 3.6-8.7 5.8-14.2 5.8v-5.8zm14.4 34.8H50.1V96h14.3l.1 3.5zm0-3.8h-9.6c3.3-.4 6.5-1.1 9.6-2.1v2.1zm0-2.3a45.1 45.1 0 0 1-14.3 2.3v-6h14.3v3.7zm0-3.9H50.1v-6h14.3l.1 6zm0-6.3H50.1V70.8c5.6 0 10.6-2.3 14.3-5.9l.1 18.3zm0-18.9L50.3 50.1h14.1l.1 14.2zm0-14.4H50.3l14.1-14.1.1 14.1zm0-14.9c-3.7-3.6-8.8-5.8-14.3-5.9V16.8h14.3V35zm0-18.5H50.1v-6h14.3l.1 6zm0-6.2H50.1v-6c5 0 9.8.8 14.3 2.3l.1 3.7zm0-3.9c-3.1-1-6.3-1.7-9.6-2.1h9.6v2.1zm0-2.4H50.1V.5h14.3l.1 3.5zm.2-3.5h34.6L87.7 12.1c-1.1-1.1-2.6-1.7-4.3-1.8 0-3.5-2.8-6.3-6.3-6.3H64.7V.5zm18.9 83h5.8c0 1.6-.7 3-1.7 4.1l-4.1-4.1zm4 4.2c-1.1 1-2.5 1.7-4.1 1.7v-5.8l4.1 4.1zm-4.1-4.5v-1.7c2.3-2.4 4.3-5.1 6-7.9v9.6h-6zm0-2.1V64.7h6V73c-1.7 2.9-3.8 5.6-6 8.1zm0-16.6V50.1h6v14.3l-6 .1zm0-14.6V35.5h6v14.3h-6v.1zm0-14.6V18.9c2.3 2.4 4.3 5.1 6 8v8.3c0 .1-6 .1-6 .1zm0-16.8v-1.7h6v9.6c-1.8-2.8-3.8-5.5-6-7.9zm.1-2l4.1-4.1c1 1.1 1.7 2.5 1.7 4.1h-5.8zm-.1-.1v-5.8c1.6 0 3 .7 4.1 1.7l-4.1 4.1zM64.7 64.9l17.5 17.5c-.3.3-.6.5-.8.8H64.7V64.9zm17.7 17.7l.6.6h-1.3c.3-.2.5-.4.7-.6zm-.9.9h1.7v6h-9.6c2.8-1.8 5.5-3.8 7.9-6zm1.1-1.1l.6-.6V83l-.6-.6zm-.2-.2L64.9 64.7h18.3v16.7l-.8.8zM65 64.5c3.6-3.7 5.8-8.8 5.9-14.3h12.4v14.3H65zm5.8-14.6c0-5.6-2.3-10.6-5.9-14.3h18.2v14.3H70.8zm-5.9-14.6l17.5-17.5c.3.3.5.6.8.8v16.7H64.9zm16.9-18.5H83l-.6.6-.6-.6zm.8.8l.6-.6v1.3c-.2-.3-.4-.5-.6-.7zm-1.1-1.1c-2.4-2.3-5.1-4.3-7.9-6h9.6v6h-1.7zM64.7 4.3h12.4c3.3 0 6 2.7 6.1 6H73.1c-2.6-1.5-5.5-2.8-8.4-3.8V4.3zm0 2.4c2.8.9 5.4 2.1 7.9 3.6h-7.9V6.7zm0 3.8H73c2.9 1.7 5.6 3.7 8 6H64.7v-6zm0 6.3h16.7c.3.3.6.5.8.8L64.7 35.1V16.8zm0 18.9c3.6 3.7 5.8 8.7 5.8 14.2h-5.8V35.7zm0 14.4h5.8c0 5.5-2.3 10.5-5.8 14.2V50.1zm0 33.4h16.4c-2.4 2.3-5.1 4.3-8 6h-8.3c-.1 0-.1-6-.1-6zm0 6.2h7.9c-2.5 1.4-5.1 2.6-7.9 3.6v-3.6zm0 3.8c2.9-1 5.8-2.3 8.4-3.8h10.1c-.1 3.3-2.8 6-6.1 6H64.7v-2.2zm0 6V96h12.4c3.5 0 6.3-2.8 6.4-6.3 1.7 0 3.2-.7 4.3-1.8l11.6 11.5H64.7v.1zm34.8-.2L87.9 87.7c1.1-1.1 1.7-2.6 1.8-4.3 3.5-.1 6.3-2.9 6.3-6.4V64.7h3.5v34.6zm-6-64c-1-2.9-2.3-5.8-3.8-8.4V16.8c3.3.1 6 2.8 6 6.1v12.4h-2.2zm2.2.2v9.6c-.4-3.3-1.1-6.5-2.1-9.6h2.1zm-2.4-.2h-3.6v-7.9c1.4 2.5 2.6 5.1 3.6 7.9zm.1.2c1.5 4.5 2.3 9.3 2.3 14.3h-6V35.5h3.7zm2.3 19.4v9.6h-2.1c1-3.1 1.8-6.3 2.1-9.6zm0-4.8c0 5-.8 9.8-2.3 14.3h-3.6V50.1h5.9zm-2.4 14.6c-.9 2.8-2.1 5.4-3.6 7.9v-7.9h3.6zm.2 0h2.2v12.4c0 3.3-2.7 6-6 6.1V73.1c1.6-2.6 2.9-5.4 3.8-8.4zm6-.2H96V50.1h3.5v14.4zm0-14.6H96V35.5h3.5v14.4zm0-14.6H96V22.9c0-3.5-2.8-6.3-6.3-6.4 0-1.7-.7-3.2-1.8-4.3L99.5.7v34.6z"/></g><path class="cst2" d="M50.1 4.4C25 4.4 4.6 24.8 4.6 49.9S25 95.4 50.1 95.4c.8 0 1.5-.7 1.5-1.5s-.7-1.5-1.5-1.5c-23.4 0-42.5-19.1-42.5-42.5S26.7 7.4 50.1 7.4s42.5 19.1 42.5 42.5c0 .8.7 1.5 1.5 1.5s1.5-.7 1.5-1.5c0-25.1-20.4-45.5-45.5-45.5z"/><path class="cst2" d="M81.8 50.1c0-17.4-14.1-31.5-31.5-31.5S18.8 32.8 18.8 50.1s14.1 31.5 31.5 31.5 31.5-14.1 31.5-31.5zm-59.9 1.5H32c.1 4.6.8 8.9 1.9 12.7h-8.3c-2.2-3.8-3.5-8.1-3.7-12.7zm3.7-15.7h8.3c-1.1 3.8-1.8 8.1-1.9 12.7H21.9c.2-4.6 1.5-8.9 3.7-12.7zm53.2 12.7H68.6c-.1-4.6-.8-8.9-1.9-12.7H75c2.2 3.8 3.5 8.1 3.8 12.7zm-13.2 0H51.8V35.9h11.7c1.2 3.8 1.9 8.2 2.1 12.7zM51.8 32.9V21.8c4.3.8 8.1 5.1 10.6 11.2l-10.6-.1zm-3-11.1V33H38.2c2.5-6.2 6.4-10.4 10.6-11.2zm0 14.1v12.7H35.1c.1-4.6.9-8.9 2.1-12.7h11.6zM35.1 51.6h13.8v12.7H37.1c-1.2-3.8-1.9-8.1-2-12.7zm13.7 15.7v11.2c-4.3-.8-8.1-5.1-10.6-11.2h10.6zm3 11.2V67.3h10.6c-2.5 6.1-6.3 10.4-10.6 11.2zm0-14.2V51.6h13.8c-.1 4.6-.9 8.9-2.1 12.7H51.8zm16.8-12.7h10.2c-.2 4.6-1.6 8.9-3.8 12.7h-8.3c1.1-3.8 1.8-8.1 1.9-12.7zM73 32.9h-7.3c-1.4-3.9-3.4-7.2-5.7-9.6 5.3 1.9 9.7 5.3 13 9.6zm-32.4-9.5c-2.3 2.4-4.2 5.7-5.7 9.6h-7.3c3.3-4.4 7.8-7.8 13-9.6zm-13 43.9h7.3c1.4 3.9 3.4 7.2 5.7 9.6-5.2-1.9-9.7-5.3-13-9.6zm32.5 9.6c2.3-2.4 4.2-5.7 5.7-9.6H73c-3.3 4.3-7.7 7.7-12.9 9.6zM91 89.4h-9.5l-9.6-10c-.3-.3-.7-.5-1.1-.5H68c-.5 0-.9.2-1.2.6-.3.4-.4.9-.2 1.3l2.4 8.5h-5.8L61 85.6c-.3-.5-.8-.8-1.3-.8h-3.3c-.8 0-1.5.7-1.5 1.5v7.1c0 2.2 1.8 4 4 4H91c2.2 0 4-1.8 4-4s-1.7-4-4-4zm0 5.1H58.9c-.6 0-1-.5-1-1v-5.6h.9l2.1 3.8c.3.5.8.8 1.3.8h8.7c.5 0 .9-.2 1.2-.6.3-.4.4-.9.2-1.3L70 82h.2l9.6 10c.3.3.7.5 1.1.5H91c.6 0 1 .5 1 1s-.4 1-1 1z"/></svg><svg id="kaplan-personalisation" viewBox="-1 -1 102 102" width="102" height="102" x="102" y="102" xmlns="http://www.w3.org/2000/svg"><style>.dst0{display:none}.dst1{display:inline;opacity:.1;enable-background:new}.dst2{fill:#007db3}</style><g id="dLayer_1_1_" class="dst0"><path class="dst1" d="M99.8 0H0V100.1H100.1V0h-.3zM16.5 83.6v5.8c-1.6 0-3-.7-4.1-1.7l4.1-4.1zm-4.2 4c-1-1.1-1.7-2.5-1.7-4.1h5.8l-4.1 4.1zm-1.8-4.4v-9.6c1.7 2.9 3.7 5.5 6 7.9v1.7h-6zm0-10.2v-8.3h6v16.4c-2.2-2.5-4.3-5.2-6-8.1zm0-8.5V50.1h6v14.3l-6 .1zm0-14.6V35.5h6v14.3h-6v.1zm0-14.6V27c1.7-2.9 3.7-5.6 6-8v16.4c0-.1-6-.1-6-.1zm0-8.9v-9.6h6v1.7c-2.2 2.4-4.2 5.1-6 7.9zm6-10l-4.1-4.1c1.1-1 2.5-1.7 4.1-1.7v5.8zm-.1.1h-5.8c0-1.6.7-3 1.7-4.1l4.1 4.1zm-6.1 0c-3.5.1-6.3 2.9-6.3 6.4v12.4H.5V.7L12 12.2c-1 1.2-1.7 2.7-1.7 4.3zM6.5 64.7c1 2.9 2.3 5.8 3.8 8.4v10.1c-3.3-.1-6-2.8-6-6.1V64.7h2.2zm-2.2-.2v-9.6c.4 3.3 1.1 6.5 2.1 9.6H4.3zm2.4.2h3.6v7.9c-1.4-2.5-2.6-5.1-3.6-7.9zm-.1-.2a45.1 45.1 0 0 1-2.3-14.3h6v14.3H6.6zM4.3 45.1v-9.6h2.1c-1 3.1-1.8 6.3-2.1 9.6zm0 4.8c0-5 .8-9.8 2.3-14.3h3.6v14.3H4.3zm2.4-14.6c.9-2.8 2.1-5.4 3.6-7.9v7.9H6.7zm-.2 0H4.3V22.9c0-3.3 2.7-6 6-6.1v10.1c-1.6 2.6-2.9 5.4-3.8 8.4zm-6 .2H4v14.3H.5V35.5zm0 14.6H4v14.3H.5V50.1zm0 14.6H4v12.4c0 3.5 2.8 6.3 6.3 6.4 0 1.7.7 3.2 1.8 4.3L.5 99.3V64.7zm34.8 34.8H.7L12.3 88c1.1 1.1 2.6 1.7 4.3 1.8.1 3.5 2.9 6.3 6.4 6.3h12.4v3.4h-.1zm0-64.4L17.8 17.6c.3-.3.6-.5.8-.8h16.7v18.3zM17.6 17.4l-.6-.6h1.3c-.3.2-.5.4-.7.6zm.9-.9h-1.7v-6h9.6c-2.8 1.8-5.5 3.8-7.9 6zm-1.1 1.1l-.6.6V17l.6.6zm.2.2l17.5 17.5H16.8V18.6l.8-.8zM35 35.5c-3.6 3.7-5.8 8.8-5.9 14.3H16.8V35.5H35zm-5.8 14.6c0 5.6 2.3 10.6 5.9 14.3H16.8V50.1h12.4zm5.9 14.6L17.6 82.2c-.3-.3-.5-.6-.8-.8V64.7h18.3zM18.2 83.2H17l.6-.6.6.6zm-.8-.8l-.6.6v-1.3c.2.3.4.5.6.7zm1.1 1.1c2.4 2.3 5.1 4.3 7.9 6h-9.6v-6h1.7zm16.8 6H27c-2.9-1.7-5.6-3.7-8-6h16.4c-.1 0-.1 6-.1 6zm0 6.2H22.9c-3.3 0-6-2.7-6.1-6h10.1c2.6 1.5 5.5 2.8 8.4 3.8v2.2zm0-2.4c-2.8-.9-5.4-2.1-7.9-3.6h7.9v3.6zm0-10.1H18.6c-.3-.3-.6-.5-.8-.8l17.5-17.5v18.3zm0-18.9c-3.6-3.7-5.8-8.7-5.8-14.2h5.8v14.2zm0-14.4h-5.8c0-5.5 2.3-10.5 5.8-14.2v14.2zm0-33.4H18.9c2.4-2.3 5.1-4.3 8-6h8.3c.1 0 .1 6 .1 6zm0-6.2h-7.9c2.5-1.4 5.1-2.6 7.9-3.6v3.6zm-8.4 0H16.8c.1-3.3 2.8-6 6.1-6h12.4v2.2c-3 .9-5.8 2.2-8.4 3.8zM35.3 4H22.9c-3.5 0-6.3 2.8-6.4 6.3-1.7 0-3.2.7-4.3 1.8L.7.5h34.6V4zm.2.3h9.6c-3.3.4-6.5 1.1-9.6 2.1V4.3zm0 31.4l14.1 14.1H35.5V35.7zm0 14.4h14.1L35.5 64.3V50.1zm0 43.5c3.1 1 6.3 1.7 9.6 2.1h-9.6v-2.1zm14.4 5.9H35.5V96h14.3v3.5h.1zm0-3.8c-5 0-9.8-.8-14.3-2.3v-3.6h14.3v5.9zm0-6.2H35.5v-6h14.3v6h.1zm0-6.3H35.5V65c3.7 3.6 8.8 5.8 14.3 5.9.1-.1.1 12.3.1 12.3zm0-12.6c-5.5 0-10.5-2.3-14.2-5.8h14.2v5.8zm0-6.1H35.7l14.1-14.1.1 14.1zm0-14.8L35.7 35.5h14.1l.1 14.2zm0-14.4H35.7c3.7-3.6 8.7-5.8 14.2-5.8v5.8zm0-6.1c-5.6 0-10.6 2.3-14.3 5.9V16.8h14.3v12.4zm0-12.7H35.5v-6h14.3v6h.1zm0-6.2H35.5V6.6c4.5-1.5 9.3-2.3 14.3-2.3.1 0 .1 6 .1 6zm0-6.3H35.5V.5h14.3V4h.1zm.2 25.4c5.5 0 10.5 2.3 14.2 5.8H50.1v-5.8zm0 6.1h14.1L50.1 49.7V35.5zm0 14.8l14.1 14.1H50.1V50.3zm0 14.4h14.2c-3.7 3.6-8.7 5.8-14.2 5.8v-5.8zm14.4 34.8H50.1V96h14.3l.1 3.5zm0-3.8h-9.6c3.3-.4 6.5-1.1 9.6-2.1v2.1zm0-2.3a45.1 45.1 0 0 1-14.3 2.3v-6h14.3v3.7zm0-3.9H50.1v-6h14.3l.1 6zm0-6.3H50.1V70.8c5.6 0 10.6-2.3 14.3-5.9l.1 18.3zm0-18.9L50.3 50.1h14.1l.1 14.2zm0-14.4H50.3l14.1-14.1.1 14.1zm0-14.9c-3.7-3.6-8.8-5.8-14.3-5.9V16.8h14.3V35zm0-18.5H50.1v-6h14.3l.1 6zm0-6.2H50.1v-6c5 0 9.8.8 14.3 2.3l.1 3.7zm0-3.9c-3.1-1-6.3-1.7-9.6-2.1h9.6v2.1zm0-2.4H50.1V.5h14.3l.1 3.5zm.2-3.5h34.6L87.7 12.1c-1.1-1.1-2.6-1.7-4.3-1.8 0-3.5-2.8-6.3-6.3-6.3H64.7V.5zm18.9 83h5.8c0 1.6-.7 3-1.7 4.1l-4.1-4.1zm4 4.2c-1.1 1-2.5 1.7-4.1 1.7v-5.8l4.1 4.1zm-4.1-4.5v-1.7c2.3-2.4 4.3-5.1 6-7.9v9.6h-6zm0-2.1V64.7h6V73c-1.7 2.9-3.8 5.6-6 8.1zm0-16.6V50.1h6v14.3l-6 .1zm0-14.6V35.5h6v14.3h-6v.1zm0-14.6V18.9c2.3 2.4 4.3 5.1 6 8v8.3c0 .1-6 .1-6 .1zm0-16.8v-1.7h6v9.6c-1.8-2.8-3.8-5.5-6-7.9zm.1-2l4.1-4.1c1 1.1 1.7 2.5 1.7 4.1h-5.8zm-.1-.1v-5.8c1.6 0 3 .7 4.1 1.7l-4.1 4.1zM64.7 64.9l17.5 17.5c-.3.3-.6.5-.8.8H64.7V64.9zm17.7 17.7l.6.6h-1.3c.3-.2.5-.4.7-.6zm-.9.9h1.7v6h-9.6c2.8-1.8 5.5-3.8 7.9-6zm1.1-1.1l.6-.6V83l-.6-.6zm-.2-.2L64.9 64.7h18.3v16.7l-.8.8zM65 64.5c3.6-3.7 5.8-8.8 5.9-14.3h12.4v14.3H65zm5.8-14.6c0-5.6-2.3-10.6-5.9-14.3h18.2v14.3H70.8zm-5.9-14.6l17.5-17.5c.3.3.5.6.8.8v16.7H64.9zm16.9-18.5H83l-.6.6-.6-.6zm.8.8l.6-.6v1.3c-.2-.3-.4-.5-.6-.7zm-1.1-1.1c-2.4-2.3-5.1-4.3-7.9-6h9.6v6h-1.7zM64.7 4.3h12.4c3.3 0 6 2.7 6.1 6H73.1c-2.6-1.5-5.5-2.8-8.4-3.8V4.3zm0 2.4c2.8.9 5.4 2.1 7.9 3.6h-7.9V6.7zm0 3.8H73c2.9 1.7 5.6 3.7 8 6H64.7v-6zm0 6.3h16.7c.3.3.6.5.8.8L64.7 35.1V16.8zm0 18.9c3.6 3.7 5.8 8.7 5.8 14.2h-5.8V35.7zm0 14.4h5.8c0 5.5-2.3 10.5-5.8 14.2V50.1zm0 33.4h16.4c-2.4 2.3-5.1 4.3-8 6h-8.3c-.1 0-.1-6-.1-6zm0 6.2h7.9c-2.5 1.4-5.1 2.6-7.9 3.6v-3.6zm0 3.8c2.9-1 5.8-2.3 8.4-3.8h10.1c-.1 3.3-2.8 6-6.1 6H64.7v-2.2zm0 6V96h12.4c3.5 0 6.3-2.8 6.4-6.3 1.7 0 3.2-.7 4.3-1.8l11.6 11.5H64.7v.1zm34.8-.2L87.9 87.7c1.1-1.1 1.7-2.6 1.8-4.3 3.5-.1 6.3-2.9 6.3-6.4V64.7h3.5v34.6zm-6-64c-1-2.9-2.3-5.8-3.8-8.4V16.8c3.3.1 6 2.8 6 6.1v12.4h-2.2zm2.2.2v9.6c-.4-3.3-1.1-6.5-2.1-9.6h2.1zm-2.4-.2h-3.6v-7.9c1.4 2.5 2.6 5.1 3.6 7.9zm.1.2c1.5 4.5 2.3 9.3 2.3 14.3h-6V35.5h3.7zm2.3 19.4v9.6h-2.1c1-3.1 1.8-6.3 2.1-9.6zm0-4.8c0 5-.8 9.8-2.3 14.3h-3.6V50.1h5.9zm-2.4 14.6c-.9 2.8-2.1 5.4-3.6 7.9v-7.9h3.6zm.2 0h2.2v12.4c0 3.3-2.7 6-6 6.1V73.1c1.6-2.6 2.9-5.4 3.8-8.4zm6-.2H96V50.1h3.5v14.4zm0-14.6H96V35.5h3.5v14.4zm0-14.6H96V22.9c0-3.5-2.8-6.3-6.3-6.4 0-1.7-.7-3.2-1.8-4.3L99.5.7v34.6z"/></g><path class="dst2" d="M62.8 75.5H37.5c-7.3 0-13.3 6-13.3 13.3v2.8c0 .8.7 1.5 1.5 1.5s1.5-.7 1.5-1.5v-2.8c0-5.7 4.6-10.3 10.3-10.3h25.3c5.7 0 10.3 4.6 10.3 10.3v2.8c0 .8.7 1.5 1.5 1.5s1.5-.7 1.5-1.5v-2.8c0-7.4-6-13.3-13.3-13.3zM50.1 44.6c-7.6 0-13.9 6.2-13.9 13.9 0 7.6 6.2 13.9 13.9 13.9 7.6 0 13.9-6.2 13.9-13.9 0-7.6-6.2-13.9-13.9-13.9zm0 24.8c-6 0-10.9-4.9-10.9-10.9s4.9-10.9 10.9-10.9S61 52.5 61 58.5s-4.9 10.9-10.9 10.9zM45.9 28.9l1.6-3.8h5l1.6 3.8c.2.6.8.9 1.4.9.2 0 .4 0 .6-.1.8-.3 1.1-1.2.8-2l-2-4.7-3.4-8c-.3-.6-.8-1-1.5-1-.6 0-1.2.4-1.5 1l-3.4 8-2 4.7c-.3.8 0 1.6.8 2 .8.3 1.7-.1 2-.8zm4.1-9.7l1.2 2.9h-2.5l1.3-2.9zM90.1 30.9c-.6-.5-1.6-.4-2.1.2l-7 8.8-2.4-2.4c-.6-.6-1.5-.6-2.1 0s-.6 1.5 0 2.1l3.6 3.6c.3.3.7.4 1.1.4h.1c.4 0 .8-.2 1.1-.6l8-10c.5-.6.4-1.6-.3-2.1zM22.2 33.2v-3.6h-5.8v4.8l-5.2 1.8c-.6.2-1 .8-1 1.4v6.9c0 .8.7 1.5 1.5 1.5h11.4c.8 0 1.5-.7 1.5-1.5v-6.9c0-.6-.4-1.2-1-1.4l-5.1-1.8v-1.3h3.7zm-.6 9.9h-2.7v-1.3c0-.8-.7-1.5-1.5-1.5s-1.5.7-1.5 1.5v1.3h-2.7v-4.4l4.2-1.5 4.2 1.5v4.4z"/><path class="dst2" d="M46.2 36.4l2.4 4.5c.3.5.8.8 1.3.8s1.1-.3 1.3-.8l2.4-4.5C60.3 34.7 65 28.7 65 21.9c0-8.3-6.7-15-15-15-2.8 0-5.6.8-7.9 2.3-.7.4-.9 1.4-.5 2.1.4.7 1.4.9 2.1.5 1.9-1.2 4.1-1.8 6.4-1.8 6.6 0 12 5.4 12 12 0 5.7-4 10.6-9.5 11.8-.4.1-.8.4-1 .7L50 37.1l-1.5-2.7c-.2-.4-.6-.7-1-.7C42 32.5 38 27.6 38 21.9c0-1.8.4-3.5 1.1-5.1.4-.7 0-1.6-.7-2-.8-.4-1.6 0-2 .7-.9 2-1.4 4.1-1.4 6.4 0 6.8 4.7 12.8 11.2 14.5zM30.1 52.4c.5.1 1.1 0 1.5-.4s.5-1 .4-1.5l-1.5-4.9c3.4-5.9 2.4-13.4-2.5-18.2-2.9-2.8-6.6-4.3-10.7-4.3-4 0-7.8 1.6-10.6 4.5-2.1 2.1-3.5 4.8-4 7.8-.2.8.3 1.6 1.2 1.7.8.1 1.6-.4 1.7-1.2.4-2.4 1.6-4.5 3.2-6.2 2.2-2.3 5.3-3.6 8.5-3.6h.1c3.2 0 6.1 1.2 8.4 3.4 4 4 4.8 10.3 1.7 15.1-.2.4-.3.8-.2 1.2l.9 2.9-2.9-.8c-.4-.1-.9 0-1.2.2-4.7 3.1-11 2.5-15.1-1.4-1.2-1.2-2.2-2.6-2.8-4.2-.3-.8-1.2-1.2-1.9-.8-.8.3-1.2 1.2-.8 1.9.8 2 1.9 3.7 3.5 5.2 2.9 2.8 6.7 4.3 10.5 4.3 2.7 0 5.3-.7 7.7-2.1l4.9 1.4zM93.1 27.6c-5.8-5.9-15.3-6-21.2-.2-4.9 4.8-5.9 12.3-2.5 18.2l-1.5 4.9c-.2.5 0 1.1.4 1.5.4.4 1 .5 1.5.4l4.9-1.4c2.4 1.4 5.1 2.1 7.7 2.1 3.8 0 7.7-1.5 10.5-4.3 5.9-5.8 6-15.3.2-21.2zm-2.3 19.1c-4 4-10.4 4.6-15.1 1.4-.2-.2-.5-.3-.8-.3-.1 0-.3 0-.4.1l-2.9.8.9-2.9c.1-.4.1-.9-.2-1.2-3.1-4.8-2.3-11.1 1.7-15.1 4.7-4.6 12.4-4.6 17 .2 4.6 4.7 4.5 12.4-.2 17z"/></svg><svg id="kaplan-school" viewBox="-1 -1 102 102" width="102" height="102" x="204" xmlns="http://www.w3.org/2000/svg"><style>.est0{display:none}.est1{display:inline;opacity:.1;enable-background:new}.est2{fill:#007db3}</style><g id="eLayer_1_1_" class="est0"><path class="est1" d="M99.8 0H0V100.1H100.1V0h-.3zM16.5 83.6v5.8c-1.6 0-3-.7-4.1-1.7l4.1-4.1zm-4.2 4c-1-1.1-1.7-2.5-1.7-4.1h5.8l-4.1 4.1zm-1.8-4.4v-9.6c1.7 2.9 3.7 5.5 6 7.9v1.7h-6zm0-10.2v-8.3h6v16.4c-2.2-2.5-4.3-5.2-6-8.1zm0-8.5V50.1h6v14.3l-6 .1zm0-14.6V35.5h6v14.3h-6v.1zm0-14.6V27c1.7-2.9 3.7-5.6 6-8v16.4c0-.1-6-.1-6-.1zm0-8.9v-9.6h6v1.7c-2.2 2.4-4.2 5.1-6 7.9zm6-10l-4.1-4.1c1.1-1 2.5-1.7 4.1-1.7v5.8zm-.1.1h-5.8c0-1.6.7-3 1.7-4.1l4.1 4.1zm-6.1 0c-3.5.1-6.3 2.9-6.3 6.4v12.4H.5V.7L12 12.2c-1 1.2-1.7 2.7-1.7 4.3zM6.5 64.7c1 2.9 2.3 5.8 3.8 8.4v10.1c-3.3-.1-6-2.8-6-6.1V64.7h2.2zm-2.2-.2v-9.6c.4 3.3 1.1 6.5 2.1 9.6H4.3zm2.4.2h3.6v7.9c-1.4-2.5-2.6-5.1-3.6-7.9zm-.1-.2a45.1 45.1 0 0 1-2.3-14.3h6v14.3H6.6zM4.3 45.1v-9.6h2.1c-1 3.1-1.8 6.3-2.1 9.6zm0 4.8c0-5 .8-9.8 2.3-14.3h3.6v14.3H4.3zm2.4-14.6c.9-2.8 2.1-5.4 3.6-7.9v7.9H6.7zm-.2 0H4.3V22.9c0-3.3 2.7-6 6-6.1v10.1c-1.6 2.6-2.9 5.4-3.8 8.4zm-6 .2H4v14.3H.5V35.5zm0 14.6H4v14.3H.5V50.1zm0 14.6H4v12.4c0 3.5 2.8 6.3 6.3 6.4 0 1.7.7 3.2 1.8 4.3L.5 99.3V64.7zm34.8 34.8H.7L12.3 88c1.1 1.1 2.6 1.7 4.3 1.8.1 3.5 2.9 6.3 6.4 6.3h12.4v3.4h-.1zm0-64.4L17.8 17.6c.3-.3.6-.5.8-.8h16.7v18.3zM17.6 17.4l-.6-.6h1.3c-.3.2-.5.4-.7.6zm.9-.9h-1.7v-6h9.6c-2.8 1.8-5.5 3.8-7.9 6zm-1.1 1.1l-.6.6V17l.6.6zm.2.2l17.5 17.5H16.8V18.6l.8-.8zM35 35.5c-3.6 3.7-5.8 8.8-5.9 14.3H16.8V35.5H35zm-5.8 14.6c0 5.6 2.3 10.6 5.9 14.3H16.8V50.1h12.4zm5.9 14.6L17.6 82.2c-.3-.3-.5-.6-.8-.8V64.7h18.3zM18.2 83.2H17l.6-.6.6.6zm-.8-.8l-.6.6v-1.3c.2.3.4.5.6.7zm1.1 1.1c2.4 2.3 5.1 4.3 7.9 6h-9.6v-6h1.7zm16.8 6H27c-2.9-1.7-5.6-3.7-8-6h16.4c-.1 0-.1 6-.1 6zm0 6.2H22.9c-3.3 0-6-2.7-6.1-6h10.1c2.6 1.5 5.5 2.8 8.4 3.8v2.2zm0-2.4c-2.8-.9-5.4-2.1-7.9-3.6h7.9v3.6zm0-10.1H18.6c-.3-.3-.6-.5-.8-.8l17.5-17.5v18.3zm0-18.9c-3.6-3.7-5.8-8.7-5.8-14.2h5.8v14.2zm0-14.4h-5.8c0-5.5 2.3-10.5 5.8-14.2v14.2zm0-33.4H18.9c2.4-2.3 5.1-4.3 8-6h8.3c.1 0 .1 6 .1 6zm0-6.2h-7.9c2.5-1.4 5.1-2.6 7.9-3.6v3.6zm-8.4 0H16.8c.1-3.3 2.8-6 6.1-6h12.4v2.2c-3 .9-5.8 2.2-8.4 3.8zM35.3 4H22.9c-3.5 0-6.3 2.8-6.4 6.3-1.7 0-3.2.7-4.3 1.8L.7.5h34.6V4zm.2.3h9.6c-3.3.4-6.5 1.1-9.6 2.1V4.3zm0 31.4l14.1 14.1H35.5V35.7zm0 14.4h14.1L35.5 64.3V50.1zm0 43.5c3.1 1 6.3 1.7 9.6 2.1h-9.6v-2.1zm14.4 5.9H35.5V96h14.3v3.5h.1zm0-3.8c-5 0-9.8-.8-14.3-2.3v-3.6h14.3v5.9zm0-6.2H35.5v-6h14.3v6h.1zm0-6.3H35.5V65c3.7 3.6 8.8 5.8 14.3 5.9.1-.1.1 12.3.1 12.3zm0-12.6c-5.5 0-10.5-2.3-14.2-5.8h14.2v5.8zm0-6.1H35.7l14.1-14.1.1 14.1zm0-14.8L35.7 35.5h14.1l.1 14.2zm0-14.4H35.7c3.7-3.6 8.7-5.8 14.2-5.8v5.8zm0-6.1c-5.6 0-10.6 2.3-14.3 5.9V16.8h14.3v12.4zm0-12.7H35.5v-6h14.3v6h.1zm0-6.2H35.5V6.6c4.5-1.5 9.3-2.3 14.3-2.3.1 0 .1 6 .1 6zm0-6.3H35.5V.5h14.3V4h.1zm.2 25.4c5.5 0 10.5 2.3 14.2 5.8H50.1v-5.8zm0 6.1h14.1L50.1 49.7V35.5zm0 14.8l14.1 14.1H50.1V50.3zm0 14.4h14.2c-3.7 3.6-8.7 5.8-14.2 5.8v-5.8zm14.4 34.8H50.1V96h14.3l.1 3.5zm0-3.8h-9.6c3.3-.4 6.5-1.1 9.6-2.1v2.1zm0-2.3a45.1 45.1 0 0 1-14.3 2.3v-6h14.3v3.7zm0-3.9H50.1v-6h14.3l.1 6zm0-6.3H50.1V70.8c5.6 0 10.6-2.3 14.3-5.9l.1 18.3zm0-18.9L50.3 50.1h14.1l.1 14.2zm0-14.4H50.3l14.1-14.1.1 14.1zm0-14.9c-3.7-3.6-8.8-5.8-14.3-5.9V16.8h14.3V35zm0-18.5H50.1v-6h14.3l.1 6zm0-6.2H50.1v-6c5 0 9.8.8 14.3 2.3l.1 3.7zm0-3.9c-3.1-1-6.3-1.7-9.6-2.1h9.6v2.1zm0-2.4H50.1V.5h14.3l.1 3.5zm.2-3.5h34.6L87.7 12.1c-1.1-1.1-2.6-1.7-4.3-1.8 0-3.5-2.8-6.3-6.3-6.3H64.7V.5zm18.9 83h5.8c0 1.6-.7 3-1.7 4.1l-4.1-4.1zm4 4.2c-1.1 1-2.5 1.7-4.1 1.7v-5.8l4.1 4.1zm-4.1-4.5v-1.7c2.3-2.4 4.3-5.1 6-7.9v9.6h-6zm0-2.1V64.7h6V73c-1.7 2.9-3.8 5.6-6 8.1zm0-16.6V50.1h6v14.3l-6 .1zm0-14.6V35.5h6v14.3h-6v.1zm0-14.6V18.9c2.3 2.4 4.3 5.1 6 8v8.3c0 .1-6 .1-6 .1zm0-16.8v-1.7h6v9.6c-1.8-2.8-3.8-5.5-6-7.9zm.1-2l4.1-4.1c1 1.1 1.7 2.5 1.7 4.1h-5.8zm-.1-.1v-5.8c1.6 0 3 .7 4.1 1.7l-4.1 4.1zM64.7 64.9l17.5 17.5c-.3.3-.6.5-.8.8H64.7V64.9zm17.7 17.7l.6.6h-1.3c.3-.2.5-.4.7-.6zm-.9.9h1.7v6h-9.6c2.8-1.8 5.5-3.8 7.9-6zm1.1-1.1l.6-.6V83l-.6-.6zm-.2-.2L64.9 64.7h18.3v16.7l-.8.8zM65 64.5c3.6-3.7 5.8-8.8 5.9-14.3h12.4v14.3H65zm5.8-14.6c0-5.6-2.3-10.6-5.9-14.3h18.2v14.3H70.8zm-5.9-14.6l17.5-17.5c.3.3.5.6.8.8v16.7H64.9zm16.9-18.5H83l-.6.6-.6-.6zm.8.8l.6-.6v1.3c-.2-.3-.4-.5-.6-.7zm-1.1-1.1c-2.4-2.3-5.1-4.3-7.9-6h9.6v6h-1.7zM64.7 4.3h12.4c3.3 0 6 2.7 6.1 6H73.1c-2.6-1.5-5.5-2.8-8.4-3.8V4.3zm0 2.4c2.8.9 5.4 2.1 7.9 3.6h-7.9V6.7zm0 3.8H73c2.9 1.7 5.6 3.7 8 6H64.7v-6zm0 6.3h16.7c.3.3.6.5.8.8L64.7 35.1V16.8zm0 18.9c3.6 3.7 5.8 8.7 5.8 14.2h-5.8V35.7zm0 14.4h5.8c0 5.5-2.3 10.5-5.8 14.2V50.1zm0 33.4h16.4c-2.4 2.3-5.1 4.3-8 6h-8.3c-.1 0-.1-6-.1-6zm0 6.2h7.9c-2.5 1.4-5.1 2.6-7.9 3.6v-3.6zm0 3.8c2.9-1 5.8-2.3 8.4-3.8h10.1c-.1 3.3-2.8 6-6.1 6H64.7v-2.2zm0 6V96h12.4c3.5 0 6.3-2.8 6.4-6.3 1.7 0 3.2-.7 4.3-1.8l11.6 11.5H64.7v.1zm34.8-.2L87.9 87.7c1.1-1.1 1.7-2.6 1.8-4.3 3.5-.1 6.3-2.9 6.3-6.4V64.7h3.5v34.6zm-6-64c-1-2.9-2.3-5.8-3.8-8.4V16.8c3.3.1 6 2.8 6 6.1v12.4h-2.2zm2.2.2v9.6c-.4-3.3-1.1-6.5-2.1-9.6h2.1zm-2.4-.2h-3.6v-7.9c1.4 2.5 2.6 5.1 3.6 7.9zm.1.2c1.5 4.5 2.3 9.3 2.3 14.3h-6V35.5h3.7zm2.3 19.4v9.6h-2.1c1-3.1 1.8-6.3 2.1-9.6zm0-4.8c0 5-.8 9.8-2.3 14.3h-3.6V50.1h5.9zm-2.4 14.6c-.9 2.8-2.1 5.4-3.6 7.9v-7.9h3.6zm.2 0h2.2v12.4c0 3.3-2.7 6-6 6.1V73.1c1.6-2.6 2.9-5.4 3.8-8.4zm6-.2H96V50.1h3.5v14.4zm0-14.6H96V35.5h3.5v14.4zm0-14.6H96V22.9c0-3.5-2.8-6.3-6.3-6.4 0-1.7-.7-3.2-1.8-4.3L99.5.7v34.6z"/></g><path class="est2" d="M50 31.2c-3.5.1-6.3 2.9-6.3 6.3s2.8 6.3 6.3 6.3c3.4-.1 6.2-2.9 6.2-6.3s-2.7-6.3-6.2-6.3zm0 10.1c-2.1 0-3.8-1.8-3.8-3.8 0-2.1 1.7-3.8 3.7-3.8 2.1.1 3.7 1.8 3.7 3.8.1 2.1-1.5 3.8-3.6 3.8zM26.5 84.6c0 .8.7 1.5 1.5 1.5h7.2c.8 0 1.5-.7 1.5-1.5s-.7-1.5-1.5-1.5H28c-.8 0-1.5.6-1.5 1.5zM38.7 84.6c0 .8.7 1.5 1.5 1.5H72c.8 0 1.5-.7 1.5-1.5s-.7-1.5-1.5-1.5H40.2c-.8 0-1.5.6-1.5 1.5zM78.6 88.5H21.4c-.8 0-1.5.7-1.5 1.5s.7 1.5 1.5 1.5h57.3c.8 0 1.5-.7 1.5-1.5s-.7-1.5-1.6-1.5zM32.1 77.6c-.8 0-1.5.7-1.5 1.5s.7 1.5 1.5 1.5h35.7c.8 0 1.5-.7 1.5-1.5s-.7-1.5-1.5-1.5H62V64h1c.8 0 1.5-.7 1.5-1.5S63.8 61 63 61H37c-.8 0-1.5.7-1.5 1.5S36.2 64 37 64h1v13.6h-5.9zM41 64h7.9v8.8c0 .6.4 1 1 1s1-.4 1-1V64H59v13.6h-8.2v-1.4c0-.6-.4-1-1-1s-1 .4-1 1v1.4H41V64zM27.1 79c0-.8-.7-1.5-1.5-1.5H13.4c-.4 0-.6-.3-.6-.6V42.4L18.2 32c1-1.3 1.4-1.5 2.3-1.5h16.2c.8 0 1.5-.7 1.5-1.5s-.7-1.5-1.5-1.5H20.5c-2.5 0-3.7 1.3-4.7 2.7-.1.1-.1.1-.1.2l-5.8 11c-.1.2-.2.4-.2.7v34.8c0 2 1.6 3.6 3.6 3.6h12.2c.9 0 1.6-.7 1.6-1.5z"/><path class="est2" d="M90.1 41.4l-5.6-10.9c0-.1-.1-.2-.1-.2-1.1-1.4-2.3-2.7-4.7-2.7H56c-1.6-2-3.2-4-4.6-5.7V11.5h9.1l-.5 3.6h-5.1c-.8 0-1.5.7-1.5 1.5s.7 1.5 1.5 1.5h6.4c.7 0 1.4-.5 1.5-1.3l1-6.6c.1-.4-.1-.9-.3-1.2-.3-.3-.7-.5-1.1-.5H49.9c-.8 0-1.5.7-1.5 1.5v12.1c-5.6 7-14.3 17.6-16.2 19.6H17.5c-.8 0-1.5.7-1.5 1.5s.7 1.5 1.5 1.5h15.2c.9 0 1.3 0 17.2-19.8 16 19.8 16.3 19.8 17.2 19.8h20v32.2c0 .4-.3.6-.6.6H74.4c-.8 0-1.5.7-1.5 1.5s.7 1.5 1.5 1.5h12.2c2 0 3.6-1.6 3.6-3.6V42.1c0-.3 0-.5-.1-.7zM58.4 30.5h21.1c.9 0 1.3.2 2.3 1.5l5 9.7h-19c-1.2-1.3-5.2-6.1-9.4-11.2z"/><path class="est2" d="M19.6 57.5h4.6c1.4 0 2.5-1.1 2.5-2.5v-5.5c0-1.4-1.1-2.5-2.5-2.5h-4.6c-1.4 0-2.5 1.1-2.5 2.5V55c0 1.4 1.1 2.5 2.5 2.5zm4.6-7.9V55h-4.6v-5.5h4.6zM36.3 49.6v5.5c0 1.4 1.1 2.5 2.5 2.5h6.3c1.4 0 2.5-1.1 2.5-2.5v-5.5c0-1.4-1.1-2.5-2.5-2.5h-6.3c-1.4 0-2.5 1.1-2.5 2.5zm8.8 5.4h-6.3v-5.5H45l.1 5.5zM52.2 49.6v5.5c0 1.4 1.1 2.5 2.5 2.5H61c1.4 0 2.5-1.1 2.5-2.5v-5.5c0-1.4-1.1-2.5-2.5-2.5h-6.3c-1.4 0-2.5 1.1-2.5 2.5zm8.8 0v5.5h-6.3v-5.4l6.3-.1zM75.5 57.5h4.6c1.4 0 2.5-1.1 2.5-2.5v-5.5c0-1.4-1.1-2.5-2.5-2.5h-4.6c-1.4 0-2.5 1.1-2.5 2.5V55c.1 1.4 1.2 2.5 2.5 2.5zm4.6-7.9v5.5h-4.6v-5.4l4.6-.1zM17.1 68.8c0 1.4 1.1 2.5 2.5 2.5h4.6c1.4 0 2.5-1.1 2.5-2.5v-5.5c0-1.4-1.1-2.5-2.5-2.5h-4.6c-1.4 0-2.5 1.1-2.5 2.5v5.5zm7.1-5.4v5.4h-4.6v-5.5h4.6zM73.1 68.8c0 1.4 1.1 2.5 2.5 2.5h4.6c1.4 0 2.5-1.1 2.5-2.5v-5.5c0-1.4-1.1-2.5-2.5-2.5h-4.6c-1.4 0-2.5 1.1-2.5 2.5v5.5zm7-5.4v5.5h-4.6v-5.4l4.6-.1z"/></svg></svg>