<?xml version="1.0" encoding="UTF-8" standalone="no"?><!DOCTYPE svg PUBLIC "-//W3C//DTD SVG 1.1//EN" "http://www.w3.org/Graphics/SVG/1.1/DTD/svg11.dtd"><svg width="100%" height="100%" viewBox="0 0 32 32" version="1.1" xmlns="http://www.w3.org/2000/svg" xmlns:xlink="http://www.w3.org/1999/xlink" xml:space="preserve" style="fill-rule:evenodd;clip-rule:evenodd;stroke-linejoin:round;stroke-miterlimit:1.41421;"><g><path d="M26.521,20.355l-0.357,0c-0.553,0 -1,0.447 -1,1l0,2.997l-18.304,0l0,-7.602c0,-0.552 -0.447,-1 -1,-1l-0.357,0c-0.552,0 -1,0.448 -1,1l0,13.653c0,0.553 0.448,0.999 1,0.999l0.357,0c0.552,0 1,-0.446 1,-0.999l0,-3.422l18.304,0l0,3.422c0,0.553 0.447,0.999 1,0.999l0.357,0c0.551,0 0.999,-0.446 0.999,-0.999l0,-9.049c0.001,-0.551 -0.448,-0.999 -0.999,-0.999Z" style="fill:#389ac4;fill-rule:nonzero;"/><path d="M31.682,14.251l-4.996,-4.655l0,-6.935c0,-0.189 -0.153,-0.342 -0.342,-0.342l-3.726,0c-0.188,0 -0.342,0.152 -0.342,0.342l0,2.825l-4.78,-4.347c-0.021,-0.02 -0.043,-0.035 -0.064,-0.053c-0.257,-0.288 -0.739,-0.49 -1.438,-0.49c-0.718,0 -1.213,0.215 -1.458,0.517c-0.01,0.009 -0.022,0.017 -0.033,0.026l-14.185,13.112c-0.425,0.425 -0.425,1.113 0,1.538l0.651,0.65c0.424,0.425 1.113,0.425 1.537,0l13.494,-12.535l13.493,12.535c0.424,0.425 1.113,0.425 1.537,0l0.651,-0.65c0.425,-0.425 0.425,-1.113 0.001,-1.538Z" style="fill:#389ac4;fill-rule:nonzero;"/><path d="M13.913,9.731c-1.127,1.128 -1.127,2.956 0,4.084c0.564,0.563 1.303,0.846 2.042,0.846c0.739,0 1.478,-0.282 2.042,-0.846c0.901,-0.902 1.08,-2.252 0.539,-3.332l-0.793,0.793c0.173,0.623 0.016,1.32 -0.475,1.811c-0.351,0.352 -0.817,0.545 -1.313,0.545c-0.497,0 -0.963,-0.193 -1.314,-0.545c-0.351,-0.351 -0.544,-0.817 -0.544,-1.313c0,-0.497 0.193,-0.963 0.544,-1.313c0.351,-0.352 0.817,-0.545 1.314,-0.545c0.177,0 0.35,0.025 0.515,0.073l0.79,-0.79c-0.409,-0.207 -0.856,-0.312 -1.305,-0.312c-0.739,-0.001 -1.478,0.281 -2.042,0.844Z" style="fill:#389ac4;fill-rule:nonzero;"/><path d="M15.45,10.632l-0.637,0.637l1.142,1.141l2.977,-2.977l-0.637,-0.637l-2.34,2.34l-0.505,-0.504Z" style="fill:#389ac4;fill-rule:nonzero;"/><path d="M11.567,20.221l-2.398,0c-0.874,0 -1.582,0.704 -1.592,1.575l-0.001,0l0,0.958c0,0.519 0.421,0.939 0.94,0.939l15.134,0c0.52,0 0.939,-0.421 0.939,-0.939c0,-0.52 -0.42,-0.94 -0.939,-0.94l-10.49,0c0,-0.879 -0.714,-1.593 -1.593,-1.593Z" style="fill:#389ac4;fill-rule:nonzero;"/><path d="M21.954,21.796l0,-2.01l2.514,0l-0.812,-4.469l-4.261,0l-0.812,4.469l2.515,0l0,2.01l0.856,0Zm-2.259,-2.938l0.475,-2.614l2.713,0l0.475,2.614l-3.663,0Z" style="fill:#389ac4;fill-rule:nonzero;"/></g></svg>