<?xml version="1.0" encoding="UTF-8" standalone="no"?><!DOCTYPE svg PUBLIC "-//W3C//DTD SVG 1.1//EN" "http://www.w3.org/Graphics/SVG/1.1/DTD/svg11.dtd"><svg width="100%" height="100%" viewBox="0 0 250 300" version="1.1" xmlns="http://www.w3.org/2000/svg" xmlns:xlink="http://www.w3.org/1999/xlink" xml:space="preserve" style="fill-rule:evenodd;clip-rule:evenodd;stroke-linejoin:round;stroke-miterlimit:1.41421;"><path d="M124.871,273.925l15.234,-15.236l-4.212,-4.212l-19.449,19.448l19.449,19.447l4.212,-4.214l-15.234,-15.233Z" style="fill:url(#_Linear1);fill-rule:nonzero;"/><path d="M120.658,7.479l-4.215,4.214l15.237,15.234l-15.236,15.234l4.214,4.214l19.447,-19.448l-19.447,-19.448Z" style="fill:url(#_Linear2);fill-rule:nonzero;"/><g><path d="M39.451,64.582c22.85,-22.851 53.228,-35.438 85.542,-35.447l0.037,0c32.328,0 62.72,12.589 85.581,35.448c10.88,10.88 19.45,23.438 25.477,37.325l0.694,1.602l0.584,-1.646c0.717,-2.021 1.484,-4.039 2.282,-5.997l0.113,-0.282l-0.132,-0.274c-6.195,-12.921 -14.541,-24.678 -24.806,-34.942c-23.822,-23.822 -55.443,-37.008 -89.106,-37.185l0,-0.009l-0.688,0c-0.012,0 -0.024,0 -0.037,0l-0.651,0l0,0.008c-33.662,0.178 -65.283,13.363 -89.105,37.185c-10.509,10.509 -19.001,22.573 -25.24,35.855c-3.038,6.47 -5.537,13.243 -7.427,20.13c-3.003,10.948 -4.527,22.322 -4.527,33.808c0,14.616 -2.565,28.894 -7.624,42.433c-6.064,16.231 -15.426,30.748 -27.825,43.146c-22.859,22.859 -53.251,35.447 -85.579,35.447c-32.328,0 -62.72,-12.587 -85.579,-35.447c-22.859,-22.86 -35.446,-53.252 -35.446,-85.58c0,-32.328 12.589,-62.72 35.448,-85.579c22.859,-22.859 53.251,-35.448 85.579,-35.448c32.328,0 62.72,12.589 85.579,35.448c10.88,10.88 19.452,23.438 25.477,37.325l0.695,1.603l0.583,-1.646c0.716,-2.017 1.483,-4.035 2.282,-5.997l0.114,-0.282l-0.131,-0.274c-6.196,-12.921 -14.542,-24.677 -24.807,-34.942c-23.985,-23.984 -55.874,-37.193 -89.793,-37.193c-33.919,0 -65.807,13.208 -89.792,37.192c-23.984,23.985 -37.193,55.874 -37.193,89.793c0,33.92 13.208,65.809 37.193,89.793c23.985,23.984 55.874,37.193 89.793,37.193c33.919,0 65.809,-13.209 89.793,-37.193c10.509,-10.508 19,-22.571 25.239,-35.854c3.038,-6.469 5.537,-13.24 7.427,-20.131c3.003,-10.947 4.527,-22.322 4.527,-33.809c0,-14.616 2.565,-28.893 7.624,-42.432c6.064,-16.23 15.426,-30.747 27.825,-43.145Z" style="fill:url(#_Linear3);fill-rule:nonzero;"/><path d="M462.837,60.368c-23.985,-23.984 -55.875,-37.193 -89.794,-37.193c-33.919,0 -65.808,13.209 -89.793,37.193c-10.508,10.508 -19,22.571 -25.239,35.854c-3.038,6.469 -5.537,13.242 -7.427,20.13c-3.004,10.948 -4.526,22.323 -4.526,33.808c0,14.615 -2.564,28.893 -7.624,42.433c-6.063,16.231 -15.426,30.748 -27.823,43.146c-22.852,22.852 -53.229,35.438 -85.543,35.447l-0.037,0c-32.328,0 -62.72,-12.588 -85.579,-35.447c-10.881,-10.881 -19.452,-23.438 -25.477,-37.325l-0.695,-1.603l-0.584,1.646c-0.717,2.021 -1.485,4.038 -2.282,5.997l-0.114,0.282l0.131,0.273c6.196,12.922 14.542,24.678 24.806,34.941c23.822,23.822 55.444,37.008 89.105,37.186l0,0.01l0.688,0c0.012,0 0.024,-0.002 0.037,-0.002l0.65,0l0,-0.008c33.663,-0.178 65.284,-13.361 89.106,-37.185c10.51,-10.509 19.001,-22.573 25.238,-35.854c3.038,-6.47 5.537,-13.242 7.428,-20.131c3.004,-10.947 4.526,-22.322 4.526,-33.808c0,-14.617 2.564,-28.894 7.623,-42.432c6.063,-16.231 15.427,-30.748 27.825,-43.146c22.858,-22.859 53.251,-35.448 85.578,-35.448c32.328,0 62.722,12.589 85.579,35.448c22.858,22.858 35.448,53.25 35.448,85.579c0,32.329 -12.59,62.721 -35.447,85.579c-22.859,22.858 -53.252,35.446 -85.58,35.446c-32.327,0 -62.72,-12.588 -85.578,-35.446c-10.881,-10.882 -19.452,-23.438 -25.478,-37.325l-0.695,-1.604l-0.583,1.646c-0.716,2.016 -1.483,4.033 -2.282,5.997l-0.114,0.282l0.131,0.273c6.195,12.922 14.543,24.678 24.808,34.942c23.983,23.983 55.874,37.192 89.793,37.192c33.919,0 65.809,-13.209 89.794,-37.192c23.984,-23.983 37.193,-55.873 37.193,-89.793c0,-33.914 -13.209,-65.803 -37.193,-89.788Z" style="fill:url(#_Linear4);fill-rule:nonzero;"/></g><circle cx="125" cy="150" r="100" style="fill:#7c6fa8;"/><defs><linearGradient id="_Linear1" x1="0" y1="0" x2="1" y2="0" gradientUnits="userSpaceOnUse" gradientTransform="matrix(717.516,0,0,717.516,-233.508,273.924)"><stop offset="0" style="stop-color:#007db3;stop-opacity:1"/><stop offset="1" style="stop-color:#89ffe5;stop-opacity:1"/><stop offset="1" style="stop-color:#89ffe5;stop-opacity:1"/></linearGradient><linearGradient id="_Linear2" x1="0" y1="0" x2="1" y2="0" gradientUnits="userSpaceOnUse" gradientTransform="matrix(717.487,0,0,717.487,-233.492,26.9268)"><stop offset="0" style="stop-color:#007db3;stop-opacity:1"/><stop offset="1" style="stop-color:#89ffe5;stop-opacity:1"/><stop offset="1" style="stop-color:#89ffe5;stop-opacity:1"/></linearGradient><linearGradient id="_Linear3" x1="0" y1="0" x2="1" y2="0" gradientUnits="userSpaceOnUse" gradientTransform="matrix(717.502,0,0,717.502,-233.5,150.161)"><stop offset="0" style="stop-color:#007db3;stop-opacity:1"/><stop offset="1" style="stop-color:#89ffe5;stop-opacity:1"/><stop offset="1" style="stop-color:#89ffe5;stop-opacity:1"/></linearGradient><linearGradient id="_Linear4" x1="0" y1="0" x2="1" y2="0" gradientUnits="userSpaceOnUse" gradientTransform="matrix(717.502,0,0,717.502,-233.5,150.161)"><stop offset="0" style="stop-color:#007db3;stop-opacity:1"/><stop offset="1" style="stop-color:#89ffe5;stop-opacity:1"/><stop offset="1" style="stop-color:#89ffe5;stop-opacity:1"/></linearGradient></defs></svg>