<?xml version="1.0" encoding="UTF-8" standalone="no"?><!DOCTYPE svg PUBLIC "-//W3C//DTD SVG 1.1//EN" "http://www.w3.org/Graphics/SVG/1.1/DTD/svg11.dtd"><svg width="100%" height="100%" viewBox="0 0 32 32" version="1.1" xmlns="http://www.w3.org/2000/svg" xmlns:xlink="http://www.w3.org/1999/xlink" xml:space="preserve" style="fill-rule:evenodd;clip-rule:evenodd;stroke-linejoin:round;stroke-miterlimit:1.41421;"><g><path d="M30.635,2.854l-0.321,0.061l0,21.024c0,0.87 -0.685,1.57 -1.558,1.594c-3.653,0.105 -8.641,0.919 -11.678,2.888l-0.012,0.008l-0.009,0.005c-0.001,0.001 -0.161,0.1 -0.585,0.398c-0.032,0.07 -0.23,0.125 -0.473,0.125c-0.243,0 -0.441,-0.055 -0.473,-0.125c-0.391,-0.284 -0.557,-0.382 -0.557,-0.382l-0.025,-0.014l-0.023,-0.016c-3.042,-1.972 -8.027,-2.784 -11.678,-2.888c-0.873,-0.023 -1.558,-0.725 -1.558,-1.594l0,-21.081l-0.32,-0.06c-0.754,0 -1.365,0.619 -1.365,1.385l0,24.67c0,0.511 0.408,0.925 0.912,0.925c0.039,0 0.076,-0.007 0.115,-0.012c0.027,-0.004 0.056,-0.007 0.083,-0.012c2.038,-0.295 4.383,-0.58 6.884,-0.58c2.21,0 4.3,0.479 6.162,0.713c0.289,0.421 1.004,0.72 1.844,0.72c0.797,0 1.48,-0.27 1.796,-0.656c1.874,-0.237 3.981,-0.719 6.21,-0.719c2.5,0 4.846,0.285 6.884,0.58c0.027,0.004 0.056,0.008 0.083,0.012c0.038,0.005 0.075,0.012 0.115,0.012c0.504,0 0.912,-0.414 0.912,-0.925l0,-24.672c0,-0.764 -0.611,-1.384 -1.365,-1.384Z" style="fill:#389ac4;fill-rule:nonzero;"/><path d="M3.267,24.419c6.013,0.172 10.141,2.302 12.089,3.576c0,0 0.182,0.102 0.645,0.441c0.479,-0.34 0.644,-0.441 0.644,-0.441c1.949,-1.274 6.077,-3.401 12.09,-3.576c0.435,-0.012 0.781,-0.367 0.781,-0.803l0,-20.552l0,-0.866c0,-0.443 -0.361,-0.804 -0.802,-0.804c-0.008,0 -0.016,0 -0.022,0.001c-6.762,0.205 -11.13,2.88 -12.689,4.015c-1.565,-1.135 -5.937,-3.81 -12.693,-4.014c-0.008,-0.001 -0.015,-0.001 -0.023,-0.001c-0.44,0 -0.803,0.357 -0.803,0.804l0,21.418c0,0.435 0.348,0.79 0.783,0.802Zm0.261,-21.412l0,-0.56c6.304,0.252 10.388,2.739 11.862,3.808l0.613,0.444l0.612,-0.445c1.47,-1.068 5.542,-3.555 11.855,-3.807l0,20.936c-6.15,0.229 -10.391,2.427 -12.39,3.731c-0.017,0.011 -0.043,0.027 -0.08,0.052c-0.041,-0.026 -0.074,-0.046 -0.098,-0.06c-2.005,-1.308 -6.242,-3.498 -12.376,-3.724l0,-20.375l0.002,0Z" style="fill:#389ac4;fill-rule:nonzero;"/><path d="M19.158,17.348c-0.775,0.47 -1.162,1.13 -1.162,1.98c0,0.628 0.204,1.129 0.614,1.502c0.41,0.374 0.961,0.561 1.655,0.561c0.914,0 1.907,-0.406 2.978,-1.22c0.489,0.754 1.038,1.131 1.646,1.131c0.326,0 0.66,-0.068 1.001,-0.205c0.342,-0.137 0.516,-0.271 0.523,-0.404c0.007,-0.111 -0.052,-0.163 -0.178,-0.156c-0.044,0 -0.133,0.017 -0.266,0.048c-0.067,0.013 -0.155,0.02 -0.267,0.02c-0.392,0 -0.671,-0.146 -0.837,-0.438c-0.167,-0.292 -0.25,-0.781 -0.25,-1.469l0,-4.342c0,-0.812 -0.277,-1.441 -0.832,-1.889c-0.554,-0.447 -1.334,-0.67 -2.34,-0.67c-1.102,0 -1.985,0.357 -2.651,1.071c-0.495,0.53 -0.742,1.022 -0.742,1.479c0,0.178 0.141,0.34 0.424,0.488c0.282,0.148 0.597,0.222 0.941,0.222c0.154,0 0.228,-0.065 0.221,-0.198c-0.008,-0.103 -0.033,-0.22 -0.078,-0.352c-0.096,-0.314 -0.145,-0.594 -0.145,-0.836c0,-0.821 0.488,-1.232 1.465,-1.232c0.724,0 1.301,0.221 1.729,0.662c0.318,0.323 0.477,0.908 0.477,1.753l0,1.367c-1.842,0.282 -3.151,0.658 -3.926,1.127Zm3.928,1.513c0,0.559 -0.128,0.967 -0.386,1.225c-0.418,0.404 -0.937,0.606 -1.554,0.606c-0.507,0 -0.909,-0.149 -1.207,-0.447c-0.298,-0.298 -0.446,-0.7 -0.446,-1.208c0,-0.646 0.312,-1.179 0.937,-1.594c0.625,-0.415 1.511,-0.675 2.656,-0.777l0,2.195Z" style="fill:#389ac4;fill-rule:nonzero;"/><path d="M12.111,7.934l-2.031,0l-4.494,13.169l1.758,0l1.368,-4.143l4.669,0l1.406,4.143l1.817,0l-4.493,-13.169Zm-3.048,7.698l1.29,-3.81c0.273,-0.801 0.469,-1.622 0.664,-2.384l0.039,0c0.195,0.762 0.391,1.544 0.684,2.403l1.309,3.79l-3.986,0l0,0.001Z" style="fill:#389ac4;fill-rule:nonzero;"/></g></svg>