<?xml version="1.0" encoding="UTF-8" standalone="no"?><!DOCTYPE svg PUBLIC "-//W3C//DTD SVG 1.1//EN" "http://www.w3.org/Graphics/SVG/1.1/DTD/svg11.dtd"><svg width="100%" height="100%" viewBox="0 0 70 70" version="1.1" xmlns="http://www.w3.org/2000/svg" xmlns:xlink="http://www.w3.org/1999/xlink" xml:space="preserve" style="fill-rule:evenodd;clip-rule:evenodd;stroke-linejoin:round;stroke-miterlimit:1.41421;"><g><circle cx="34.954" cy="13.442" r="6.055" style="fill:#fff;"/><path d="M25.443,26.305l0,12.873l8.896,0c-0.536,-0.862 -0.844,-1.875 -0.84,-2.962c0.009,-3.086 2.512,-5.582 5.598,-5.582c0.005,0 0.009,0 0.013,0l2.588,0.004l0,-1.918c0,-0.403 0.276,-0.757 0.672,-0.851c0.393,-0.094 0.798,0.094 0.982,0.455c0.009,0.015 0.015,0.033 0.024,0.048c1.302,2.752 1.022,2.161 2.341,4.952l-6.611,-0.017c-0.002,0 -0.004,0 -0.007,0c-1.61,0 -2.918,1.304 -2.922,2.914c-0.002,1.612 1.301,2.924 2.914,2.929l11.237,0.028c0.002,0 0.004,0 0.006,0c2.144,0 3.555,-2.235 2.641,-4.167c-0.464,-0.984 -3.765,-7.967 -4.318,-9.135c-1.278,-2.704 -4.039,-4.452 -7.029,-4.452c-1.043,0 -10.802,0 -12.18,0l-11.167,-19.851c-0.746,-1.433 -2.511,-1.986 -3.94,-1.243c-1.428,0.744 -1.986,2.512 -1.242,3.942c11.281,21.63 12.276,22.241 12.344,22.033Z" style="fill:#fff;fill-rule:nonzero;"/><path d="M69.501,42.536l-69,0l0,5.213l3.657,0l0,22.251l61.686,0l0,-22.251l3.657,0l0,-5.213Z" style="fill:#fff;fill-rule:nonzero;"/></g></svg>