<?xml version="1.0" encoding="UTF-8" standalone="no"?><!DOCTYPE svg PUBLIC "-//W3C//DTD SVG 1.1//EN" "http://www.w3.org/Graphics/SVG/1.1/DTD/svg11.dtd"><svg width="100%" height="100%" viewBox="0 0 32 32" version="1.1" xmlns="http://www.w3.org/2000/svg" xmlns:xlink="http://www.w3.org/1999/xlink" xml:space="preserve" style="fill-rule:evenodd;clip-rule:evenodd;stroke-linejoin:round;stroke-miterlimit:1.41421;"><g><path d="M9.231,9.584c0.188,-0.007 0.365,0.05 0.531,0.169c0.166,0.121 0.351,0.283 0.554,0.486l0.531,0.531c0.105,-0.188 0.179,-0.387 0.22,-0.594c0.042,-0.207 0.062,-0.42 0.062,-0.638c0,-0.362 -0.045,-0.716 -0.135,-1.062c-0.091,-0.347 -0.229,-0.657 -0.413,-0.933c-0.184,-0.273 -0.421,-0.495 -0.711,-0.665c-0.29,-0.17 -0.639,-0.254 -1.045,-0.254c-0.406,0 -0.758,0.084 -1.051,0.254c-0.294,0.17 -0.533,0.392 -0.717,0.666c-0.185,0.275 -0.322,0.586 -0.412,0.933c-0.09,0.347 -0.136,0.7 -0.136,1.062c0,0.361 0.045,0.716 0.136,1.062c0.091,0.347 0.228,0.658 0.412,0.933c0.184,0.275 0.423,0.496 0.717,0.666c0.293,0.169 0.645,0.254 1.051,0.254c0.227,0 0.438,-0.037 0.639,-0.113c0.199,-0.075 0.374,-0.195 0.525,-0.361l-0.565,-0.6c-0.091,-0.098 -0.179,-0.184 -0.266,-0.26c-0.087,-0.074 -0.183,-0.116 -0.288,-0.124c-0.083,-0.007 -0.162,0.01 -0.237,0.052c-0.075,0.041 -0.154,0.092 -0.237,0.152l-0.135,-1.198c0.142,-0.106 0.297,-0.199 0.463,-0.282c0.166,-0.083 0.335,-0.128 0.507,-0.136Z" style="fill:#389ac4;fill-rule:nonzero;"/><path d="M11.616,14.081l-0.814,-0.927c-0.271,0.219 -0.574,0.38 -0.909,0.485c-0.335,0.105 -0.69,0.158 -1.067,0.158c-0.617,0 -1.172,-0.111 -1.661,-0.333c-0.489,-0.222 -0.903,-0.524 -1.243,-0.909c-0.339,-0.384 -0.6,-0.835 -0.78,-1.355c-0.18,-0.52 -0.272,-1.074 -0.272,-1.661c0,-0.588 0.091,-1.142 0.271,-1.661c0.18,-0.519 0.441,-0.972 0.779,-1.355c0.34,-0.385 0.754,-0.688 1.243,-0.91c0.489,-0.222 1.044,-0.333 1.661,-0.333c0.617,0 1.17,0.111 1.655,0.333c0.485,0.223 0.897,0.525 1.237,0.91c0.339,0.384 0.599,0.836 0.779,1.355c0.18,0.519 0.271,1.073 0.271,1.661c0,0.527 -0.074,1.028 -0.221,1.503c-0.147,0.475 -0.363,0.903 -0.649,1.287l0.61,0.611c0.098,0.098 0.188,0.184 0.271,0.26c0.042,0.038 0.088,0.067 0.136,0.088c0.134,-0.148 0.272,-0.295 0.416,-0.438c1.327,-1.328 2.918,-2.296 4.653,-2.857c0.14,-2.471 -0.732,-4.988 -2.62,-6.875c-1.757,-1.758 -4.062,-2.637 -6.364,-2.637c-0.271,0 -0.54,0.014 -0.809,0.037c-2.024,0.182 -4.001,1.048 -5.553,2.6c-3.173,3.173 -3.48,8.125 -0.926,11.645l-1.506,2.988c-0.023,0.047 -0.043,0.09 -0.06,0.131c-0.005,0.012 -0.009,0.023 -0.013,0.035c-0.013,0.033 -0.023,0.064 -0.031,0.096c-0.002,0.006 -0.004,0.014 -0.006,0.021c-0.009,0.035 -0.014,0.068 -0.017,0.1c-0.001,0.008 -0.001,0.014 -0.001,0.021c0,0.023 0,0.045 0.004,0.066c0,0.008 0.001,0.014 0.002,0.02c0.006,0.025 0.013,0.047 0.023,0.066c0.002,0.002 0.004,0.004 0.004,0.006c0.011,0.018 0.023,0.031 0.039,0.043c0.004,0.004 0.009,0.008 0.014,0.012c0.016,0.01 0.033,0.02 0.053,0.025c0.004,0 0.006,0.002 0.01,0.004c0.022,0.006 0.049,0.008 0.077,0.01c0.009,0 0.019,-0.002 0.027,-0.002c0.017,0 0.034,-0.002 0.052,-0.004c0.012,-0.002 0.022,-0.004 0.034,-0.006c0.019,-0.004 0.038,-0.008 0.059,-0.014c0.013,-0.004 0.024,-0.008 0.037,-0.012c0.022,-0.006 0.046,-0.016 0.07,-0.025c0.012,-0.004 0.022,-0.008 0.035,-0.012c0.037,-0.016 0.075,-0.033 0.116,-0.055l2.986,-1.506c0.105,0.076 0.211,0.148 0.318,0.219c0.035,0.023 0.07,0.047 0.107,0.068c0.071,0.047 0.144,0.094 0.217,0.137c0.043,0.027 0.086,0.051 0.13,0.076c0.067,0.039 0.134,0.076 0.201,0.113c0.046,0.025 0.093,0.051 0.14,0.074c0.066,0.035 0.133,0.068 0.199,0.102c0.048,0.023 0.096,0.047 0.145,0.07c0.066,0.031 0.133,0.061 0.2,0.09c0.049,0.021 0.097,0.043 0.146,0.062c0.068,0.029 0.138,0.057 0.207,0.084c0.048,0.02 0.095,0.037 0.144,0.055c0.074,0.027 0.148,0.053 0.223,0.078c0.043,0.016 0.088,0.031 0.131,0.045c0.094,0.031 0.188,0.059 0.281,0.086c0.025,0.006 0.051,0.016 0.076,0.021c0.119,0.033 0.238,0.064 0.359,0.092c0.037,0.01 0.074,0.016 0.111,0.025c0.084,0.018 0.168,0.035 0.252,0.053c0.048,0.008 0.096,0.016 0.143,0.023c0.074,0.014 0.149,0.027 0.225,0.037c0.051,0.008 0.102,0.014 0.152,0.021c0.072,0.01 0.145,0.018 0.217,0.025c0.053,0.006 0.104,0.012 0.156,0.016c0.072,0.006 0.145,0.012 0.217,0.016c0.051,0.004 0.104,0.008 0.155,0.01c0.073,0.004 0.147,0.006 0.22,0.008c0.051,0 0.102,0.002 0.151,0.002c0.059,0 0.117,0 0.176,-0.002c0.082,0 0.163,-0.002 0.245,-0.006c0.059,-0.002 0.116,-0.006 0.174,-0.008c0.08,-0.006 0.16,-0.012 0.24,-0.018c0.058,-0.006 0.116,-0.012 0.175,-0.018c0.079,-0.008 0.159,-0.018 0.237,-0.027c0.012,-0.002 0.023,-0.004 0.034,-0.006c0.336,-1.414 0.933,-2.75 1.769,-3.948c-0.119,-0.096 -0.244,-0.218 -0.375,-0.365Z" style="fill:#389ac4;fill-rule:nonzero;"/><path d="M30.226,26.931c1.301,-1.928 1.919,-4.254 1.746,-6.59c-0.185,-2.48 -1.256,-4.818 -3.018,-6.579c-1.965,-1.965 -4.577,-3.047 -7.355,-3.047c-0.825,0 -1.636,0.098 -2.419,0.284c-0.476,0.112 -0.941,0.259 -1.395,0.438c-1.311,0.516 -2.516,1.299 -3.542,2.325c-1.229,1.228 -2.111,2.708 -2.601,4.325c0.11,-0.033 0.221,-0.068 0.33,-0.105c-0.109,0.037 -0.22,0.072 -0.331,0.107c-0.14,0.463 -0.246,0.936 -0.32,1.42c-0.082,0.527 -0.125,1.064 -0.125,1.607c0,2.779 1.082,5.391 3.047,7.355c1.965,1.964 4.576,3.047 7.354,3.047c2.093,0 4.096,-0.613 5.815,-1.775l2.956,1.49c0.269,0.137 0.504,0.203 0.719,0.203c0.303,0 0.561,-0.137 0.707,-0.375c0.188,-0.305 0.161,-0.699 -0.079,-1.174l-1.489,-2.956Zm-2.915,1.476l-0.283,0.205c-1.584,1.15 -3.462,1.76 -5.43,1.76c-2.472,0 -4.796,-0.963 -6.544,-2.711c-1.748,-1.748 -2.711,-4.072 -2.711,-6.545c0,-0.672 0.074,-1.332 0.213,-1.975c0.121,-0.559 0.292,-1.104 0.514,-1.627c-0.055,0.027 -0.11,0.053 -0.166,0.078c0.057,-0.025 0.111,-0.053 0.168,-0.082c0.458,-1.084 1.125,-2.081 1.982,-2.938c0.68,-0.679 1.446,-1.238 2.274,-1.67c0.507,-0.265 1.036,-0.481 1.583,-0.646c0.86,-0.26 1.764,-0.395 2.688,-0.395c2.473,0 4.797,0.963 6.545,2.711c1.567,1.567 2.521,3.646 2.685,5.853c0.162,2.186 -0.453,4.359 -1.733,6.121l-0.205,0.283l1.606,3.186l-3.186,-1.608Z" style="fill:#389ac4;fill-rule:nonzero;"/><path d="M20.583,15.608l-3.542,10.828l2.268,0l0.762,-2.562l3.169,0l0.762,2.562l2.33,0l-3.402,-10.828l-2.347,0Zm0.016,6.479c0.113,-0.363 0.212,-0.689 0.295,-0.979c0.083,-0.29 0.176,-0.631 0.279,-1.025c0.052,-0.197 0.106,-0.416 0.163,-0.66c0.058,-0.244 0.111,-0.471 0.164,-0.684c0.051,-0.213 0.093,-0.387 0.124,-0.521l0.062,-0.217l0.047,0.232c0.041,0.146 0.083,0.326 0.124,0.545l0.141,0.637c0.051,0.207 0.093,0.373 0.124,0.496c0.062,0.26 0.127,0.52 0.194,0.777c0.067,0.26 0.129,0.492 0.187,0.699c0.057,0.207 0.105,0.379 0.147,0.514l0.062,0.186l-2.113,0l0,0Z" style="fill:#389ac4;fill-rule:nonzero;"/></g></svg>