<?xml version="1.0" encoding="UTF-8" standalone="no"?><!DOCTYPE svg PUBLIC "-//W3C//DTD SVG 1.1//EN" "http://www.w3.org/Graphics/SVG/1.1/DTD/svg11.dtd"><svg width="100%" height="100%" viewBox="0 0 32 32" version="1.1" xmlns="http://www.w3.org/2000/svg" xmlns:xlink="http://www.w3.org/1999/xlink" xml:space="preserve" style="fill-rule:evenodd;clip-rule:evenodd;stroke-linejoin:round;stroke-miterlimit:1.41421;"><g id="higher.-education"><path d="M31.996,10.955c-0.052,-0.576 -0.307,-1.118 -0.717,-1.528c-0.068,-0.068 -0.148,-0.124 -0.237,-0.164l-12.951,-5.855c-0.094,-0.054 -0.196,-0.104 -0.305,-0.15c-0.487,-0.204 -1.12,-0.316 -1.783,-0.316c-0.71,0 -1.377,0.128 -1.878,0.359l-0.089,0.044l-13.076,5.784c-0.092,0.04 -0.173,0.096 -0.243,0.166c-0.462,0.462 -0.716,1.078 -0.717,1.734c0.001,0.655 0.255,1.27 0.717,1.731c0.067,0.066 0.146,0.121 0.231,0.161l5.467,2.515l0,5.052c0,0.012 0.001,0.023 0.002,0.031c0.017,1.854 1.057,3.574 2.93,4.844c1.789,1.215 4.152,1.883 6.653,1.883c2.501,0 4.863,-0.668 6.652,-1.883c1.873,-1.27 2.914,-2.99 2.931,-4.84c0.001,-0.012 0.001,-0.023 0.001,-0.035l0,-5.13l2.525,-1.187l0,6.038c-0.379,0.213 -0.62,0.619 -0.62,1.055c0,0.434 0.232,0.83 0.602,1.045c-0.563,0.883 -0.909,2.875 -0.909,4.299c0,1.695 0.468,2.451 1.515,2.451c1.048,0 1.515,-0.756 1.515,-2.451c0,-1.424 -0.345,-3.416 -0.908,-4.299c0.369,-0.215 0.602,-0.611 0.602,-1.045c0,-0.449 -0.252,-0.861 -0.647,-1.07l0,-6.561l1.796,-0.844c0.085,-0.04 0.161,-0.093 0.227,-0.159c0.41,-0.41 0.665,-0.953 0.717,-1.529c0.002,-0.049 0.002,-0.098 -0.003,-0.146Zm-15.996,-1.408c-0.53,0 -1.038,0.141 -1.397,0.39l-0.08,0.059c-0.27,0.214 -0.413,0.475 -0.413,0.751c0,0.674 0.831,1.201 1.891,1.201c0.523,0 1.023,-0.137 1.379,-0.377l9.021,1.628l-9.023,4.239c-0.027,0.012 -0.055,0.027 -0.08,0.043c-0.035,0.021 -0.08,0.043 -0.132,0.064c-0.291,0.123 -0.715,0.193 -1.162,0.193c-0.463,0 -0.91,-0.078 -1.193,-0.207l-0.078,-0.039l-12.958,-5.96c-0.108,-0.145 -0.167,-0.318 -0.167,-0.503c0,-0.184 0.057,-0.356 0.164,-0.501l12.929,-5.721c0.011,-0.004 0.021,-0.009 0.032,-0.014l0.075,-0.038c0.286,-0.13 0.733,-0.208 1.196,-0.208c0.447,0 0.871,0.07 1.162,0.191c0.052,0.022 0.097,0.045 0.132,0.066c0.029,0.018 0.06,0.034 0.091,0.048l12.838,5.804c0.083,0.109 0.137,0.234 0.161,0.371c-0.024,0.139 -0.08,0.266 -0.165,0.375l-2.027,0.953l-10.348,-1.867c-0.052,-0.153 -0.15,-0.297 -0.298,-0.434l-0.22,-0.163c-0.354,-0.222 -0.827,-0.344 -1.33,-0.344Zm-1.974,9.389l0.099,0.049c0.501,0.232 1.168,0.359 1.878,0.359c0.663,0 1.296,-0.111 1.783,-0.316c0.112,-0.047 0.219,-0.1 0.306,-0.15l5.885,-2.765l0.001,4.345l-0.001,0.027c-0.01,2.842 -3.588,5.154 -7.977,5.154c-4.39,0 -7.968,-2.312 -7.978,-5.154l0,-4.309l6.004,2.76Z" style="fill:#389ac4;fill-rule:nonzero;"/><path d="M15.943,25.166c1.937,0 3.767,-0.475 5.152,-1.336c1.471,-0.914 2.282,-2.158 2.287,-3.504c0.002,-0.316 -0.255,-0.574 -0.568,-0.574l-0.014,-0.002c-0.31,0 -0.563,0.258 -0.564,0.572c-0.008,2.039 -2.83,3.697 -6.292,3.697c-2.577,0 -4.872,-0.926 -5.848,-2.355c-0.106,-0.158 -0.284,-0.252 -0.475,-0.252c-0.116,0 -0.228,0.035 -0.323,0.1c-0.262,0.18 -0.328,0.537 -0.15,0.799c1.183,1.734 3.851,2.855 6.795,2.855Z" style="fill:#389ac4;fill-rule:nonzero;"/></g></svg>