<?xml version="1.0" encoding="UTF-8" standalone="no"?><!DOCTYPE svg PUBLIC "-//W3C//DTD SVG 1.1//EN" "http://www.w3.org/Graphics/SVG/1.1/DTD/svg11.dtd"><svg width="100%" height="100%" viewBox="0 0 81 22" version="1.1" xmlns="http://www.w3.org/2000/svg" xmlns:xlink="http://www.w3.org/1999/xlink" xml:space="preserve" style="fill-rule:evenodd;clip-rule:evenodd;stroke-linejoin:round;stroke-miterlimit:1.41421;"><g><g><path d="M32.642,12.309l0,2.388l-1.636,0l0,-2.388l-1.763,0l-1.028,-1.586l2.791,0l0,-2.348l1.636,0l0,2.348l2.338,0l0,1.586l-2.338,0Z" style="fill:#240f6e;fill-rule:nonzero;"/><g><path d="M42.491,13.489c-0.47,-0.534 -1.088,-0.811 -1.622,-0.811c-0.511,0 -0.959,0.213 -1.343,0.64c-0.79,0.896 -1.515,3.157 -1.515,4.842c0,1.131 0.533,1.621 1.301,1.621c0.79,0 1.579,-0.448 2.389,-1.088l0.96,1.771c-1.194,0.917 -2.41,1.45 -4.01,1.45c-2.432,0 -3.755,-1.408 -3.755,-3.754c0,-2.709 1.259,-5.183 2.774,-6.463c0.981,-0.832 2.069,-1.302 3.583,-1.302c1.003,0 2.112,0.406 2.901,1.302l-1.663,1.792Z" style="fill:#240f6e;fill-rule:nonzero;"/><path d="M49.956,6.556c0,0.704 -0.064,1.664 -0.256,2.56l-1.728,8.084c-0.277,1.28 -0.362,1.814 -0.362,2.112c0,0.405 0.17,0.619 0.554,0.619c0.107,0 0.214,0 0.32,-0.043l0.128,1.707c-0.512,0.192 -1.152,0.298 -1.77,0.298c-1.536,0 -2.261,-0.831 -2.261,-1.962c0,-0.384 0.149,-1.195 0.32,-1.984l1.727,-8.149c0.214,-0.981 0.342,-1.77 0.342,-2.389c0,-0.277 -0.022,-0.533 -0.086,-0.768l3.029,-0.917c0.022,0.171 0.043,0.469 0.043,0.832Z" style="fill:#240f6e;fill-rule:nonzero;"/><path d="M58.958,18.8c-0.149,0.726 -0.085,1.707 0.235,2.219l-2.475,0.981c-0.256,-0.384 -0.469,-0.939 -0.512,-1.451c-0.81,0.747 -1.877,1.366 -3.157,1.366c-1.685,0 -2.666,-0.854 -2.666,-2.219c0,-0.405 0.042,-0.938 0.213,-1.728l1.472,-6.997l2.944,-0.533l-1.494,7.018c-0.128,0.576 -0.213,1.173 -0.213,1.472c0,0.469 0.341,0.832 0.683,0.832c0.874,0 1.92,-0.939 2.346,-1.621l1.515,-7.104l2.879,-0.576l-1.77,8.341Z" style="fill:#240f6e;fill-rule:nonzero;"/><path d="M68.557,20.933c-1.024,0.726 -2.027,0.982 -3.136,0.982c-1.749,0 -3.456,-0.448 -4.373,-1.045c0.128,-0.385 0.341,-1.131 0.427,-1.557l2.048,-9.621c0.192,-0.939 0.298,-1.643 0.298,-2.219c0,-0.298 -0.021,-0.576 -0.085,-0.832l2.965,-0.917c0.064,0.235 0.085,0.555 0.085,0.917c0,0.598 -0.085,1.323 -0.213,1.984l-0.363,1.728c-0.064,0.32 -0.298,1.259 -0.405,1.472c0.619,-0.747 1.728,-1.387 3.008,-1.387c2.026,0 2.922,1.43 2.922,3.797c0,2.688 -1.13,5.248 -3.178,6.698Zm-0.789,-8.17c-0.875,0 -1.792,0.726 -2.368,1.707l-1.067,4.863c0.235,0.235 0.768,0.47 1.472,0.47c0.619,0 1.387,-0.576 1.792,-1.28c0.597,-1.066 1.024,-3.477 1.024,-4.33c0,-0.939 -0.277,-1.43 -0.853,-1.43Z" style="fill:#240f6e;fill-rule:nonzero;"/><path d="M80.823,13.318c-0.96,-0.554 -1.856,-0.747 -2.667,-0.747c-0.938,0 -1.621,0.342 -1.621,1.131c0,0.491 0.363,0.811 1.152,1.088l1.237,0.448c1.088,0.384 2.176,1.237 2.176,2.645c0,2.176 -1.707,4.096 -5.269,4.096c-1.6,0 -3.008,-0.491 -4.245,-1.216l1.152,-2.09c0.853,0.597 2.282,1.13 3.52,1.13c0.938,0 1.685,-0.64 1.685,-1.365c0,-0.555 -0.47,-0.789 -1.387,-1.109l-1.216,-0.427c-1.13,-0.405 -2.005,-1.259 -2.005,-2.752c0,-1.877 1.429,-3.733 5.013,-3.733c1.429,0 2.709,0.427 3.605,0.982l-1.131,1.919Z" style="fill:#240f6e;fill-rule:nonzero;"/></g></g><g><rect x="0" y="0" width="6.074" height="22" style="fill:#240f6e;"/><path d="M22.359,22l-7.086,-10.911l-1.899,0l6.34,-11.089l-4.706,0c0,0.003 -6.421,11.089 -6.421,11.089l6.968,10.911l6.804,0Z" style="fill:#007db3;fill-rule:nonzero;"/></g></g></svg>