<?xml version="1.0" encoding="UTF-8" standalone="no"?><!DOCTYPE svg PUBLIC "-//W3C//DTD SVG 1.1//EN" "http://www.w3.org/Graphics/SVG/1.1/DTD/svg11.dtd"><svg width="100%" height="100%" viewBox="0 0 80 22" version="1.1" xmlns="http://www.w3.org/2000/svg" xmlns:xlink="http://www.w3.org/1999/xlink" xml:space="preserve" style="fill-rule:evenodd;clip-rule:evenodd;stroke-linejoin:round;stroke-miterlimit:1.41421;"><g><g><path d="M32.642,12.33l0,2.388l-1.636,0l0,-2.388l-1.763,0l-1.028,-1.586l2.791,0l0,-2.348l1.636,0l0,2.348l2.338,0l0,1.586l-2.338,0Z" style="fill:#240f6e;fill-rule:nonzero;"/><g><path d="M39.291,17.243c-0.619,0 -1.173,-0.106 -1.301,-0.149c-0.043,0.234 -0.107,0.746 -0.107,0.981c0,1.237 0.64,1.749 1.834,1.749c0.982,0 2.005,-0.426 3.029,-1.152l0.726,1.792c-1.472,1.024 -2.901,1.493 -4.437,1.493c-2.603,0 -4.139,-1.365 -4.139,-4.01c0,-2.261 1.003,-4.586 2.454,-5.994c1.087,-1.045 2.303,-1.451 3.754,-1.451c2.154,0 3.712,0.854 3.712,2.987c0,2.069 -1.899,3.754 -5.525,3.754Zm1.493,-4.65c-1.088,0 -1.898,0.64 -2.325,2.538c0.085,0.021 0.469,0.107 0.81,0.107c1.238,0 2.667,-0.427 2.667,-1.515c0,-0.661 -0.299,-1.13 -1.152,-1.13Z" style="fill:#240f6e;fill-rule:nonzero;"/><path d="M52.943,13.851l2.858,7.808l-3.498,0l-1.579,-5.12l-3.647,5.12l-3.84,0l6.4,-8l-2.603,-6.826l3.477,0l1.301,4.139l2.902,-4.139l3.562,0l-5.333,7.018Z" style="fill:#240f6e;fill-rule:nonzero;"/><path d="M62.947,12.699l-1.898,0l-1.152,5.483c-0.086,0.362 -0.107,0.704 -0.107,0.959c0,0.598 0.32,0.79 0.96,0.79c0.256,0 0.746,-0.086 1.067,-0.214l0,1.728c-0.832,0.32 -1.686,0.47 -2.432,0.47c-1.643,0 -2.582,-0.811 -2.582,-1.877c0,-0.384 0.043,-0.897 0.15,-1.408l1.258,-5.931l-1.088,0l0.427,-1.962l1.088,0c0.213,-1.067 0.363,-1.771 0.661,-2.581l3.008,-0.726c-0.32,1.003 -0.64,2.198 -0.875,3.307l2.539,0l-1.024,1.962Z" style="fill:#240f6e;fill-rule:nonzero;"/><path d="M70.092,13.233c-0.256,-0.15 -0.511,-0.214 -0.831,-0.214c-0.555,0 -1.173,0.32 -2.07,1.494l-1.514,7.146l-2.859,0l1.536,-7.21c0.299,-1.365 0.256,-2.325 0.043,-3.029l2.645,-1.046c0.171,0.363 0.341,1.153 0.256,1.771c0.96,-0.981 1.984,-1.664 3.05,-1.664c0.406,0 0.598,0.043 0.982,0.235l-1.238,2.517Z" style="fill:#240f6e;fill-rule:nonzero;"/><path d="M79.905,13.958l-0.875,4.138c-0.064,0.299 -0.085,0.555 -0.085,0.811c0,0.533 0.149,0.938 0.491,1.322l-2.368,1.771c-0.512,-0.341 -0.747,-0.917 -0.832,-1.344c-0.811,0.853 -1.706,1.301 -2.901,1.301c-1.984,0 -3.008,-1.216 -3.008,-3.477c0,-2.623 1.003,-4.949 2.304,-6.25c1.195,-1.194 2.538,-1.706 4.352,-1.706c1.279,0 2.709,0.213 3.626,0.746c-0.235,0.662 -0.533,1.856 -0.704,2.688Zm-3.306,-1.216c-0.704,0 -1.237,0.042 -2.006,0.939c-0.895,1.066 -1.343,3.22 -1.343,4.671c0,0.982 0.255,1.408 0.874,1.408c0.896,0 1.814,-0.917 2.112,-1.707l1.131,-5.14c-0.128,-0.086 -0.512,-0.171 -0.768,-0.171Z" style="fill:#240f6e;fill-rule:nonzero;"/></g></g><g><rect x="0" y="0" width="6.074" height="22" style="fill:#240f6e;"/><path d="M22.359,22l-7.086,-10.911l-1.899,0l6.34,-11.089l-4.706,0c0,0.003 -6.421,11.089 -6.421,11.089l6.968,10.911l6.804,0Z" style="fill:#007db3;fill-rule:nonzero;"/></g></g></svg>