<?xml version="1.0" encoding="UTF-8" standalone="no"?><!DOCTYPE svg PUBLIC "-//W3C//DTD SVG 1.1//EN" "http://www.w3.org/Graphics/SVG/1.1/DTD/svg11.dtd"><svg width="100%" height="100%" viewBox="0 0 83 22" version="1.1" xmlns="http://www.w3.org/2000/svg" xmlns:xlink="http://www.w3.org/1999/xlink" xml:space="preserve" style="fill-rule:evenodd;clip-rule:evenodd;stroke-linejoin:round;stroke-miterlimit:1.41421;"><g><g><path d="M32.642,12.33l0,2.388l-1.636,0l0,-2.388l-1.763,0l-1.028,-1.585l2.791,0l0,-2.349l1.636,0l0,2.349l2.338,0l0,1.585l-2.338,0Z" style="fill:#240f6e;fill-rule:nonzero;"/><g><path d="M44.837,14.192l-1.579,7.467l-2.815,0l1.514,-7.104c0.086,-0.426 0.15,-0.746 0.15,-0.981c0,-0.534 -0.235,-0.683 -0.747,-0.683c-0.683,0 -1.493,0.427 -2.389,1.643l-1.515,7.124l-2.815,0l1.557,-7.359c0.128,-0.576 0.192,-1.109 0.192,-1.578c0,-0.491 -0.064,-0.918 -0.192,-1.302l2.645,-1.045c0.192,0.363 0.32,1.301 0.278,1.771c0.916,-0.982 2.09,-1.643 3.69,-1.643c1.386,0 2.197,0.832 2.197,2.154c0,0.47 -0.064,1.067 -0.171,1.536Z" style="fill:#240f6e;fill-rule:nonzero;"/><path d="M49.85,21.893c-2.475,0 -3.883,-1.365 -3.883,-3.861c0,-4.117 2.539,-7.508 6.293,-7.508c2.453,0 3.968,1.343 3.968,3.732c0,3.84 -2.048,7.637 -6.378,7.637Zm1.984,-9.257c-1.92,0 -2.838,4.01 -2.838,5.673c0,1.046 0.534,1.515 1.344,1.515c1.835,0 2.816,-3.434 2.816,-5.567c0,-1.259 -0.469,-1.621 -1.322,-1.621Z" style="fill:#240f6e;fill-rule:nonzero;"/><path d="M63.693,12.699l-1.898,0l-1.152,5.483c-0.085,0.362 -0.107,0.704 -0.107,0.959c0,0.598 0.32,0.79 0.96,0.79c0.256,0 0.747,-0.086 1.067,-0.214l0,1.728c-0.832,0.32 -1.685,0.47 -2.432,0.47c-1.643,0 -2.581,-0.811 -2.581,-1.877c0,-0.384 0.042,-0.896 0.149,-1.408l1.259,-5.931l-1.089,0l0.427,-1.962l1.088,0c0.213,-1.067 0.363,-1.771 0.661,-2.581l3.008,-0.726c-0.32,1.003 -0.64,2.197 -0.875,3.307l2.539,0l-1.024,1.962Z" style="fill:#240f6e;fill-rule:nonzero;"/><path d="M68.428,17.243c-0.618,0 -1.173,-0.107 -1.3,-0.149c-0.043,0.234 -0.107,0.746 -0.107,0.981c0,1.237 0.64,1.749 1.834,1.749c0.982,0 2.006,-0.426 3.029,-1.152l0.726,1.792c-1.472,1.024 -2.902,1.493 -4.437,1.493c-2.603,0 -4.139,-1.365 -4.139,-4.01c0,-2.261 1.003,-4.586 2.453,-5.994c1.088,-1.045 2.304,-1.45 3.755,-1.45c2.154,0 3.712,0.853 3.712,2.986c0,2.069 -1.899,3.754 -5.526,3.754Zm1.494,-4.65c-1.088,0 -1.899,0.64 -2.325,2.538c0.085,0.022 0.469,0.107 0.81,0.107c1.237,0 2.667,-0.427 2.667,-1.515c0,-0.661 -0.299,-1.13 -1.152,-1.13Z" style="fill:#240f6e;fill-rule:nonzero;"/><path d="M82.657,13.339c-0.96,-0.554 -1.856,-0.746 -2.667,-0.746c-0.939,0 -1.621,0.341 -1.621,1.13c0,0.491 0.363,0.811 1.151,1.088l1.238,0.448c1.088,0.384 2.176,1.238 2.176,2.646c0,2.175 -1.707,4.095 -5.269,4.095c-1.6,0 -3.008,-0.491 -4.245,-1.216l1.152,-2.09c0.853,0.597 2.282,1.13 3.519,1.13c0.939,0 1.686,-0.639 1.686,-1.365c0,-0.554 -0.47,-0.789 -1.387,-1.109l-1.216,-0.427c-1.13,-0.405 -2.005,-1.258 -2.005,-2.752c0,-1.876 1.429,-3.733 5.013,-3.733c1.429,0 2.709,0.427 3.605,0.982l-1.13,1.919Z" style="fill:#240f6e;fill-rule:nonzero;"/></g></g><g><rect x="0" y="0" width="6.074" height="22" style="fill:#240f6e;"/><path d="M22.359,22l-7.086,-10.911l-1.899,0l6.34,-11.089l-4.706,0c0,0.003 -6.421,11.089 -6.421,11.089l6.968,10.911l6.804,0Z" style="fill:#007db3;fill-rule:nonzero;"/></g></g></svg>