<?xml version="1.0" encoding="UTF-8" standalone="no"?><!DOCTYPE svg PUBLIC "-//W3C//DTD SVG 1.1//EN" "http://www.w3.org/Graphics/SVG/1.1/DTD/svg11.dtd"><svg width="100%" height="100%" viewBox="0 0 80 22" version="1.1" xmlns="http://www.w3.org/2000/svg" xmlns:xlink="http://www.w3.org/1999/xlink" xml:space="preserve" style="fill-rule:evenodd;clip-rule:evenodd;stroke-linejoin:round;stroke-miterlimit:1.41421;"><g><g><path d="M32.642,12.33l0,2.388l-1.636,0l0,-2.388l-1.763,0l-1.028,-1.585l2.791,0l0,-2.349l1.636,0l0,2.349l2.338,0l0,1.585l-2.338,0Z" style="fill:#240f6e;fill-rule:nonzero;"/><g><path d="M42.247,12.699l-1.898,0l-1.152,5.483c-0.086,0.362 -0.107,0.704 -0.107,0.959c0,0.598 0.32,0.79 0.96,0.79c0.256,0 0.746,-0.086 1.066,-0.214l0,1.728c-0.832,0.32 -1.685,0.47 -2.431,0.47c-1.643,0 -2.582,-0.811 -2.582,-1.877c0,-0.384 0.043,-0.896 0.15,-1.408l1.258,-5.931l-1.088,0l0.427,-1.962l1.088,0c0.213,-1.067 0.363,-1.771 0.661,-2.581l3.008,-0.726c-0.32,1.003 -0.64,2.198 -0.875,3.307l2.539,0l-1.024,1.962Z" style="fill:#240f6e;fill-rule:nonzero;"/><path d="M46.748,21.893c-2.475,0 -3.883,-1.365 -3.883,-3.861c0,-4.117 2.539,-7.508 6.293,-7.508c2.453,0 3.968,1.344 3.968,3.733c0,3.839 -2.048,7.636 -6.378,7.636Zm1.984,-9.258c-1.92,0 -2.838,4.011 -2.838,5.675c0,1.045 0.534,1.514 1.344,1.514c1.835,0 2.816,-3.434 2.816,-5.567c0,-1.259 -0.469,-1.622 -1.322,-1.622Z" style="fill:#240f6e;fill-rule:nonzero;"/><path d="M58.245,21.893c-2.475,0 -3.883,-1.365 -3.883,-3.861c0,-4.117 2.539,-7.508 6.293,-7.508c2.454,0 3.968,1.344 3.968,3.733c0,3.839 -2.048,7.636 -6.378,7.636Zm1.984,-9.258c-1.92,0 -2.838,4.011 -2.838,5.675c0,1.045 0.534,1.514 1.345,1.514c1.834,0 2.815,-3.434 2.815,-5.567c0,-1.259 -0.469,-1.622 -1.322,-1.622Z" style="fill:#240f6e;fill-rule:nonzero;"/><path d="M71.022,6.577c0,0.704 -0.064,1.664 -0.256,2.56l-1.728,8.085c-0.277,1.279 -0.362,1.813 -0.362,2.112c0,0.405 0.17,0.618 0.554,0.618c0.107,0 0.213,0 0.32,-0.043l0.128,1.707c-0.512,0.192 -1.152,0.299 -1.771,0.299c-1.536,0 -2.261,-0.832 -2.261,-1.963c0,-0.384 0.149,-1.194 0.32,-1.984l1.728,-8.148c0.213,-0.981 0.341,-1.771 0.341,-2.389c0,-0.278 -0.021,-0.534 -0.085,-0.768l3.029,-0.917c0.022,0.17 0.043,0.468 0.043,0.831Z" style="fill:#240f6e;fill-rule:nonzero;"/><path d="M79.81,13.339c-0.96,-0.554 -1.856,-0.746 -2.666,-0.746c-0.939,0 -1.621,0.341 -1.621,1.13c0,0.491 0.362,0.811 1.151,1.088l1.238,0.448c1.088,0.384 2.176,1.238 2.176,2.646c0,2.175 -1.707,4.095 -5.269,4.095c-1.6,0 -3.008,-0.49 -4.245,-1.216l1.152,-2.09c0.853,0.597 2.282,1.13 3.519,1.13c0.939,0 1.685,-0.64 1.685,-1.365c0,-0.554 -0.469,-0.789 -1.386,-1.109l-1.216,-0.427c-1.131,-0.405 -2.005,-1.258 -2.005,-2.752c0,-1.876 1.429,-3.733 5.013,-3.733c1.429,0 2.709,0.427 3.605,0.981l-1.131,1.92Z" style="fill:#240f6e;fill-rule:nonzero;"/></g></g><g><rect x="0" y="0" width="6.074" height="22" style="fill:#240f6e;"/><path d="M22.359,22l-7.086,-10.911l-1.899,0l6.34,-11.089l-4.706,0c0,0.003 -6.421,11.089 -6.421,11.089l6.968,10.911l6.804,0Z" style="fill:#007db3;fill-rule:nonzero;"/></g></g></svg>