<?xml version="1.0" encoding="utf-8"?>
<!-- Generator: Adobe Illustrator 22.0.1, SVG Export Plug-In . SVG Version: 6.00 Build 0)  -->
<svg version="1.1" id="Layer_1" xmlns="http://www.w3.org/2000/svg" xmlns:xlink="http://www.w3.org/1999/xlink" x="0px" y="0px"
	 viewBox="0 0 100 100" style="enable-background:new 0 0 100 100;" xml:space="preserve">
<style type="text/css">
	.st0{display:none;}
	.st1{display:inline;opacity:0.1;enable-background:new    ;}
	.st2{fill:#007DB3;}
</style>
<g id="Layer_1_1_" class="st0">
	<path class="st1" d="M99.8,0H64.7h-0.3H50.1h-0.3H35.5h-0.3h-35H0v0.2v35.1v0.3v14.3v0.3v14.3v0.3v35.1v0.2h0.2h35.1h0.3h14.3h0.3
		h14.3h0.3h35.1h0.2v-0.2V64.7v-0.3V50.1v-0.3V35.5v-0.3v-35V0H99.8z M16.5,83.6v5.8c-1.6,0-3-0.7-4.1-1.7L16.5,83.6z M12.3,87.6
		c-1-1.1-1.7-2.5-1.7-4.1h5.8L12.3,87.6z M10.5,83.2v-9.6c1.7,2.9,3.7,5.5,6,7.9v1.7H10.5L10.5,83.2z M10.5,73v-8.3h6v16.4
		C14.3,78.6,12.2,75.9,10.5,73z M10.5,64.5V50.1h6v14.3L10.5,64.5L10.5,64.5z M10.5,49.9V35.5h6v14.3h-6V49.9z M10.5,35.3V27
		c1.7-2.9,3.7-5.6,6-8v16.4C16.5,35.3,10.5,35.3,10.5,35.3z M10.5,26.4v-9.6h6v1.7C14.3,20.9,12.3,23.6,10.5,26.4z M16.5,16.4
		l-4.1-4.1c1.1-1,2.5-1.7,4.1-1.7V16.4z M16.4,16.5h-5.8c0-1.6,0.7-3,1.7-4.1L16.4,16.5z M10.3,16.5C6.8,16.6,4,19.4,4,22.9v12.4
		H0.5V0.7L12,12.2C11,13.4,10.3,14.9,10.3,16.5z M6.5,64.7c1,2.9,2.3,5.8,3.8,8.4v10.1c-3.3-0.1-6-2.8-6-6.1V64.7H6.5z M4.3,64.5
		v-9.6c0.4,3.3,1.1,6.5,2.1,9.6H4.3z M6.7,64.7h3.6v7.9C8.9,70.1,7.7,67.5,6.7,64.7z M6.6,64.5C5.1,60,4.3,55.2,4.3,50.2h6v14.3H6.6
		z M4.3,45.1v-9.6h2.1C5.4,38.6,4.6,41.8,4.3,45.1z M4.3,49.9c0-5,0.8-9.8,2.3-14.3h3.6v14.3H4.3z M6.7,35.3
		c0.9-2.8,2.1-5.4,3.6-7.9v7.9H6.7z M6.5,35.3H4.3V22.9c0-3.3,2.7-6,6-6.1v10.1C8.7,29.5,7.4,32.3,6.5,35.3z M0.5,35.5H4v14.3H0.5
		V35.5z M0.5,50.1H4v14.3H0.5V50.1z M0.5,64.7H4v12.4c0,3.5,2.8,6.3,6.3,6.4c0,1.7,0.7,3.2,1.8,4.3L0.5,99.3V64.7z M35.3,99.5H0.7
		L12.3,88c1.1,1.1,2.6,1.7,4.3,1.8c0.1,3.5,2.9,6.3,6.4,6.3h12.4v3.4C35.4,99.5,35.3,99.5,35.3,99.5z M35.3,35.1L17.8,17.6
		c0.3-0.3,0.6-0.5,0.8-0.8h16.7V35.1z M17.6,17.4L17,16.8h1.3C18,17,17.8,17.2,17.6,17.4z M18.5,16.5h-1.7v-6h9.6
		C23.6,12.3,20.9,14.3,18.5,16.5z M17.4,17.6c-0.2,0.2-0.4,0.4-0.6,0.6V17L17.4,17.6z M17.6,17.8l17.5,17.5H16.8V18.6
		C17.1,18.3,17.3,18.1,17.6,17.8z M35,35.5c-3.6,3.7-5.8,8.8-5.9,14.3H16.8V35.5H35z M29.2,50.1c0,5.6,2.3,10.6,5.9,14.3H16.8V50.1
		H29.2z M35.1,64.7L17.6,82.2c-0.3-0.3-0.5-0.6-0.8-0.8V64.7H35.1z M18.2,83.2H17l0.6-0.6C17.8,82.8,18,83,18.2,83.2z M17.4,82.4
		L16.8,83v-1.3C17,82,17.2,82.2,17.4,82.4z M18.5,83.5c2.4,2.3,5.1,4.3,7.9,6h-9.6v-6H18.5z M35.3,89.5H27c-2.9-1.7-5.6-3.7-8-6
		h16.4C35.3,83.5,35.3,89.5,35.3,89.5z M35.3,95.7H22.9c-3.3,0-6-2.7-6.1-6h10.1c2.6,1.5,5.5,2.8,8.4,3.8V95.7z M35.3,93.3
		c-2.8-0.9-5.4-2.1-7.9-3.6h7.9V93.3z M35.3,83.2H18.6c-0.3-0.3-0.6-0.5-0.8-0.8l17.5-17.5C35.3,64.9,35.3,83.2,35.3,83.2z
		 M35.3,64.3c-3.6-3.7-5.8-8.7-5.8-14.2h5.8V64.3z M35.3,49.9h-5.8c0-5.5,2.3-10.5,5.8-14.2V49.9z M35.3,16.5H18.9
		c2.4-2.3,5.1-4.3,8-6h8.3C35.3,10.5,35.3,16.5,35.3,16.5z M35.3,10.3h-7.9c2.5-1.4,5.1-2.6,7.9-3.6V10.3z M26.9,10.3H16.8
		c0.1-3.3,2.8-6,6.1-6h12.4v2.2l0,0C32.3,7.4,29.5,8.7,26.9,10.3z M35.3,4H22.9c-3.5,0-6.3,2.8-6.4,6.3c-1.7,0-3.2,0.7-4.3,1.8
		L0.7,0.5h34.6V4z M35.5,4.3h9.6c-3.3,0.4-6.5,1.1-9.6,2.1V4.3z M35.5,35.7l14.1,14.1H35.5V35.7z M35.5,50.1h14.1L35.5,64.3V50.1z
		 M35.5,93.6c3.1,1,6.3,1.7,9.6,2.1h-9.6V93.6z M49.9,99.5H35.5V96h14.3v3.5H49.9z M49.9,95.7c-5,0-9.8-0.8-14.3-2.3v-3.6h14.3V95.7
		z M49.9,89.5H35.5v-6h14.3v6H49.9z M49.9,83.2H35.5V65c3.7,3.6,8.8,5.8,14.3,5.9C49.9,70.8,49.9,83.2,49.9,83.2z M49.9,70.6
		c-5.5,0-10.5-2.3-14.2-5.8h14.2V70.6z M49.9,64.5H35.7l14.1-14.1L49.9,64.5L49.9,64.5z M49.9,49.7L35.7,35.5h14.1L49.9,49.7
		L49.9,49.7z M49.9,35.3H35.7c3.7-3.6,8.7-5.8,14.2-5.8C49.9,29.4,49.9,35.3,49.9,35.3z M49.9,29.2c-5.6,0-10.6,2.3-14.3,5.9V16.8
		h14.3V29.2z M49.9,16.5H35.5v-6h14.3v6H49.9z M49.9,10.3H35.5V6.6c4.5-1.5,9.3-2.3,14.3-2.3C49.9,4.3,49.9,10.3,49.9,10.3z M49.9,4
		H35.5V0.5h14.3V4H49.9z M50.1,29.4c5.5,0,10.5,2.3,14.2,5.8H50.1V29.4z M50.1,35.5h14.1L50.1,49.7V35.5z M50.1,50.3l14.1,14.1H50.1
		V50.3z M50.1,64.7h14.2c-3.7,3.6-8.7,5.8-14.2,5.8C50.1,70.6,50.1,64.7,50.1,64.7z M64.5,99.5H50.1V96h14.3L64.5,99.5L64.5,99.5z
		 M64.5,95.7h-9.6c3.3-0.4,6.5-1.1,9.6-2.1V95.7z M64.5,93.4c-4.5,1.5-9.3,2.3-14.3,2.3v-6h14.3V93.4z M64.5,89.5H50.1v-6h14.3
		L64.5,89.5L64.5,89.5z M64.5,83.2H50.1V70.8c5.6,0,10.6-2.3,14.3-5.9L64.5,83.2L64.5,83.2z M64.5,64.3L50.3,50.1h14.1L64.5,64.3
		L64.5,64.3z M64.5,49.9H50.3l14.1-14.1L64.5,49.9L64.5,49.9z M64.5,35c-3.7-3.6-8.8-5.8-14.3-5.9V16.8h14.3V35z M64.5,16.5H50.1v-6
		h14.3L64.5,16.5L64.5,16.5z M64.5,10.3H50.1v-6c5,0,9.8,0.8,14.3,2.3L64.5,10.3L64.5,10.3z M64.5,6.4c-3.1-1-6.3-1.7-9.6-2.1h9.6
		V6.4z M64.5,4H50.1V0.5h14.3L64.5,4L64.5,4z M64.7,0.5h34.6L87.7,12.1c-1.1-1.1-2.6-1.7-4.3-1.8c0-3.5-2.8-6.3-6.3-6.3H64.7V0.5z
		 M83.6,83.5h5.8c0,1.6-0.7,3-1.7,4.1L83.6,83.5z M87.6,87.7c-1.1,1-2.5,1.7-4.1,1.7v-5.8L87.6,87.7z M83.5,83.2v-1.7
		c2.3-2.4,4.3-5.1,6-7.9v9.6H83.5L83.5,83.2z M83.5,81.1V64.7h6V73C87.8,75.9,85.7,78.6,83.5,81.1z M83.5,64.5V50.1h6v14.3
		L83.5,64.5L83.5,64.5z M83.5,49.9V35.5h6v14.3h-6V49.9z M83.5,35.3V18.9c2.3,2.4,4.3,5.1,6,8v8.3C89.5,35.3,83.5,35.3,83.5,35.3z
		 M83.5,18.5v-1.7h6v9.6C87.7,23.6,85.7,20.9,83.5,18.5z M83.6,16.5l4.1-4.1c1,1.1,1.7,2.5,1.7,4.1H83.6z M83.5,16.4v-5.8
		c1.6,0,3,0.7,4.1,1.7L83.5,16.4z M64.7,64.9l17.5,17.5c-0.3,0.3-0.6,0.5-0.8,0.8H64.7V64.9z M82.4,82.6l0.6,0.6h-1.3
		C82,83,82.2,82.8,82.4,82.6z M81.5,83.5h1.7v6h-9.6C76.4,87.7,79.1,85.7,81.5,83.5z M82.6,82.4c0.2-0.2,0.4-0.4,0.6-0.6V83
		L82.6,82.4z M82.4,82.2L64.9,64.7h18.3v16.7C82.9,81.7,82.7,81.9,82.4,82.2z M65,64.5c3.6-3.7,5.8-8.8,5.9-14.3h12.4v14.3H65z
		 M70.8,49.9c0-5.6-2.3-10.6-5.9-14.3h18.2v14.3H70.8z M64.9,35.3l17.5-17.5c0.3,0.3,0.5,0.6,0.8,0.8v16.7H64.9z M81.8,16.8H83
		l-0.6,0.6C82.2,17.2,82,17,81.8,16.8z M82.6,17.6l0.6-0.6v1.3C83,18,82.8,17.8,82.6,17.6z M81.5,16.5c-2.4-2.3-5.1-4.3-7.9-6h9.6v6
		H81.5z M64.7,4.3h12.4c3.3,0,6,2.7,6.1,6H73.1c-2.6-1.5-5.5-2.8-8.4-3.8V4.3z M64.7,6.7c2.8,0.9,5.4,2.1,7.9,3.6h-7.9V6.7z
		 M64.7,10.5H73c2.9,1.7,5.6,3.7,8,6H64.7V10.5z M64.7,16.8h16.7c0.3,0.3,0.6,0.5,0.8,0.8L64.7,35.1V16.8z M64.7,35.7
		c3.6,3.7,5.8,8.7,5.8,14.2h-5.8V35.7z M64.7,50.1h5.8c0,5.5-2.3,10.5-5.8,14.2V50.1z M64.7,83.5h16.4c-2.4,2.3-5.1,4.3-8,6h-8.3
		C64.7,89.5,64.7,83.5,64.7,83.5z M64.7,89.7h7.9c-2.5,1.4-5.1,2.6-7.9,3.6C64.7,93.3,64.7,89.7,64.7,89.7z M64.7,93.5
		c2.9-1,5.8-2.3,8.4-3.8h10.1c-0.1,3.3-2.8,6-6.1,6H64.7V93.5z M64.7,99.5V96h12.4c3.5,0,6.3-2.8,6.4-6.3c1.7,0,3.2-0.7,4.3-1.8
		l11.6,11.5H64.7V99.5z M99.5,99.3L87.9,87.7c1.1-1.1,1.7-2.6,1.8-4.3c3.5-0.1,6.3-2.9,6.3-6.4V64.7h3.5
		C99.5,64.7,99.5,99.3,99.5,99.3z M93.5,35.3L93.5,35.3c-1-2.9-2.3-5.8-3.8-8.4V16.8c3.3,0.1,6,2.8,6,6.1v12.4H93.5z M95.7,35.5v9.6
		c-0.4-3.3-1.1-6.5-2.1-9.6H95.7z M93.3,35.3h-3.6v-7.9C91.1,29.9,92.3,32.5,93.3,35.3z M93.4,35.5c1.5,4.5,2.3,9.3,2.3,14.3h-6
		V35.5H93.4z M95.7,54.9v9.6h-2.1C94.6,61.4,95.4,58.2,95.7,54.9z M95.7,50.1c0,5-0.8,9.8-2.3,14.3h-3.6V50.1H95.7z M93.3,64.7
		c-0.9,2.8-2.1,5.4-3.6,7.9v-7.9H93.3z M93.5,64.7h2.2v12.4c0,3.3-2.7,6-6,6.1V73.1C91.3,70.5,92.6,67.7,93.5,64.7z M99.5,64.5H96
		V50.1h3.5V64.5z M99.5,49.9H96V35.5h3.5V49.9z M99.5,35.3H96V22.9c0-3.5-2.8-6.3-6.3-6.4c0-1.7-0.7-3.2-1.8-4.3L99.5,0.7V35.3z"/>
</g>
<g>
	<path class="st2" d="M62.8,75.5H37.5c-7.3,0-13.3,6-13.3,13.3v2.8c0,0.8,0.7,1.5,1.5,1.5s1.5-0.7,1.5-1.5v-2.8
		c0-5.7,4.6-10.3,10.3-10.3h25.3c5.7,0,10.3,4.6,10.3,10.3v2.8c0,0.8,0.7,1.5,1.5,1.5s1.5-0.7,1.5-1.5v-2.8
		C76.1,81.4,70.1,75.5,62.8,75.5z"/>
	<path class="st2" d="M50.1,44.6c-7.6,0-13.9,6.2-13.9,13.9c0,7.6,6.2,13.9,13.9,13.9c7.6,0,13.9-6.2,13.9-13.9
		C64,50.9,57.8,44.6,50.1,44.6z M50.1,69.4c-6,0-10.9-4.9-10.9-10.9c0-6,4.9-10.9,10.9-10.9S61,52.5,61,58.5
		C61,64.5,56.1,69.4,50.1,69.4z"/>
	<path class="st2" d="M45.9,28.9l1.6-3.8h5l1.6,3.8c0.2,0.6,0.8,0.9,1.4,0.9c0.2,0,0.4,0,0.6-0.1c0.8-0.3,1.1-1.2,0.8-2l-2-4.7
		c0,0,0,0,0,0l-3.4-8c-0.3-0.6-0.8-1-1.5-1c0,0,0,0,0,0c-0.6,0-1.2,0.4-1.5,1l-3.4,8c0,0,0,0,0,0l-2,4.7c-0.3,0.8,0,1.6,0.8,2
		C44.7,30,45.6,29.6,45.9,28.9z M50,19.2l1.2,2.9h-2.5L50,19.2z"/>
	<path class="st2" d="M90.1,30.9c-0.6-0.5-1.6-0.4-2.1,0.2l-7,8.8l-2.4-2.4c-0.6-0.6-1.5-0.6-2.1,0s-0.6,1.5,0,2.1l3.6,3.6
		c0.3,0.3,0.7,0.4,1.1,0.4c0,0,0.1,0,0.1,0c0.4,0,0.8-0.2,1.1-0.6L90.4,33C90.9,32.4,90.8,31.4,90.1,30.9z"/>
	<path class="st2" d="M22.2,33.2v-3.6h-5.8v2c0,0,0,0,0,0v2.8l-5.2,1.8c-0.6,0.2-1,0.8-1,1.4v6.9c0,0.8,0.7,1.5,1.5,1.5h11.4
		c0.8,0,1.5-0.7,1.5-1.5v-6.9c0-0.6-0.4-1.2-1-1.4l-5.1-1.8v-1.3H22.2z M21.6,43.1h-2.7v-1.3c0-0.8-0.7-1.5-1.5-1.5
		s-1.5,0.7-1.5,1.5v1.3h-2.7v-4.4l4.2-1.5l4.2,1.5V43.1z"/>
	<path class="st2" d="M46.2,36.4l2.4,4.5c0.3,0.5,0.8,0.8,1.3,0.8s1.1-0.3,1.3-0.8l2.4-4.5C60.3,34.7,65,28.7,65,21.9
		c0-8.3-6.7-15-15-15c-2.8,0-5.6,0.8-7.9,2.3c-0.7,0.4-0.9,1.4-0.5,2.1c0.4,0.7,1.4,0.9,2.1,0.5c1.9-1.2,4.1-1.8,6.4-1.8
		c6.6,0,12,5.4,12,12c0,5.7-4,10.6-9.5,11.8c-0.4,0.1-0.8,0.4-1,0.7L50,37.1l-1.5-2.7c-0.2-0.4-0.6-0.7-1-0.7
		C42,32.5,38,27.6,38,21.9c0-1.8,0.4-3.5,1.1-5.1c0.4-0.7,0-1.6-0.7-2c-0.8-0.4-1.6,0-2,0.7c-0.9,2-1.4,4.1-1.4,6.4
		C35,28.7,39.7,34.7,46.2,36.4z"/>
	<path class="st2" d="M30.1,52.4c0.5,0.1,1.1,0,1.5-0.4s0.5-1,0.4-1.5l-1.5-4.9c3.4-5.9,2.4-13.4-2.5-18.2
		c-2.9-2.8-6.6-4.3-10.7-4.3c-4,0-7.8,1.6-10.6,4.5c-2.1,2.1-3.5,4.8-4,7.8C2.5,36.2,3,37,3.9,37.1c0.8,0.1,1.6-0.4,1.7-1.2
		c0.4-2.4,1.6-4.5,3.2-6.2c2.2-2.3,5.3-3.6,8.5-3.6c0,0,0.1,0,0.1,0c3.2,0,6.1,1.2,8.4,3.4c4,4,4.8,10.3,1.7,15.1
		c-0.2,0.4-0.3,0.8-0.2,1.2l0.9,2.9l-2.9-0.8c-0.4-0.1-0.9,0-1.2,0.2c-4.7,3.1-11,2.5-15.1-1.4c-1.2-1.2-2.2-2.6-2.8-4.2
		c-0.3-0.8-1.2-1.2-1.9-0.8c-0.8,0.3-1.2,1.2-0.8,1.9c0.8,2,1.9,3.7,3.5,5.2c2.9,2.8,6.7,4.3,10.5,4.3c2.7,0,5.3-0.7,7.7-2.1
		L30.1,52.4z"/>
	<path class="st2" d="M93.1,27.6c-5.8-5.9-15.3-6-21.2-0.2h0C67,32.2,66,39.7,69.4,45.6l-1.5,4.9c-0.2,0.5,0,1.1,0.4,1.5
		c0.4,0.4,1,0.5,1.5,0.4l4.9-1.4c2.4,1.4,5.1,2.1,7.7,2.1c3.8,0,7.7-1.5,10.5-4.3C98.8,43,98.9,33.5,93.1,27.6z M90.8,46.7
		c-4,4-10.4,4.6-15.1,1.4c-0.2-0.2-0.5-0.3-0.8-0.3c-0.1,0-0.3,0-0.4,0.1l-2.9,0.8l0.9-2.9c0.1-0.4,0.1-0.9-0.2-1.2
		c-3.1-4.8-2.3-11.1,1.7-15.1h0c4.7-4.6,12.4-4.6,17,0.2C95.6,34.4,95.5,42.1,90.8,46.7z"/>
</g>
</svg>
