<?xml version="1.0" encoding="UTF-8" standalone="no"?><!DOCTYPE svg PUBLIC "-//W3C//DTD SVG 1.1//EN" "http://www.w3.org/Graphics/SVG/1.1/DTD/svg11.dtd"><svg width="100%" height="100%" viewBox="0 0 70 70" version="1.1" xmlns="http://www.w3.org/2000/svg" xmlns:xlink="http://www.w3.org/1999/xlink" xml:space="preserve" style="fill-rule:evenodd;clip-rule:evenodd;stroke-linejoin:round;stroke-miterlimit:1.41421;"><path d="M24.669,19.519c-1.025,0.825 -1.538,1.903 -1.538,3.233c0,1.363 0.812,2.713 2.437,4.051c-3.372,1.837 -5.058,3.87 -5.058,6.099c0,1.353 0.554,2.441 1.661,3.265c1.108,0.824 2.564,1.236 4.369,1.236c1.968,0 3.578,-0.498 4.829,-1.494c1.251,-0.996 1.877,-2.273 1.877,-3.831c0,-1.573 -1.022,-3.127 -3.064,-4.66l-0.517,-0.394c2.698,-1.149 4.048,-2.811 4.048,-4.987c0,-1.108 -0.467,-2.011 -1.403,-2.709c-0.935,-0.697 -2.149,-1.047 -3.642,-1.047c-1.641,0.001 -2.974,0.413 -3.999,1.238Zm6.116,13.1c0,0.992 -0.361,1.834 -1.083,2.527c-0.722,0.693 -1.6,1.039 -2.633,1.039c-1.1,0 -2.057,-0.349 -2.873,-1.045c-0.817,-0.697 -1.225,-1.517 -1.225,-2.459c0,-1.976 1.181,-3.652 3.544,-5.029l0.763,0.541c2.338,1.655 3.507,3.131 3.507,4.426Zm0.529,-10.242c0,1.68 -0.886,2.959 -2.658,3.836l-0.689,-0.566c-1.616,-1.336 -2.424,-2.516 -2.424,-3.541c0,-0.729 0.264,-1.346 0.793,-1.851c0.53,-0.504 1.179,-0.756 1.951,-0.756c0.877,0 1.601,0.271 2.171,0.812c0.571,0.541 0.856,1.23 0.856,2.066Z" style="fill:#240f6e;fill-rule:nonzero;"/><path d="M40.98,37.403c2.642,0 4.922,-1.216 6.842,-3.648c1.92,-2.432 2.879,-5.326 2.879,-8.681c0,-2.117 -0.48,-3.778 -1.44,-4.984c-0.959,-1.205 -2.284,-1.808 -3.974,-1.808c-2.592,0 -4.838,1.232 -6.737,3.697c-1.899,2.465 -2.848,5.375 -2.848,8.73c0,2.043 0.477,3.669 1.433,4.879c0.956,1.21 2.237,1.815 3.845,1.815Zm-0.824,-14.624c1.189,-2.071 2.58,-3.107 4.171,-3.107c2.461,0 3.692,2.002 3.692,6.005c0,2.731 -0.608,5.141 -1.822,7.229c-1.214,2.087 -2.616,3.131 -4.208,3.131c-2.411,0 -3.617,-2.001 -3.617,-6.004c0,-2.765 0.594,-5.183 1.784,-7.254Z" style="fill:#240f6e;fill-rule:nonzero;"/><path d="M25.456,47.289l0,-2.296l1.956,-3.602l-1.347,0l-1.23,2.429l-1.223,-2.429l-1.355,0l1.956,3.643l0,2.255l1.243,0Z" style="fill:#240f6e;fill-rule:nonzero;"/><path d="M31.551,42.416l0,-1.025l-3.397,0l0,5.898l3.397,0l0,-1.033l-2.146,0l0,-1.521l1.997,0l0,-1.024l-1.997,0l0,-1.295l2.146,0Z" style="fill:#240f6e;fill-rule:nonzero;"/><path d="M34.121,41.367l-2.082,5.922l1.347,0l0.428,-1.404l2.15,0l0.428,1.404l1.347,0l-2.09,-5.922l-1.528,0Zm0.008,3.469c0.419,-1.358 0.673,-2.209 0.762,-2.553c0.022,0.096 0.057,0.228 0.107,0.395c0.05,0.167 0.272,0.886 0.668,2.158l-1.537,0l0,0Z" style="fill:#240f6e;fill-rule:nonzero;"/><path d="M42.269,44.084c0.191,-0.271 0.287,-0.579 0.287,-0.926c0,-0.594 -0.193,-1.037 -0.577,-1.329c-0.385,-0.292 -0.978,-0.438 -1.779,-0.438l-1.719,0l0,5.898l1.251,0l0,-2.263l0.665,0l1.408,2.263l1.388,0c-0.269,-0.388 -0.847,-1.244 -1.735,-2.57c0.35,-0.153 0.62,-0.365 0.811,-0.635Zm-1.258,-0.272c-0.189,0.131 -0.481,0.197 -0.876,0.197l-0.403,0l0,-1.593l0.379,0c0.403,0 0.701,0.059 0.893,0.177c0.192,0.119 0.289,0.318 0.289,0.597c0,0.283 -0.094,0.49 -0.282,0.622Z" style="fill:#240f6e;fill-rule:nonzero;"/><path d="M45.97,46.179c-0.146,0.105 -0.357,0.158 -0.631,0.158c-0.228,0 -0.481,-0.037 -0.756,-0.109c-0.276,-0.073 -0.613,-0.198 -1.011,-0.375l0,1.162c0.484,0.236 1.041,0.354 1.67,0.354c0.683,0 1.216,-0.153 1.599,-0.459c0.384,-0.307 0.575,-0.727 0.575,-1.259c0,-0.385 -0.102,-0.71 -0.306,-0.974c-0.204,-0.266 -0.582,-0.53 -1.134,-0.793c-0.416,-0.199 -0.681,-0.337 -0.792,-0.413c-0.112,-0.077 -0.193,-0.156 -0.244,-0.239c-0.051,-0.082 -0.077,-0.178 -0.077,-0.288c0,-0.178 0.063,-0.321 0.19,-0.432c0.126,-0.11 0.307,-0.165 0.544,-0.165c0.199,0 0.402,0.026 0.607,0.077c0.206,0.051 0.466,0.141 0.781,0.27l0.404,-0.972c-0.304,-0.132 -0.595,-0.234 -0.874,-0.307c-0.278,-0.073 -0.57,-0.109 -0.877,-0.109c-0.624,0 -1.113,0.15 -1.466,0.448c-0.354,0.299 -0.531,0.709 -0.531,1.23c0,0.277 0.054,0.519 0.162,0.726c0.107,0.207 0.251,0.389 0.431,0.545c0.18,0.156 0.451,0.318 0.811,0.488c0.385,0.183 0.639,0.316 0.764,0.4c0.125,0.083 0.22,0.17 0.285,0.259c0.064,0.091 0.097,0.193 0.097,0.309c-0.001,0.207 -0.074,0.363 -0.221,0.468Z" style="fill:#240f6e;fill-rule:nonzero;"/><g><path d="M66.269,39.468c1.531,-0.836 2.009,-2.918 2.009,-2.918c0,0 -2.365,-0.24 -3.79,0.868c-0.446,0.347 -0.858,0.953 -1.179,1.525c0.243,-1.165 0.406,-2.356 0.485,-3.566c0.555,-0.096 1.809,-0.413 3.056,-1.408c1.336,-1.067 1.442,-3.158 1.442,-3.158c0,0 -2.323,0.171 -3.509,1.483c-0.383,0.424 -0.683,1.107 -0.897,1.727c0.061,-1.279 0.021,-2.548 -0.104,-3.795c0.526,-0.192 1.671,-0.712 2.695,-1.874c1.107,-1.256 0.855,-3.292 0.855,-3.292c0,0 -2.214,0.56 -3.135,2.026c-0.303,0.485 -0.477,1.212 -0.577,1.856c-0.192,-1.293 -0.473,-2.561 -0.833,-3.789c0.445,-0.249 1.514,-0.948 2.337,-2.299c0.857,-1.402 0.267,-3.323 0.267,-3.323c0,0 -2.041,0.918 -2.682,2.49c-0.237,0.586 -0.263,1.443 -0.233,2.129c-0.437,-1.317 -0.963,-2.586 -1.557,-3.796c0.365,-0.291 1.319,-1.155 1.904,-2.647c0.587,-1.497 -0.31,-3.252 -0.31,-3.252c0,0 -1.812,1.233 -2.163,2.859c-0.141,0.656 0.014,1.58 0.173,2.258c-0.68,-1.292 -1.438,-2.509 -2.251,-3.631c0.307,-0.349 1.072,-1.343 1.38,-2.871c0.31,-1.546 -0.851,-3.086 -0.851,-3.086c0,0 -1.542,1.499 -1.603,3.128c-0.024,0.641 0.266,1.479 0.531,2.102c-0.89,-1.151 -1.835,-2.191 -2.81,-3.097c0.236,-0.386 0.808,-1.476 0.845,-3.009c0.038,-1.544 -1.348,-2.833 -1.348,-2.833c0,0 -1.231,1.708 -1.012,3.291c0.09,0.655 0.552,1.461 0.925,2.023c-0.347,-0.301 -0.698,-0.585 -1.048,-0.851c-0.792,-0.638 -1.572,-1.201 -2.33,-1.702c0.139,-0.332 0.573,-1.535 0.334,-3.119c-0.227,-1.497 -1.784,-2.504 -1.784,-2.504c0,0 -0.899,1.858 -0.417,3.348c0.228,0.707 0.96,1.521 1.426,1.989c-1.417,-0.899 -2.743,-1.57 -3.903,-2.071c0.072,-0.307 0.308,-1.568 -0.205,-3.093c-0.473,-1.406 -2.847,-1.881 -2.847,-1.881c0,0 0.151,1.713 0.868,3.07c0.363,0.688 1.306,1.396 1.819,1.749c-0.797,-0.329 -1.504,-0.577 -2.097,-0.763c-0.178,-0.225 -1.05,-1.263 -2.117,-1.446c-0.852,-0.144 -2.285,0.405 -2.285,0.405c-0.001,0 0.687,0.936 2.075,1.413c0.931,0.32 1.958,-0.125 2.268,-0.277c0.719,0.248 1.615,0.591 2.634,1.065c-0.598,-0.103 -1.815,-0.26 -2.578,-0.012c-1.456,0.478 -2.412,2.261 -2.412,2.261c0,0 1.695,0.652 3.013,-0.033c1.408,-0.729 2.111,-1.782 2.286,-2.07c1.141,0.549 2.425,1.262 3.777,2.186c-0.627,-0.212 -1.658,-0.501 -2.383,-0.398c-1.548,0.223 -2.825,1.845 -2.825,1.845c0,0 1.59,0.956 3.035,0.502c1.466,-0.46 2.347,-1.324 2.627,-1.633c0.599,0.425 1.21,0.89 1.828,1.405c0.549,0.428 1.095,0.902 1.633,1.417c-0.588,-0.324 -1.594,-0.812 -2.352,-0.836c-1.596,-0.053 -3.166,1.353 -3.166,1.353c0,0 1.428,1.242 2.961,1.041c1.569,-0.204 2.611,-0.928 2.937,-1.183c0.969,0.974 1.902,2.081 2.769,3.299c-0.546,-0.426 -1.373,-0.993 -2.063,-1.137c-1.595,-0.336 -3.419,0.798 -3.419,0.798c0,0 1.213,1.501 2.788,1.571c1.544,0.07 2.686,-0.424 3.106,-0.639c0.755,1.116 1.453,2.317 2.075,3.586c-0.47,-0.503 -1.124,-1.111 -1.726,-1.352c-1.543,-0.619 -3.579,0.197 -3.579,0.197c0,0 0.954,1.723 2.524,2.072c1.477,0.331 2.675,0.073 3.177,-0.074c0.559,1.235 1.044,2.53 1.437,3.867c-0.383,-0.586 -0.93,-1.305 -1.489,-1.652c-1.439,-0.897 -3.63,-0.438 -3.63,-0.438c0,0 0.653,1.901 2.169,2.531c1.425,0.593 2.676,0.547 3.207,0.488c0.345,1.34 0.595,2.719 0.736,4.124c-0.281,-0.666 -0.714,-1.526 -1.23,-1.989c-1.289,-1.155 -3.573,-1.082 -3.573,-1.082c0,0 0.321,2.026 1.733,2.928c1.336,0.855 2.608,1.025 3.146,1.058c0.085,1.306 0.073,2.629 -0.051,3.962c-0.169,-0.693 -0.44,-1.538 -0.845,-2.052c-1.091,-1.391 -3.398,-1.721 -3.398,-1.721c0,0 -0.038,2.092 1.222,3.249c1.159,1.066 2.372,1.471 2.929,1.61c-0.131,1.278 -0.359,2.532 -0.67,3.749c-0.048,-0.723 -0.173,-1.607 -0.485,-2.189c-0.849,-1.591 -3.109,-2.332 -3.109,-2.332c0,0 -0.409,2.096 0.651,3.481c0.965,1.261 2.093,1.882 2.637,2.128c-0.355,1.175 -0.785,2.316 -1.281,3.416c0.07,-0.708 0.087,-1.548 -0.111,-2.15c-0.573,-1.749 -2.712,-2.894 -2.712,-2.894c0,0 -0.781,2.035 0.038,3.613c0.73,1.406 1.724,2.225 2.238,2.583c-0.539,1.068 -1.137,2.093 -1.783,3.066c0.182,-0.679 0.326,-1.467 0.239,-2.076c-0.266,-1.859 -2.212,-3.388 -2.212,-3.388c0,0 -1.146,1.905 -0.602,3.638c0.476,1.52 1.314,2.514 1.774,2.971c-0.742,1.012 -1.529,1.958 -2.351,2.829c0.319,-0.669 0.635,-1.485 0.657,-2.146c0.061,-1.915 -1.625,-3.796 -1.625,-3.796c0,0 -1.488,1.712 -1.248,3.548c0.215,1.649 0.906,2.811 1.28,3.337c-0.922,0.889 -1.875,1.685 -2.84,2.375c0.448,-0.622 0.926,-1.404 1.065,-2.075c0.401,-1.913 -0.959,-4.103 -0.959,-4.103c0,0 -1.798,1.456 -1.884,3.345c-0.076,1.682 0.407,2.966 0.69,3.567c-0.37,0.232 -0.74,0.45 -1.111,0.651c-0.671,0.392 -1.327,0.739 -1.967,1.051c0.527,-0.527 1.079,-1.176 1.323,-1.781c0.741,-1.852 -0.237,-4.292 -0.237,-4.292c0,0 -2.066,1.143 -2.486,3.026c-0.367,1.641 -0.128,2.995 0.05,3.665c-1.174,0.501 -2.269,0.877 -3.253,1.16c0.616,-0.433 1.272,-0.979 1.618,-1.537c1.074,-1.73 0.523,-4.356 0.523,-4.356c0,0 -2.278,0.783 -3.034,2.602c-0.653,1.571 -0.659,2.964 -0.601,3.674c-1.672,0.378 -2.824,0.518 -3.27,0.563c-1.735,-0.276 -3.068,-0.077 -3.068,-0.077c2.214,6.247 10.598,7.478 10.598,7.478c-0.807,-3.963 -3.041,-5.872 -5.252,-6.775c0.572,-0.114 1.231,-0.263 1.972,-0.46c0.359,0.599 1.186,1.748 2.669,2.653c1.681,1.026 3.986,0.319 3.986,0.319c0,0 -1.1,-2.449 -2.986,-3.215c-0.523,-0.213 -1.227,-0.283 -1.894,-0.292c0.946,-0.318 1.97,-0.72 3.05,-1.225c0.444,0.514 1.441,1.491 3.034,2.115c1.798,0.704 3.902,-0.372 3.902,-0.372c0,0 -1.479,-2.173 -3.429,-2.592c-0.551,-0.119 -1.257,-0.063 -1.912,0.046c0.367,-0.197 0.738,-0.407 1.113,-0.63c0.591,-0.327 1.186,-0.697 1.775,-1.104c0.527,0.424 1.647,1.179 3.267,1.506c1.854,0.374 3.702,-1.021 3.702,-1.021c0,0 -1.797,-1.848 -3.752,-1.92c-0.529,-0.02 -1.171,0.139 -1.763,0.344c0.835,-0.676 1.655,-1.428 2.449,-2.246c0.566,0.318 1.789,0.875 3.439,0.916c1.852,0.045 3.397,-1.616 3.397,-1.616c0,0 -2.049,-1.479 -3.947,-1.216c-0.563,0.078 -1.218,0.385 -1.793,0.718c0.746,-0.86 1.457,-1.78 2.125,-2.753c0.571,0.207 1.882,0.573 3.543,0.321c1.796,-0.272 3.006,-2.137 3.006,-2.137c0,0 -2.23,-1.078 -4.017,-0.502c-0.581,0.187 -1.22,0.659 -1.746,1.116c0.629,-1.018 1.209,-2.086 1.725,-3.195c0.588,0.102 1.915,0.23 3.471,-0.294c1.688,-0.568 2.537,-2.575 2.537,-2.575c0,0 -2.335,-0.661 -3.962,0.199c-0.518,0.276 -1.047,0.826 -1.474,1.348c0.448,-1.104 0.834,-2.244 1.143,-3.415c0.59,-0.002 1.886,-0.106 3.293,-0.872Z" style="fill:#007db3;fill-rule:nonzero;"/><path d="M31.932,60.893c-0.447,-0.045 -1.598,-0.184 -3.27,-0.563c0.058,-0.709 0.053,-2.102 -0.601,-3.674c-0.755,-1.818 -3.034,-2.602 -3.034,-2.602c0,0 -0.551,2.627 0.522,4.357c0.345,0.557 1.003,1.103 1.618,1.536c-0.983,-0.283 -2.078,-0.658 -3.252,-1.16c0.178,-0.67 0.417,-2.023 0.05,-3.664c-0.419,-1.883 -2.486,-3.027 -2.486,-3.027c0,0 -0.978,2.441 -0.237,4.293c0.243,0.605 0.795,1.254 1.323,1.781c-0.64,-0.312 -1.297,-0.659 -1.969,-1.052c-0.369,-0.2 -0.739,-0.418 -1.109,-0.651c0.284,-0.6 0.765,-1.884 0.69,-3.566c-0.084,-1.889 -1.884,-3.345 -1.884,-3.345c0,0 -1.36,2.19 -0.959,4.103c0.14,0.671 0.616,1.453 1.064,2.075c-0.963,-0.691 -1.916,-1.487 -2.838,-2.376c0.374,-0.526 1.065,-1.688 1.279,-3.336c0.24,-1.837 -1.249,-3.549 -1.249,-3.549c0,0 -1.685,1.881 -1.623,3.796c0.021,0.661 0.337,1.478 0.656,2.147c-0.822,-0.87 -1.609,-1.818 -2.35,-2.829c0.459,-0.458 1.297,-1.452 1.773,-2.972c0.545,-1.732 -0.601,-3.637 -0.601,-3.637c0,0 -1.948,1.529 -2.213,3.388c-0.087,0.608 0.057,1.397 0.239,2.075c-0.645,-0.973 -1.243,-1.997 -1.783,-3.066c0.514,-0.357 1.509,-1.177 2.238,-2.582c0.82,-1.579 0.039,-3.613 0.039,-3.613c0,0 -2.14,1.144 -2.713,2.894c-0.197,0.602 -0.181,1.442 -0.112,2.15c-0.495,-1.1 -0.925,-2.241 -1.28,-3.417c0.544,-0.245 1.672,-0.867 2.637,-2.128c1.06,-1.384 0.652,-3.48 0.652,-3.48c0,0 -2.26,0.74 -3.109,2.331c-0.313,0.582 -0.437,1.467 -0.484,2.19c-0.313,-1.218 -0.541,-2.471 -0.672,-3.75c0.557,-0.138 1.769,-0.543 2.929,-1.61c1.26,-1.157 1.222,-3.248 1.222,-3.248c0,0 -2.306,0.33 -3.397,1.721c-0.405,0.513 -0.677,1.358 -0.845,2.05c-0.124,-1.331 -0.136,-2.655 -0.051,-3.961c0.538,-0.033 1.809,-0.203 3.146,-1.058c1.411,-0.902 1.732,-2.928 1.732,-2.928c0,0 -2.283,-0.073 -3.573,1.082c-0.516,0.464 -0.949,1.323 -1.23,1.99c0.141,-1.405 0.391,-2.785 0.737,-4.124c0.531,0.059 1.781,0.105 3.206,-0.488c1.516,-0.63 2.17,-2.532 2.17,-2.532c0,0 -2.191,-0.459 -3.632,0.438c-0.558,0.347 -1.104,1.066 -1.487,1.652c0.393,-1.338 0.878,-2.631 1.437,-3.867c0.503,0.147 1.7,0.405 3.176,0.075c1.571,-0.35 2.525,-2.073 2.525,-2.073c0,0 -2.036,-0.816 -3.581,-0.196c-0.6,0.24 -1.254,0.849 -1.725,1.35c0.622,-1.269 1.32,-2.469 2.075,-3.585c0.422,0.215 1.563,0.709 3.107,0.639c1.574,-0.07 2.788,-1.571 2.788,-1.571c0,0 -1.825,-1.134 -3.42,-0.798c-0.688,0.145 -1.516,0.712 -2.062,1.137c0.866,-1.218 1.799,-2.324 2.769,-3.297c0.325,0.254 1.367,0.977 2.936,1.182c1.533,0.2 2.962,-1.042 2.962,-1.042c0,0 -1.57,-1.405 -3.168,-1.352c-0.756,0.024 -1.762,0.51 -2.35,0.835c0.536,-0.515 1.083,-0.988 1.634,-1.417c0.617,-0.514 1.227,-0.979 1.827,-1.405c0.28,0.31 1.161,1.174 2.627,1.633c1.444,0.454 3.034,-0.501 3.034,-0.501c0,0 -1.277,-1.623 -2.826,-1.845c-0.723,-0.103 -1.755,0.186 -2.382,0.398c1.354,-0.925 2.636,-1.638 3.777,-2.187c0.175,0.289 0.878,1.341 2.286,2.07c1.318,0.686 3.013,0.033 3.013,0.033c0,0 -0.956,-1.783 -2.413,-2.261c-0.761,-0.248 -1.978,-0.091 -2.576,0.012c1.019,-0.474 1.914,-0.816 2.633,-1.064c0.311,0.151 1.338,0.596 2.269,0.276c1.388,-0.477 2.075,-1.412 2.075,-1.412c0,0 -1.433,-0.55 -2.286,-0.405c-1.066,0.182 -1.938,1.22 -2.117,1.445c-0.593,0.187 -1.3,0.434 -2.097,0.764c0.513,-0.352 1.456,-1.061 1.819,-1.749c0.719,-1.357 0.868,-3.07 0.868,-3.07c0,0 -2.374,0.474 -2.847,1.881c-0.513,1.524 -0.275,2.785 -0.205,3.092c-1.159,0.501 -2.486,1.172 -3.902,2.071c0.465,-0.467 1.199,-1.282 1.426,-1.989c0.481,-1.49 -0.417,-3.348 -0.417,-3.348c0,0 -1.557,1.008 -1.783,2.505c-0.24,1.583 0.194,2.787 0.333,3.119c-0.759,0.5 -1.539,1.063 -2.33,1.702c-0.351,0.265 -0.701,0.55 -1.049,0.85c0.373,-0.561 0.835,-1.368 0.926,-2.023c0.22,-1.582 -1.012,-3.291 -1.012,-3.291c0,0 -1.386,1.289 -1.349,2.834c0.038,1.532 0.609,2.623 0.845,3.009c-0.974,0.906 -1.92,1.946 -2.808,3.097c0.264,-0.623 0.554,-1.462 0.53,-2.103c-0.061,-1.629 -1.603,-3.128 -1.603,-3.128c0,0 -1.163,1.541 -0.851,3.086c0.307,1.528 1.073,2.522 1.379,2.871c-0.813,1.122 -1.57,2.338 -2.25,3.631c0.16,-0.679 0.315,-1.602 0.173,-2.258c-0.35,-1.626 -2.163,-2.859 -2.163,-2.859c0,0 -0.897,1.754 -0.309,3.252c0.583,1.492 1.537,2.356 1.902,2.647c-0.593,1.21 -1.119,2.479 -1.556,3.796c0.03,-0.686 0.004,-1.543 -0.234,-2.129c-0.64,-1.572 -2.681,-2.49 -2.681,-2.49c0,0 -0.591,1.921 0.266,3.323c0.824,1.351 1.893,2.05 2.339,2.299c-0.361,1.229 -0.642,2.495 -0.834,3.788c-0.101,-0.643 -0.274,-1.371 -0.578,-1.855c-0.92,-1.466 -3.135,-2.026 -3.135,-2.026c0,0 -0.252,2.036 0.855,3.292c1.024,1.162 2.169,1.682 2.695,1.874c-0.125,1.247 -0.163,2.515 -0.104,3.795c-0.214,-0.62 -0.514,-1.304 -0.897,-1.727c-1.186,-1.312 -3.509,-1.483 -3.509,-1.483c0,0 0.106,2.091 1.442,3.158c1.246,0.996 2.501,1.311 3.056,1.408c0.08,1.21 0.244,2.401 0.485,3.566c-0.32,-0.572 -0.733,-1.178 -1.179,-1.525c-1.425,-1.108 -3.789,-0.868 -3.789,-0.868c0,0 0.478,2.082 2.009,2.918c1.406,0.766 2.702,0.87 3.292,0.872c0.309,1.171 0.694,2.312 1.143,3.415c-0.427,-0.522 -0.955,-1.072 -1.474,-1.348c-1.628,-0.859 -3.961,-0.198 -3.961,-0.198c0,0 0.848,2.006 2.534,2.574c1.559,0.524 2.885,0.396 3.472,0.294c0.516,1.11 1.097,2.178 1.726,3.195c-0.527,-0.458 -1.167,-0.929 -1.746,-1.115c-1.787,-0.577 -4.016,0.501 -4.016,0.501c0,0 1.21,1.866 3.004,2.137c1.66,0.252 2.973,-0.114 3.544,-0.321c0.667,0.973 1.379,1.893 2.125,2.753c-0.576,-0.332 -1.231,-0.64 -1.794,-0.718c-1.898,-0.262 -3.947,1.216 -3.947,1.216c0,0 1.546,1.661 3.398,1.616c1.65,-0.04 2.872,-0.598 3.44,-0.916c0.793,0.818 1.612,1.57 2.447,2.246c-0.592,-0.205 -1.234,-0.364 -1.762,-0.344c-1.954,0.072 -3.752,1.92 -3.752,1.92c0,0 1.847,1.395 3.702,1.022c1.621,-0.327 2.739,-1.082 3.265,-1.507c0.592,0.407 1.184,0.778 1.777,1.104c0.375,0.223 0.745,0.433 1.112,0.63c-0.653,-0.109 -1.36,-0.165 -1.912,-0.046c-1.95,0.419 -3.428,2.593 -3.428,2.593c0,0 2.104,1.075 3.901,0.371c1.594,-0.624 2.59,-1.6 3.034,-2.115c1.081,0.505 2.105,0.907 3.051,1.225c-0.667,0.009 -1.371,0.079 -1.894,0.292c-1.886,0.766 -2.987,3.215 -2.987,3.215c0,0 2.305,0.707 3.986,-0.319c1.483,-0.905 2.31,-2.054 2.669,-2.652c0.741,0.196 1.4,0.345 1.972,0.46c-2.21,0.902 -4.445,2.811 -5.252,6.775c0,0 8.384,-1.232 10.599,-7.479c0,0 -1.333,-0.198 -3.068,0.077Z" style="fill:#007db3;fill-rule:nonzero;"/></g></svg>