<?xml version="1.0" encoding="UTF-8" standalone="no"?><!DOCTYPE svg PUBLIC "-//W3C//DTD SVG 1.1//EN" "http://www.w3.org/Graphics/SVG/1.1/DTD/svg11.dtd"><svg width="100%" height="100%" viewBox="0 0 70 70" version="1.1" xmlns="http://www.w3.org/2000/svg" xmlns:xlink="http://www.w3.org/1999/xlink" xml:space="preserve" style="fill-rule:evenodd;clip-rule:evenodd;stroke-linejoin:round;stroke-miterlimit:1.41421;"><rect x="27.742" y="10.946" width="4.61" height="16.695" style="fill:#240f6e;"/><path d="M44.71,27.641l-5.378,-8.28l-1.439,0l4.811,-8.415l-3.574,0l-4.871,8.415l5.287,8.28l5.164,0Z" style="fill:#240f6e;fill-rule:nonzero;"/><path d="M32.277,34.426l2.723,4.948l2.723,-4.948c10.396,-0.964 18.432,-7.367 18.432,-15.127c0,-8.427 -9.471,-15.259 -21.155,-15.259c-11.683,0 -21.155,6.832 -21.155,15.259c0,7.76 8.036,14.163 18.432,15.127Zm2.723,-28.7c10.735,0 19.469,6.089 19.469,13.573c0,6.773 -7.266,12.555 -16.902,13.449l-0.89,0.082l-0.431,0.783l-1.246,2.264l-1.246,-2.263l-0.431,-0.784l-0.89,-0.082c-9.636,-0.894 -16.903,-6.675 -16.903,-13.449c0,-7.484 8.734,-13.573 19.47,-13.573Z" style="fill:#007db3;fill-rule:nonzero;"/><path d="M20.906,51.662c-1.542,-0.574 -2.645,-2.057 -2.645,-3.796c0,-2.236 1.819,-4.055 4.054,-4.055c0.502,0 0.982,0.096 1.426,0.265c-0.84,-1.554 -2.483,-2.609 -4.373,-2.609c-2.741,0 -4.965,2.223 -4.965,4.966l0,4.242c0.917,1.087 1.47,2.487 1.47,4.016l0,1.694l1.217,0c0.136,-2.258 1.71,-4.134 3.816,-4.723Z" style="fill:#007db3;fill-rule:nonzero;"/><circle cx="19.368" cy="36.946" r="3.694" style="fill:#007db3;"/><path d="M55.559,46.433c0,-2.743 -2.225,-4.966 -4.968,-4.966c-1.895,0 -3.541,1.063 -4.378,2.624c0.457,-0.178 0.951,-0.279 1.469,-0.279c2.235,0 4.053,1.818 4.053,4.054c0,1.739 -1.103,3.222 -2.644,3.796c2.107,0.589 3.682,2.465 3.819,4.724l1.217,0l0,-1.694c0,-1.509 0.538,-2.895 1.432,-3.975l0,-4.284l0,0Z" style="fill:#007db3;fill-rule:nonzero;"/><circle cx="50.591" cy="36.946" r="3.694" style="fill:#007db3;"/><path d="M13.785,50.903c-1.028,-1.127 -2.509,-1.834 -4.155,-1.834c-3.104,0 -5.621,2.517 -5.621,5.623l0,11.268l11.246,0l0,-8.956l0,-0.618l0,-1.694c0,-1.092 -0.313,-2.111 -0.852,-2.973c-0.181,-0.291 -0.388,-0.565 -0.618,-0.816Z" style="fill:#007db3;fill-rule:nonzero;"/><circle cx="9.63" cy="43.981" r="4.183" style="fill:#007db3;"/><path d="M24.955,52.917c-0.196,-0.136 -0.403,-0.255 -0.618,-0.36c-0.612,-0.298 -1.296,-0.471 -2.022,-0.471c-2.442,0 -4.437,1.898 -4.602,4.299c-0.007,0.106 -0.016,0.212 -0.016,0.319l0,9.255l9.238,0l0,-9.254c0,-1.569 -0.785,-2.953 -1.98,-3.788Z" style="fill:#007db3;fill-rule:nonzero;"/><path d="M24.107,44.939c-0.523,-0.321 -1.135,-0.51 -1.792,-0.51c-1.898,0 -3.437,1.54 -3.437,3.437c0,1.897 1.539,3.436 3.437,3.436c0.757,0 1.454,-0.248 2.021,-0.663c0.229,-0.167 0.438,-0.359 0.619,-0.576c0.495,-0.596 0.794,-1.361 0.794,-2.197c0,-0.869 -0.325,-1.661 -0.857,-2.266c-0.227,-0.258 -0.491,-0.481 -0.785,-0.661Z" style="fill:#007db3;fill-rule:nonzero;"/><path d="M34.998,49.069c-3.104,0 -5.621,2.517 -5.621,5.623l0,11.268l11.246,0l0,-11.268c0,-3.106 -2.519,-5.623 -5.625,-5.623Z" style="fill:#007db3;fill-rule:nonzero;"/><circle cx="34.998" cy="43.981" r="4.183" style="fill:#007db3;"/><path d="M47.683,52.086c-0.74,0 -1.437,0.179 -2.057,0.488c-0.216,0.108 -0.422,0.231 -0.617,0.37c-1.175,0.838 -1.943,2.208 -1.943,3.761l0,9.255l9.237,0l0,-8.956l0,-0.299c0,-0.108 -0.009,-0.214 -0.016,-0.319c-0.165,-2.402 -2.162,-4.3 -4.604,-4.3Z" style="fill:#007db3;fill-rule:nonzero;"/><path d="M44.247,47.866c0,0.816 0.286,1.565 0.761,2.154c0.18,0.223 0.389,0.422 0.618,0.594c0.574,0.43 1.284,0.687 2.056,0.687c1.898,0 3.435,-1.538 3.435,-3.435c0,-1.898 -1.537,-3.437 -3.435,-3.437c-0.675,0 -1.303,0.198 -1.835,0.535c-0.293,0.186 -0.558,0.414 -0.782,0.679c-0.509,0.599 -0.818,1.375 -0.818,2.223Z" style="fill:#007db3;fill-rule:nonzero;"/><path d="M60.366,49.069c-1.664,0 -3.159,0.724 -4.189,1.874c-0.23,0.258 -0.437,0.535 -0.618,0.832c-0.516,0.85 -0.814,1.849 -0.814,2.916l0,11.268l11.246,0l0,-11.268c0,-3.105 -2.52,-5.622 -5.625,-5.622Z" style="fill:#007db3;fill-rule:nonzero;"/><circle cx="60.366" cy="43.981" r="4.183" style="fill:#007db3;"/></svg>