<?xml version="1.0" encoding="UTF-8" standalone="no"?><!DOCTYPE svg PUBLIC "-//W3C//DTD SVG 1.1//EN" "http://www.w3.org/Graphics/SVG/1.1/DTD/svg11.dtd"><svg width="100%" height="100%" viewBox="0 0 70 70" version="1.1" xmlns="http://www.w3.org/2000/svg" xmlns:xlink="http://www.w3.org/1999/xlink" xml:space="preserve" style="fill-rule:evenodd;clip-rule:evenodd;stroke-linejoin:round;stroke-miterlimit:1.41421;"><path d="M62.733,19.833l-1.425,1.978c1.843,3.664 2.943,7.762 3.103,12.098l-13.094,0c-0.133,-4.974 -1.154,-9.804 -2.999,-14.284c0.681,-0.239 1.354,-0.498 2.022,-0.773l-0.398,-0.552l-0.369,-0.464l-0.018,-0.023l-0.018,-0.024c-0.182,-0.247 -0.348,-0.502 -0.503,-0.762c-0.53,0.21 -1.064,0.413 -1.603,0.598c-2.095,-4.39 -5.004,-8.39 -8.605,-11.819c3.44,0.45 6.691,1.5 9.654,3.034c0.287,-0.678 0.654,-1.314 1.089,-1.896c-4.053,-2.115 -8.619,-3.378 -13.458,-3.548l0,-0.001l-0.001,-0.002l-0.617,-0.016c-0.159,-0.005 -0.318,-0.011 -0.479,-0.011c-0.004,0 -0.009,0.001 -0.014,0.001c-0.005,0 -0.01,-0.001 -0.014,-0.001c-0.161,0 -0.32,0.005 -0.479,0.011l-0.617,0.016l-0.001,0.002l0,0.001c-8.621,0.303 -16.372,4.071 -21.906,9.953c-0.004,0.006 -0.01,0.008 -0.014,0.015c0,0 0,0.001 -0.001,0.002c-0.891,0.948 -1.724,1.953 -2.494,3.005c0.395,-0.052 0.796,-0.082 1.205,-0.082c0.515,0 1.018,0.045 1.51,0.127c0.284,-0.348 0.576,-0.691 0.876,-1.026c2.713,1.765 5.603,3.179 8.617,4.235c-0.771,1.87 -1.395,3.802 -1.873,5.78c0,0.005 0,0.011 0,0.017c0,0.909 -0.134,1.807 -0.398,2.668c-0.081,0.265 -0.176,0.525 -0.281,0.782c-0.251,1.657 -0.402,3.338 -0.447,5.038l-2.916,0l-1.573,2.181l4.489,0c0.123,4.624 1.026,9.117 2.634,13.327c-3.103,1.122 -6.069,2.628 -8.848,4.506c-4.087,-4.862 -6.631,-11.059 -6.88,-17.833l1.575,0l-1.574,-2.182l-0.001,0c0,0 0.001,-0.001 0.001,-0.001l-1.861,-2.579l-0.118,-0.15c-0.152,1.253 -0.23,2.528 -0.23,3.821c0,8.038 3.019,15.382 7.975,20.968c0.007,0.009 0.007,0.021 0.015,0.03c0.019,0.027 0.048,0.041 0.068,0.066c5.564,6.22 13.545,10.228 22.453,10.541l0,0l0.001,0.002l0.027,0l0,0.001l0.614,0.016c0.073,0.002 0.145,0.003 0.217,0.005c0.078,0.002 0.156,0.005 0.235,0.005c0.005,0 0.009,-0.001 0.014,-0.001c0.005,0 0.01,0.001 0.014,0.001c0.079,0 0.157,-0.004 0.236,-0.005c0.072,-0.002 0.144,-0.003 0.216,-0.005l0.614,-0.016l0.001,-0.001l0.027,0l0.001,-0.002l0,0c8.907,-0.313 16.888,-4.321 22.452,-10.541c0.021,-0.025 0.049,-0.039 0.069,-0.066c0.007,-0.009 0.007,-0.021 0.014,-0.03c4.957,-5.586 7.976,-12.93 7.976,-20.968c-0.001,-5.494 -1.411,-10.662 -3.887,-15.167Zm-28.844,-13.553l0.001,13.407c-3.142,-0.092 -6.227,-0.561 -9.207,-1.398c2.204,-4.523 5.315,-8.606 9.206,-12.009Zm-19.276,7.509c4.425,-4.258 10.174,-7.147 16.562,-7.983c-3.602,3.429 -6.51,7.429 -8.606,11.819c-2.778,-0.958 -5.444,-2.241 -7.956,-3.836Zm9.159,6.512c3.269,0.947 6.662,1.472 10.118,1.567l0.001,12.041l-13.027,0c0.134,-4.743 1.129,-9.343 2.908,-13.608Zm-2.908,15.79l13.027,0l0,10.951c-3.596,0.099 -7.119,0.66 -10.506,1.679c-1.535,-3.987 -2.398,-8.246 -2.521,-12.63Zm-6.912,19.467c2.581,-1.715 5.328,-3.094 8.199,-4.125c2.122,4.756 5.168,9.09 9.023,12.76c-6.71,-0.877 -12.715,-4.019 -17.222,-8.635Zm10.281,-4.808c3.117,-0.918 6.354,-1.43 9.658,-1.526l0.001,14.497c-4.167,-3.643 -7.435,-8.066 -9.659,-12.971Zm11.877,-44.47c3.892,3.403 7.002,7.486 9.207,12.009c-2.981,0.837 -6.065,1.306 -9.207,1.398l0,-13.407Zm0,15.588c3.456,-0.095 6.849,-0.62 10.118,-1.567c1.779,4.265 2.774,8.865 2.908,13.608l-13.027,0l0.001,-12.041Zm21.421,32.056c-1.217,-0.823 -2.472,-1.57 -3.757,-2.249l-1.288,1.787c1.218,0.632 2.408,1.328 3.563,2.096c-4.508,4.616 -10.513,7.757 -17.222,8.635c2.2,-2.095 4.135,-4.406 5.787,-6.888l-1.368,-1.897c-1.944,3.062 -4.337,5.864 -7.137,8.313l0,-14.497c0.978,0.028 1.95,0.098 2.916,0.199c-0.241,-0.47 -0.439,-0.957 -0.592,-1.458c-0.081,-0.265 -0.146,-0.534 -0.202,-0.805c-0.705,-0.056 -1.411,-0.099 -2.122,-0.118l0.001,-10.951l13.026,0c-0.003,0.096 -0.008,0.193 -0.011,0.289c0.755,0.166 1.476,0.426 2.149,0.767c0.019,-0.352 0.034,-0.703 0.044,-1.056l13.093,0c-0.249,6.774 -2.793,12.971 -6.88,17.833Z" style="fill:#007db3;fill-rule:nonzero;"/><path d="M56.891,5.575c-2.228,0 -4.212,1.043 -5.494,2.665c-0.418,0.529 -0.761,1.119 -1.013,1.756c-0.317,0.799 -0.494,1.669 -0.494,2.581c0,0.71 0.109,1.398 0.307,2.044c0.182,0.6 0.448,1.164 0.778,1.683c0.088,0.139 0.18,0.275 0.277,0.407l0.365,0.459l0.58,0.804l4.694,6.509l3.319,-4.603l1.288,-1.789l0.664,-0.921c0.131,-0.148 0.252,-0.304 0.369,-0.463c0.459,-0.625 0.821,-1.325 1.054,-2.085c0.199,-0.647 0.305,-1.334 0.305,-2.045c0,-3.867 -3.133,-7.002 -6.999,-7.002Zm-0.001,9.454c-0.749,0 -1.419,-0.335 -1.873,-0.861c-0.296,-0.345 -0.498,-0.771 -0.569,-1.241c-0.018,-0.121 -0.031,-0.244 -0.031,-0.371c0,-0.669 0.267,-1.275 0.698,-1.72c0.45,-0.464 1.078,-0.753 1.775,-0.753c1.366,0 2.473,1.107 2.473,2.473c0,0.668 -0.266,1.273 -0.696,1.718c-0.449,0.465 -1.079,0.755 -1.777,0.755Z" style="fill:#240f6e;fill-rule:nonzero;"/><path d="M11.026,18.613c-0.114,-0.006 -0.23,-0.009 -0.346,-0.009c-0.827,0 -1.619,0.144 -2.355,0.407c-2.708,0.967 -4.646,3.554 -4.646,6.595c0,0.711 0.108,1.398 0.306,2.045c0.121,0.396 0.278,0.777 0.466,1.14c0.172,0.332 0.37,0.65 0.59,0.95l0.364,0.459l0.722,1l1.659,2.3l1.464,2.03l1.429,1.982l1.43,-1.982l1.463,-2.03l2.379,-3.3c0.13,-0.149 0.252,-0.305 0.368,-0.464c0.46,-0.625 0.822,-1.325 1.055,-2.085c0.198,-0.646 0.305,-1.334 0.305,-2.045c0,-3.75 -2.948,-6.812 -6.653,-6.993Zm2.126,6.972c0,1.366 -1.108,2.473 -2.473,2.473c-1.366,0 -2.474,-1.107 -2.474,-2.473c0,-1.366 1.108,-2.473 2.474,-2.473c1.365,0 2.473,1.107 2.473,2.473Z" style="fill:#240f6e;fill-rule:nonzero;"/><path d="M50.865,39.54c-0.6,-0.375 -1.26,-0.662 -1.963,-0.842c-0.556,-0.142 -1.137,-0.217 -1.737,-0.217c-3.866,0 -7.001,3.134 -7.001,7.002c0,0.653 0.096,1.286 0.264,1.886c0.015,0.053 0.026,0.106 0.042,0.158c0.226,0.74 0.578,1.426 1.021,2.039c0.012,0.017 0.023,0.034 0.036,0.051l0.364,0.459l2.466,3.419l1.297,1.798l1.512,2.096l3.592,-4.984l1.205,-1.671l0.474,-0.658c0.13,-0.148 0.251,-0.304 0.368,-0.463c0.459,-0.626 0.822,-1.325 1.055,-2.086c0.198,-0.646 0.305,-1.333 0.305,-2.044c-0.001,-2.508 -1.32,-4.707 -3.3,-5.944Zm-3.701,3.449c0.391,0 0.759,0.093 1.088,0.255c0.82,0.403 1.385,1.244 1.385,2.219c0,1.366 -1.107,2.473 -2.473,2.473c-0.079,0 -0.157,-0.005 -0.235,-0.012c-1.255,-0.118 -2.238,-1.175 -2.238,-2.461c0,-1.366 1.107,-2.474 2.473,-2.474Z" style="fill:#240f6e;fill-rule:nonzero;"/></svg>