<?xml version="1.0" encoding="UTF-8" standalone="no"?><!DOCTYPE svg PUBLIC "-//W3C//DTD SVG 1.1//EN" "http://www.w3.org/Graphics/SVG/1.1/DTD/svg11.dtd"><svg width="100%" height="100%" viewBox="0 0 70 70" version="1.1" xmlns="http://www.w3.org/2000/svg" xmlns:xlink="http://www.w3.org/1999/xlink" xml:space="preserve" style="fill-rule:evenodd;clip-rule:evenodd;stroke-linejoin:round;stroke-miterlimit:1.41421;"><path d="M42.771,5.134c0.076,0 0.151,0.01 0.222,0.029c0.248,0.067 0.453,0.239 0.561,0.472l3.046,6.587c0.384,0.83 1.215,1.354 2.117,1.354c0.071,0 0.141,-0.004 0.212,-0.01l7.186,-0.653c0.019,-0.002 0.039,-0.004 0.059,-0.006l0.011,0l0.055,0c0.472,0.001 0.855,0.388 0.855,0.862c0,0.054 -0.004,0.093 -0.007,0.117c-0.003,0.027 -0.006,0.054 -0.008,0.081l-0.645,7.104c-0.089,0.983 0.449,1.915 1.345,2.329l6.585,3.044c0.234,0.109 0.406,0.313 0.472,0.562c0.067,0.248 0.02,0.511 -0.128,0.72l-4.18,5.93c-0.569,0.806 -0.569,1.883 -0.001,2.689l4.181,5.93c0.148,0.209 0.195,0.472 0.129,0.72c-0.067,0.248 -0.239,0.452 -0.473,0.559l-6.586,3.048c-0.895,0.414 -1.433,1.346 -1.344,2.328l0.656,7.222c0.023,0.257 -0.068,0.508 -0.247,0.688c-0.165,0.164 -0.382,0.254 -0.613,0.254c-0.025,0 -0.053,-0.001 -0.079,-0.004l-7.224,-0.653c-0.071,-0.006 -0.141,-0.009 -0.211,-0.009c-0.902,0 -1.732,0.523 -2.116,1.353l-3.046,6.583c-0.108,0.234 -0.313,0.406 -0.561,0.473c-0.071,0.019 -0.147,0.028 -0.223,0.028c-0.179,0 -0.351,-0.054 -0.497,-0.157l-5.931,-4.18c-0.403,-0.284 -0.874,-0.426 -1.344,-0.426c-0.471,0 -0.941,0.142 -1.345,0.426l-5.93,4.181c-0.145,0.102 -0.317,0.156 -0.497,0.156c-0.076,0 -0.153,-0.01 -0.221,-0.028c-0.249,-0.066 -0.454,-0.239 -0.561,-0.471l-3.046,-6.585c-0.384,-0.83 -1.215,-1.353 -2.117,-1.353c-0.07,0 -0.141,0.003 -0.211,0.009l-7.219,0.653c-0.031,0.003 -0.059,0.004 -0.084,0.004c-0.227,0 -0.45,-0.093 -0.61,-0.252c-0.182,-0.182 -0.272,-0.433 -0.249,-0.689l0.655,-7.223c0.09,-0.982 -0.449,-1.914 -1.344,-2.328l-6.584,-3.047c-0.234,-0.109 -0.407,-0.313 -0.473,-0.558c-0.066,-0.249 -0.02,-0.512 0.128,-0.723l4.18,-5.93c0.569,-0.806 0.569,-1.882 0,-2.688l-4.178,-5.928c-0.149,-0.211 -0.196,-0.474 -0.129,-0.725c0.066,-0.247 0.238,-0.451 0.471,-0.559l6.585,-3.044c0.895,-0.414 1.434,-1.347 1.345,-2.329l-0.656,-7.224c-0.023,-0.257 0.067,-0.507 0.249,-0.688c0.163,-0.163 0.379,-0.253 0.61,-0.253c0.026,0 0.058,0.002 0.095,0.004l7.207,0.656c0.071,0.006 0.142,0.009 0.212,0.009c0.903,0 1.733,-0.523 2.117,-1.354l3.045,-6.584c0.109,-0.234 0.312,-0.406 0.558,-0.471c0.004,-0.002 0.009,-0.003 0.013,-0.004c0.07,-0.019 0.139,-0.028 0.213,-0.028c0.18,0 0.352,0.054 0.498,0.157l5.929,4.18c0.403,0.284 0.874,0.427 1.345,0.427c0.47,0 0.941,-0.143 1.344,-0.427l5.931,-4.18c0.145,-0.103 0.316,-0.157 0.496,-0.157m0,-2.333c-0.653,0 -1.297,0.199 -1.841,0.583l-5.931,4.18l-5.93,-4.18c-0.544,-0.384 -1.188,-0.583 -1.842,-0.583c-0.276,0 -0.554,0.036 -0.827,0.111c-0.915,0.243 -1.674,0.883 -2.073,1.744l-3.046,6.586l-7.224,-0.656c-0.097,-0.008 -0.194,-0.013 -0.289,-0.013c-0.844,0 -1.658,0.334 -2.261,0.936c-0.67,0.669 -1.008,1.603 -0.922,2.549l0.655,7.225l-6.585,3.044c-0.86,0.399 -1.501,1.159 -1.746,2.075c-0.246,0.916 -0.071,1.893 0.475,2.669l4.179,5.93l-4.179,5.931c-0.546,0.773 -0.721,1.751 -0.476,2.668c0.246,0.915 0.886,1.674 1.747,2.073l6.585,3.047l-0.655,7.223c-0.086,0.945 0.252,1.88 0.922,2.55c0.603,0.601 1.417,0.936 2.261,0.936c0.095,0 0.192,-0.005 0.289,-0.014l7.224,-0.653l3.046,6.585c0.399,0.86 1.158,1.499 2.073,1.745c0.274,0.073 0.551,0.108 0.828,0.108c0.653,0 1.297,-0.2 1.842,-0.584l5.929,-4.18l5.931,4.18c0.545,0.384 1.188,0.584 1.841,0.584c0.277,0 0.555,-0.035 0.827,-0.108c0.917,-0.246 1.676,-0.885 2.075,-1.745l3.046,-6.585l7.224,0.653c0.098,0.009 0.193,0.014 0.288,0.014c0.845,0 1.659,-0.335 2.261,-0.936c0.67,-0.67 1.008,-1.605 0.923,-2.55l-0.656,-7.223l6.586,-3.047c0.861,-0.399 1.501,-1.158 1.746,-2.073c0.246,-0.917 0.071,-1.894 -0.474,-2.668l-4.181,-5.931l4.181,-5.93c0.545,-0.775 0.72,-1.753 0.475,-2.669c-0.246,-0.916 -0.886,-1.676 -1.747,-2.075l-6.586,-3.045l0.644,-7.104c0.017,-0.133 0.025,-0.271 0.025,-0.409c0,-1.763 -1.42,-3.19 -3.181,-3.196l-0.081,0c-0.089,0.001 -0.177,0.006 -0.263,0.016l-7.185,0.653l-3.046,-6.586c-0.399,-0.861 -1.158,-1.501 -2.075,-1.747c-0.272,-0.072 -0.549,-0.108 -0.826,-0.108Z" style="fill:#007db3;fill-rule:nonzero;"/><path d="M25.428,28.426l-5.561,0c-0.551,0 -1.003,0.45 -1.003,1.003l0,16.92c0,0.554 0.45,1.003 1.003,1.003l5.561,0c0.553,0 1.003,-0.449 1.003,-1.003l0,-16.92c0,-0.553 -0.451,-1.003 -1.003,-1.003Z" style="fill:#240f6e;fill-rule:nonzero;"/><path d="M48.632,27.859c-0.162,-0.027 -7.725,0 -7.725,0l1.056,-2.883c0.729,-1.99 0.257,-5.03 -1.765,-6.11c-0.659,-0.352 -1.579,-0.529 -2.321,-0.342c-0.425,0.107 -0.799,0.389 -1.022,0.766c-0.257,0.434 -0.23,0.94 -0.322,1.422c-0.231,1.221 -0.808,2.381 -1.701,3.252c-1.557,1.519 -6.395,5.901 -6.395,5.901l0,16.048l16.718,0c2.256,0.002 3.734,-2.517 2.621,-4.485c1.326,-0.849 1.78,-2.639 1.003,-4.012c1.327,-0.85 1.78,-2.639 1.003,-4.012c2.288,-1.466 1.523,-5.093 -1.15,-5.545Z" style="fill:#240f6e;fill-rule:nonzero;"/></svg>