<?xml version="1.0" encoding="UTF-8" standalone="no"?><!DOCTYPE svg PUBLIC "-//W3C//DTD SVG 1.1//EN" "http://www.w3.org/Graphics/SVG/1.1/DTD/svg11.dtd"><svg width="100%" height="100%" viewBox="0 0 32 32" version="1.1" xmlns="http://www.w3.org/2000/svg" xmlns:xlink="http://www.w3.org/1999/xlink" xml:space="preserve" style="fill-rule:evenodd;clip-rule:evenodd;stroke-linejoin:round;stroke-miterlimit:1.41421;"><g><path d="M20.242,15.56c0,-0.006 0,-0.011 0,-0.016l0,-2.271l1.119,-0.525l0,2.674c-0.168,0.094 -0.275,0.273 -0.275,0.467c0,0.191 0.104,0.367 0.268,0.462c-0.25,0.391 -0.402,1.273 -0.402,1.903c0,0.751 0.207,1.085 0.67,1.085c0.465,0 0.67,-0.334 0.67,-1.085c0,-0.63 -0.152,-1.513 -0.402,-1.903c0.164,-0.095 0.268,-0.271 0.268,-0.462c0,-0.199 -0.111,-0.383 -0.287,-0.475l0,-2.904l1.135,-0.374c0.037,-0.018 0.07,-0.041 0.1,-0.07c0.182,-0.182 0.295,-0.422 0.318,-0.677c0,-0.021 0,-0.043 0,-0.064c-0.023,-0.256 -0.137,-0.496 -0.318,-0.678c-0.031,-0.029 -0.066,-0.055 -0.105,-0.072l-6.072,-2.592c-0.041,-0.023 -0.088,-0.047 -0.135,-0.066c-0.217,-0.09 -0.497,-0.141 -0.79,-0.141c-0.314,0 -0.61,0.057 -0.832,0.16l-0.039,0.02l-6.128,2.561c-0.04,0.018 -0.076,0.043 -0.107,0.074c-0.204,0.204 -0.317,0.477 -0.317,0.768c0,0.289 0.113,0.562 0.317,0.766c0.03,0.029 0.064,0.054 0.103,0.072l2.759,1.112l0,2.251c0.008,0.82 0.468,1.582 1.297,2.145c0.792,0.537 1.838,0.833 2.945,0.833c1.108,0 2.153,-0.296 2.946,-0.833c0.825,-0.565 1.286,-1.327 1.294,-2.145Z" style="fill:#389ac4;fill-rule:nonzero;"/><path d="M16,0c-8.488,0 -15.393,6.905 -15.393,15.394l0,9.005l2.711,0l0,-9.005c0,-6.995 5.689,-12.683 12.682,-12.683c6.993,0 12.682,5.688 12.682,12.683l0,9.005l2.711,0l0,-9.005c0,-8.489 -6.905,-15.394 -15.393,-15.394Z" style="fill:#389ac4;fill-rule:nonzero;"/><path d="M21.846,21.133c-0.367,-0.425 -1.008,-0.474 -1.434,-0.107c-0.426,0.367 -0.475,1.009 -0.107,1.434l6.748,9.188c0.201,0.232 0.484,0.352 0.769,0.352c0.236,0 0.471,-0.081 0.664,-0.246c0.426,-0.366 0.473,-1.008 0.107,-1.434l-6.747,-9.187Z" style="fill:#389ac4;fill-rule:nonzero;"/><path d="M11.588,21.025c-0.426,-0.366 -1.068,-0.317 -1.434,0.107l-6.747,9.188c-0.367,0.426 -0.318,1.067 0.107,1.434c0.192,0.165 0.428,0.246 0.663,0.246c0.286,0 0.57,-0.12 0.771,-0.354l6.747,-9.188c0.367,-0.424 0.318,-1.066 -0.107,-1.433Z" style="fill:#389ac4;fill-rule:nonzero;"/></g><rect x="14.695" y="22.871" width="2.086" height="3.095" style="fill:#389ac4;"/><rect x="14.695" y="27.514" width="2.086" height="3.095" style="fill:#389ac4;"/></svg>