<?xml version="1.0" encoding="UTF-8" standalone="no"?><!DOCTYPE svg PUBLIC "-//W3C//DTD SVG 1.1//EN" "http://www.w3.org/Graphics/SVG/1.1/DTD/svg11.dtd"><svg width="100%" height="100%" viewBox="0 0 32 32" version="1.1" xmlns="http://www.w3.org/2000/svg" xmlns:xlink="http://www.w3.org/1999/xlink" xml:space="preserve" style="fill-rule:evenodd;clip-rule:evenodd;stroke-linejoin:round;stroke-miterlimit:1.41421;"><g><path d="M16,8.902c-1.297,0.024 -2.344,1.085 -2.344,2.387c0,1.303 1.047,2.363 2.344,2.388c1.296,-0.024 2.344,-1.085 2.344,-2.388c0,-1.302 -1.048,-2.362 -2.344,-2.387Zm0,3.58c-0.638,-0.025 -1.149,-0.55 -1.149,-1.193c0,-0.643 0.512,-1.168 1.149,-1.191c0.637,0.023 1.149,0.549 1.149,1.191c0,0.644 -0.512,1.168 -1.149,1.193Z" style="fill:#389ac4;fill-rule:nonzero;"/><path d="M7.494,30.445l0,1.446l17.011,0l0,-1.446l-8.505,0l-8.506,0Z" style="fill:#389ac4;fill-rule:nonzero;"/><path d="M9.328,27.997l0,1.446l13.343,0l0,-1.446l-6.671,0l-6.672,0Z" style="fill:#389ac4;fill-rule:nonzero;"/><path d="M29.676,7.953c-0.463,-0.61 -0.793,-0.889 -1.469,-0.889l-9.495,0l-2.255,-1.994l0,-0.726l4.582,-1.93l-4.582,-1.931c-0.006,-0.208 -0.176,-0.374 -0.385,-0.374c-0.212,0 -0.385,0.172 -0.385,0.385l0,4.447l-2.399,2.123l-9.495,0c-0.676,0 -1.006,0.278 -1.469,0.889l-2.324,4.506l0,14.782c0,0.489 0.398,0.888 0.888,0.888l7.511,0l0,-1.775l-6.624,0l0,-13.432l7.102,0c0.237,0 7.123,-6.063 7.123,-6.063c0,0 6.886,6.062 7.123,6.062l7.102,0l0,13.432l-6.624,0l0,1.775l7.512,0c0.489,0 0.888,-0.398 0.888,-0.888l0,-14.781l-2.325,-4.506Z" style="fill:#389ac4;fill-rule:nonzero;"/><path d="M11.668,21.421l0,4.245l-0.502,0l0,1.33l9.622,0l0,-1.33l-0.502,0l0,-4.245c0,-1.173 -0.954,-2.127 -2.127,-2.127l-2.159,0l-0.045,0l-2.16,0c-1.173,0 -2.127,0.954 -2.127,2.127Zm4.711,-0.955l2.013,0c0.398,0 0.723,0.324 0.723,0.723l0,4.478l-2.735,0l0,-5.201l-0.001,0Zm-3.539,0.722c0,-0.398 0.324,-0.723 0.723,-0.723l2.014,0l0,5.2l-2.737,0l0,-4.477Z" style="fill:#389ac4;fill-rule:nonzero;"/><path d="M6.912,15.561c0,-0.277 -0.226,-0.503 -0.503,-0.503l-2.618,0c-0.277,0 -0.502,0.226 -0.502,0.503l0,2.269c0,0.277 0.225,0.503 0.502,0.503l2.618,0c0.277,0 0.503,-0.226 0.503,-0.503l0,-2.269l0,0Zm-0.93,1.841l-1.763,0l0,-1.415l1.764,0l0,1.415l-0.001,0Z" style="fill:#389ac4;fill-rule:nonzero;"/><path d="M11.834,15.058l-2.617,0c-0.277,0 -0.503,0.226 -0.503,0.503l0,2.269c0,0.277 0.226,0.503 0.503,0.503l2.617,0c0.277,0 0.502,-0.226 0.502,-0.503l0,-2.269c0,-0.278 -0.225,-0.503 -0.502,-0.503Zm-0.428,2.344l-1.762,0l0,-1.415l1.763,0l0,1.415l-0.001,0Z" style="fill:#389ac4;fill-rule:nonzero;"/><path d="M17.259,15.058l-2.618,0c-0.277,0 -0.502,0.226 -0.502,0.503l0,2.269c0,0.277 0.225,0.503 0.502,0.503l2.618,0c0.277,0 0.503,-0.226 0.503,-0.503l0,-2.269c0,-0.278 -0.226,-0.503 -0.503,-0.503Zm-0.427,2.344l-1.764,0l0,-1.415l1.764,0l0,1.415Z" style="fill:#389ac4;fill-rule:nonzero;"/><path d="M20.066,18.332l2.617,0c0.277,0 0.503,-0.226 0.503,-0.503l0,-2.269c0,-0.277 -0.226,-0.503 -0.503,-0.503l-2.617,0c-0.277,0 -0.503,0.226 -0.503,0.503l0,2.269c0,0.277 0.226,0.503 0.503,0.503Zm0.427,-2.345l1.764,0l0,1.415l-1.764,0l0,-1.415Z" style="fill:#389ac4;fill-rule:nonzero;"/><path d="M25.491,18.332l2.617,0c0.277,0 0.503,-0.226 0.503,-0.503l0,-2.269c0,-0.277 -0.226,-0.503 -0.503,-0.503l-2.617,0c-0.277,0 -0.503,0.226 -0.503,0.503l0,2.269c0,0.277 0.226,0.503 0.503,0.503Zm0.427,-2.345l1.764,0l0,1.415l-1.764,0l0,-1.415Z" style="fill:#389ac4;fill-rule:nonzero;"/><path d="M6.409,19.643l-2.618,0c-0.277,0 -0.502,0.225 -0.502,0.503l0,2.269c0,0.277 0.225,0.503 0.502,0.503l2.618,0c0.277,0 0.503,-0.226 0.503,-0.503l0,-2.269c0,-0.279 -0.225,-0.503 -0.503,-0.503Zm-0.427,2.344l-1.763,0l0,-1.415l1.764,0l0,1.415l-0.001,0Z" style="fill:#389ac4;fill-rule:nonzero;"/><path d="M24.988,22.414c0,0.277 0.226,0.503 0.503,0.503l2.617,0c0.277,0 0.503,-0.226 0.503,-0.503l0,-2.269c0,-0.278 -0.226,-0.503 -0.503,-0.503l-2.617,0c-0.277,0 -0.503,0.225 -0.503,0.503l0,2.269Zm0.93,-1.842l1.764,0l0,1.415l-1.764,0l0,-1.415Z" style="fill:#389ac4;fill-rule:nonzero;"/></g></svg>