<?xml version="1.0" encoding="UTF-8" standalone="no"?><!DOCTYPE svg PUBLIC "-//W3C//DTD SVG 1.1//EN" "http://www.w3.org/Graphics/SVG/1.1/DTD/svg11.dtd"><svg width="100%" height="100%" viewBox="0 0 70 70" version="1.1" xmlns="http://www.w3.org/2000/svg" xmlns:xlink="http://www.w3.org/1999/xlink" xml:space="preserve" style="fill-rule:evenodd;clip-rule:evenodd;stroke-linejoin:round;stroke-miterlimit:1.41421;"><g><path d="M59.165,59.883l-6.422,0l-13.488,-8.993l-6.2,1.411l6.062,7.584l-13.497,1.291l-2.113,-6.362l-4.524,0l0,8.993c0,2.166 1.757,3.922 3.922,3.922l36.26,0c2.166,0 7.814,-1.756 7.814,-3.922c0,-2.165 -5.648,-3.924 -7.814,-3.924Z" style="fill:#fff;fill-rule:nonzero;"/><rect x="40.786" y="39.688" width="4.872" height="2.435" style="fill:#fff;"/><rect x="45.655" y="18.736" width="4.872" height="2.435" style="fill:#fff;"/><rect x="52.957" y="18.736" width="4.872" height="2.435" style="fill:#fff;"/><rect x="48.09" y="39.688" width="4.867" height="2.435" style="fill:#fff;"/><rect x="38.349" y="18.736" width="4.872" height="2.435" style="fill:#fff;"/><path d="M65.492,21.138c-1.444,-1.116 -3.153,-1.875 -4.94,-2.207l-0.444,2.395c1.411,0.26 2.761,0.864 3.9,1.743l1.484,-1.931Z" style="fill:#fff;fill-rule:nonzero;"/><path d="M55.392,42.123l3.06,0c0.484,0 0.965,-0.031 1.44,-0.09l-0.304,-2.415c-0.377,0.044 -0.757,0.068 -1.138,0.068c-0.004,0 -0.009,0 -0.013,0l-3.047,0l0,2.437l0.002,0Z" style="fill:#fff;fill-rule:nonzero;"/><path d="M67.565,30.822c-0.039,1.461 -0.417,2.846 -1.115,4.119l2.132,1.17c0.875,-1.588 1.368,-3.395 1.418,-5.219l-2.435,-0.07Z" style="fill:#fff;fill-rule:nonzero;"/><path d="M61.668,39.097l0.864,2.277c1.7,-0.641 3.242,-1.695 4.469,-3.047l-1.803,-1.636c-0.966,1.07 -2.187,1.903 -3.53,2.406Z" style="fill:#fff;fill-rule:nonzero;"/><path d="M69.762,27.926c-0.372,-1.777 -1.175,-3.468 -2.321,-4.887l-1.897,1.529c0.906,1.122 1.538,2.454 1.829,3.859l2.389,-0.501Z" style="fill:#fff;fill-rule:nonzero;"/><path d="M2.435,51.253c0,-1.179 0.221,-2.323 0.656,-3.41l-2.258,-0.906c-0.551,1.372 -0.833,2.824 -0.833,4.316c0,0.35 0.015,0.691 0.046,1.035l2.424,-0.219c-0.024,-0.269 -0.035,-0.538 -0.035,-0.816Z" style="fill:#fff;fill-rule:nonzero;"/><rect x="15.824" y="39.688" width="4.872" height="2.435" style="fill:#fff;"/><path d="M5.642,61.447c1.561,0.932 3.346,1.487 5.166,1.601l0.158,-2.426c-1.435,-0.094 -2.846,-0.534 -4.075,-1.269l-1.249,2.094Z" style="fill:#fff;fill-rule:nonzero;"/><path d="M7.343,43.153l-1.126,-2.159c-1.61,0.842 -3.021,2.071 -4.075,3.554l1.981,1.414c0.836,-1.173 1.947,-2.144 3.22,-2.809Z" style="fill:#fff;fill-rule:nonzero;"/><rect x="24.957" y="39.688" width="4.869" height="2.435" style="fill:#fff;"/><path d="M8.768,40.029l0.586,2.363c0.717,-0.18 1.463,-0.27 2.213,-0.27l1.825,0l0,-2.434l-1.827,0c-0.947,0 -1.887,0.114 -2.797,0.341Z" style="fill:#fff;fill-rule:nonzero;"/><path d="M0.602,55.208c0.581,1.717 1.577,3.303 2.881,4.576l1.701,-1.743c-1.034,-1.008 -1.82,-2.255 -2.277,-3.614l-2.305,0.781Z" style="fill:#fff;fill-rule:nonzero;"/><rect x="32.261" y="39.688" width="6.088" height="2.435" style="fill:#fff;"/><rect x="13.39" y="60.64" width="2.435" height="2.435" style="fill:#fff;"/><path d="M5.41,2.273l0,3.309c7.194,0 9.878,1.842 11.672,2.853c-1.433,-1.883 -7.111,-6.162 -11.672,-6.162Z" style="fill:#fff;fill-rule:nonzero;"/><path d="M17.922,32.861c0.007,-0.005 5.679,-4.124 13.718,-4.124c0.569,0 1.12,0.013 1.66,0.033l0,-22.1c-0.54,-0.022 -1.091,-0.035 -1.66,-0.035c-0.413,0 -0.812,0.008 -1.205,0.017c-10.157,0.225 -12.506,3.266 -12.513,3.275c-0.004,-0.009 -2.354,-3.05 -12.512,-3.273c-0.394,-0.008 -0.79,-0.017 -1.206,-0.017c-0.568,0 -1.12,0.013 -1.66,0.035l0,22.1c0.54,-0.02 1.092,-0.033 1.66,-0.033c8.042,-0.002 13.712,4.117 13.718,4.122Z" style="fill:#fff;fill-rule:nonzero;"/></g></svg>