<?xml version="1.0" encoding="UTF-8" standalone="no"?><!DOCTYPE svg PUBLIC "-//W3C//DTD SVG 1.1//EN" "http://www.w3.org/Graphics/SVG/1.1/DTD/svg11.dtd"><svg width="100%" height="100%" viewBox="0 0 32 32" version="1.1" xmlns="http://www.w3.org/2000/svg" xmlns:xlink="http://www.w3.org/1999/xlink" xml:space="preserve" style="fill-rule:evenodd;clip-rule:evenodd;stroke-linejoin:round;stroke-miterlimit:1.41421;"><g id="travel"><path d="M29.488,4.785l-13.488,-4.785l-0.045,0.016l-13.443,4.769l0,13.725c0,7.38 10.212,13.374 13.398,13.486c0.03,0.002 0.061,0.004 0.09,0.004c0.668,0 1.681,-0.284 2.856,-0.805l0,-5.223c0,-1.91 1.548,-3.457 3.457,-3.457c1.909,0 3.458,1.547 3.458,3.457l0,0.357c2.124,-2.206 3.717,-4.904 3.717,-7.819l0,-2.62l0,-11.105Zm-20.103,0.748l0,-0.18c0,-0.135 0.109,-0.242 0.242,-0.242c0.133,0 0.242,0.107 0.242,0.242l0,0.18c2.017,0.102 3.636,1.472 3.791,3.193c-0.195,-0.141 -0.493,-0.23 -0.826,-0.23c-0.517,0 -0.947,0.215 -1.047,0.502l-0.043,0c-0.098,-0.289 -0.53,-0.506 -1.049,-0.506c-0.334,0 -0.631,0.09 -0.826,0.231l0,3.759c0,0.604 -0.492,1.095 -1.096,1.095c-0.604,0 -1.095,-0.491 -1.095,-1.095c0,-0.134 0.108,-0.242 0.241,-0.242c0.134,0 0.242,0.108 0.242,0.242c0,0.337 0.273,0.611 0.611,0.611c0.338,0 0.611,-0.274 0.611,-0.611l0,-3.754c-0.194,-0.142 -0.491,-0.232 -0.825,-0.232c-0.517,0 -0.946,0.215 -1.047,0.502l-0.043,0c-0.098,-0.289 -0.53,-0.506 -1.048,-0.506c-0.333,0 -0.631,0.09 -0.826,0.23c0.157,-1.72 1.775,-3.087 3.791,-3.189Zm6.525,24.84c-1.096,-0.068 -4.037,-1.337 -6.782,-3.581c-1.865,-1.523 -4.993,-4.626 -4.993,-8.281l0,-2.62l11.775,0l0,14.482Zm6.404,-8.67c-1.138,0 -2.061,-0.922 -2.061,-2.06c0,-1.139 0.923,-2.061 2.061,-2.061c1.138,0 2.061,0.922 2.061,2.061c0,1.138 -0.923,2.06 -2.061,2.06Zm5.551,-5.812l-11.91,0l0,-14.153l0.045,-0.015l11.865,4.209l0,9.959Z" style="fill:#389ac4;fill-rule:nonzero;"/><path d="M19.788,10.732l-1.344,-0.123l-0.639,0.618l1.198,0.497c-0.04,0.127 -0.037,0.232 0.021,0.29l0.213,0.213c0.057,0.057 0.155,0.062 0.277,0.025l0.423,1.212l0.731,-0.732l-0.144,-1.275l1.609,-1.608l1.882,3.777l0.793,-0.794l-1.029,-4.629l1.133,-1.133c0.367,-0.367 0.55,-0.782 0.406,-0.925l-0.213,-0.213c-0.143,-0.144 -0.558,0.039 -0.925,0.405l-1.14,1.144l-4.634,-1.095l-0.815,0.805l3.818,1.921l-1.621,1.62Z" style="fill:#389ac4;fill-rule:nonzero;"/></g></svg>