<?xml version="1.0" encoding="UTF-8" standalone="no"?><!DOCTYPE svg PUBLIC "-//W3C//DTD SVG 1.1//EN" "http://www.w3.org/Graphics/SVG/1.1/DTD/svg11.dtd"><svg width="100%" height="100%" viewBox="0 0 32 32" version="1.1" xmlns="http://www.w3.org/2000/svg" xmlns:xlink="http://www.w3.org/1999/xlink" xml:space="preserve" style="fill-rule:evenodd;clip-rule:evenodd;stroke-linejoin:round;stroke-miterlimit:1.41421;"><g id="visa"><path d="M28.727,4.353l-14.987,0c-1.043,0 -1.961,0.544 -2.484,1.364c-0.247,-0.738 -0.652,-1.377 -1.209,-1.667l-7.465,-3.886c-0.209,-0.109 -0.426,-0.164 -0.646,-0.164c-1.11,0 -1.609,1.219 -1.612,2.43l0.014,21.918c-0.004,1.27 0.498,2.848 1.463,3.402c0.016,0.008 0.031,0.018 0.046,0.025l7.426,3.672c0.218,0.121 0.444,0.182 0.675,0.182c0.48,0 1.014,-0.273 1.325,-0.967c0.526,0.805 1.436,1.338 2.467,1.338l14.986,0c1.626,0 2.949,-1.322 2.949,-2.949l0,-21.749c0.001,-1.626 -1.322,-2.949 -2.948,-2.949Zm-18.838,24.846c0,0.311 -0.041,0.531 -0.083,0.672l-7.194,-3.559c-0.199,-0.137 -0.627,-0.928 -0.624,-1.965l-0.015,-21.915c0.002,-0.316 0.045,-0.539 0.091,-0.678l7.22,3.758c0.18,0.107 0.605,0.898 0.605,1.939l0,21.748Zm20.137,-0.148c0,0.717 -0.583,1.301 -1.3,1.301l-14.986,0c-0.717,0 -1.3,-0.584 -1.3,-1.301l0,-21.749c0,-0.717 0.583,-1.3 1.3,-1.3l14.986,0c0.717,0 1.3,0.583 1.3,1.3l0,21.749Z" style="fill:#389ac4;fill-rule:nonzero;"/><path d="M23.818,20.68c-1.916,0 -3.475,1.559 -3.475,3.475c0,1.916 1.559,3.475 3.475,3.475c1.916,0 3.475,-1.559 3.475,-3.475c0,-1.916 -1.559,-3.475 -3.475,-3.475Zm-0.136,5.363l-1.954,-1.955l0.74,-0.74l1.214,1.213l2.065,-2.066l0.741,0.742l-2.806,2.806Z" style="fill:#389ac4;fill-rule:nonzero;"/><path d="M28.095,22.75l0.49,-1.035l-1.125,-0.213l0.146,-1.135l-1.137,0.145l-0.212,-1.125l-1.036,0.49l-0.55,-1.006l-0.834,0.787l-0.833,-0.787l-0.551,1.006l-1.035,-0.49l-0.212,1.125l-1.137,-0.145l0.147,1.135l-1.127,0.213l0.491,1.035l-1.006,0.551l0.786,0.832l-0.786,0.834l1.006,0.549l-0.491,1.037l1.127,0.211l-0.147,1.139l1.137,-0.146l0.212,1.125l1.035,-0.49l0.551,1.006l0.833,-0.787l0.834,0.787l0.55,-1.006l1.036,0.49l0.212,-1.125l1.137,0.146l-0.146,-1.139l1.125,-0.211l-0.49,-1.037l1.006,-0.549l-0.786,-0.834l0.786,-0.832l-1.006,-0.551Zm-4.277,5.176c-2.08,0 -3.772,-1.691 -3.772,-3.771c0,-2.08 1.692,-3.771 3.772,-3.771c2.08,0 3.772,1.691 3.772,3.771c0,2.08 -1.692,3.771 -3.772,3.771Z" style="fill:#389ac4;fill-rule:nonzero;"/><path d="M21.797,13.12c0.47,0 0.854,-0.149 0.854,-0.333l0,-0.273c0,-0.184 -0.384,-0.332 -0.854,-0.332l-1.468,0l-2.27,-3.676l-1.039,-0.007l1.217,3.683l-2.08,0l-0.782,-0.941l-0.807,-0.014l0.449,1.088c-0.107,0.056 -0.172,0.125 -0.172,0.199l0,0.273c0,0.072 0.061,0.14 0.161,0.194l-0.506,1.049l0.938,0l0.727,-0.91l2.064,0l-1.216,3.63l1.019,0l2.31,-3.63l1.455,0Z" style="fill:#389ac4;fill-rule:nonzero;"/></g></svg>